g AbilitySV
v -0.7542086 -0.1584477 0.075
v 0.6916386 -0.1456112 0.075
v 0.6438708 -0.1584477 0.075
v -0.7938751 -0.1456112 0.075
v 0.7377416 -0.1209783 0.075
v -0.8244315 -0.1209781 0.075
v 0.7784448 -0.08654433 0.075
v -0.8434026 -0.08654413 0.075
v 0.8104508 -0.04509909 0.075
v -0.8492516 -0.04509887 0.075
v 0.8311666 0 0.075
v -0.8415043 2.417096E-08 0.075
v 0.8389139 0.04509892 0.075
v -0.8207886 0.04509892 0.075
v 0.833065 0.08654418 0.075
v -0.7887826 0.08654417 0.075
v 0.8140938 0.1209782 0.075
v -0.7480794 0.1209781 0.075
v 0.7835373 0.1456112 0.075
v -0.7019764 0.1456112 0.075
v 0.7438709 0.1584477 0.075
v -0.6542086 0.1584477 0.075
v -0.7542086 -0.1584477 0
v 0.6438708 -0.1584477 0.075
v 0.6438708 -0.1584477 0
v -0.7542086 -0.1584477 0.075
v -0.7938751 -0.1456112 0
v -0.7938751 -0.1456112 0.075
v -0.8244315 -0.1209781 0
v -0.8244315 -0.1209781 0.075
v -0.8434026 -0.08654413 0
v -0.8434026 -0.08654413 0.075
v -0.8492516 -0.04509887 0
v -0.8492516 -0.04509887 0.075
v -0.8415043 2.417096E-08 0
v -0.8415043 2.417096E-08 0.075
v -0.8207886 0.04509892 0
v -0.8207886 0.04509892 0.075
v -0.7887826 0.08654417 0
v -0.7887826 0.08654417 0.075
v -0.7480794 0.1209781 0
v -0.7480794 0.1209781 0.075
v -0.7019764 0.1456112 0
v -0.7019764 0.1456112 0.075
v -0.6542086 0.1584477 0
v -0.6542086 0.1584477 0.075
v 0.6438708 -0.1584477 0
v 0.6438708 -0.1584477 0.075
v 0.6916386 -0.1456112 0.075
v 0.6916386 -0.1456112 0
v 0.7377416 -0.1209783 0.075
v 0.7377416 -0.1209783 0
v 0.7784448 -0.08654433 0.075
v 0.7784448 -0.08654433 0
v 0.8104508 -0.04509909 0.075
v 0.8104508 -0.04509909 0
v 0.8311666 0 0.075
v 0.8311666 0 0
v 0.8389139 0.04509892 0.075
v 0.8389139 0.04509892 0
v 0.833065 0.08654418 0.075
v 0.833065 0.08654418 0
v 0.8140938 0.1209782 0.075
v 0.8140938 0.1209782 0
v 0.7835373 0.1456112 0.075
v 0.7835373 0.1456112 0
v 0.7438709 0.1584477 0.075
v 0.7438709 0.1584477 0
v -0.6542086 0.1584477 0.075
v -0.6542086 0.1584477 0
vt 0.07196045 0.4138184
vt 0.8896484 0.4208984
vt 0.8623047 0.4138184
vt 0.04928589 0.4208984
vt 0.9160156 0.4348145
vt 0.03182983 0.4348145
vt 0.9389648 0.4538574
vt 0.02098083 0.4538574
vt 0.9575195 0.4770508
vt 0.01763916 0.4770508
vt 0.9692383 0.5019531
vt 0.02206421 0.5019531
vt 0.9736328 0.5273438
vt 0.03390503 0.5273438
vt 0.9702148 0.550293
vt 0.05218506 0.550293
vt 0.9594727 0.5698242
vt 0.07543945 0.5698242
vt 0.9418945 0.5834961
vt 0.1018066 0.5834961
vt 0.9194336 0.590332
vt 0.1291504 0.590332
vt 0.9716797 0.3308105
vt 0.9716797 0.3662109
vt 0.9716797 0.3308105
vt 0.9716797 0.3662109
vt 0.9335938 0.3308105
vt 0.9335938 0.3662109
vt 0.8598633 0.3308105
vt 0.8598633 0.3662109
vt 0.7573242 0.3308105
vt 0.7573242 0.3662109
vt 0.6337891 0.3308105
vt 0.6337891 0.3662109
vt 0.4992676 0.3308105
vt 0.4992676 0.3662109
vt 0.3649902 0.3308105
vt 0.3649902 0.3662109
vt 0.241333 0.3308105
vt 0.241333 0.3662109
vt 0.1386719 0.3308105
vt 0.1386719 0.3662109
vt 0.06524658 0.3308105
vt 0.06524658 0.3662109
vt 0.02694702 0.3308105
vt 0.02694702 0.3662109
vt 0.9716797 0.3308105
vt 0.9716797 0.3662109
vt 0.9335938 0.3662109
vt 0.9335938 0.3308105
vt 0.8598633 0.3662109
vt 0.8598633 0.3308105
vt 0.7573242 0.3662109
vt 0.7573242 0.3308105
vt 0.6337891 0.3662109
vt 0.6337891 0.3308105
vt 0.4992676 0.3662109
vt 0.4992676 0.3308105
vt 0.3649902 0.3662109
vt 0.3649902 0.3308105
vt 0.241333 0.3662109
vt 0.241333 0.3308105
vt 0.1386719 0.3662109
vt 0.1386719 0.3308105
vt 0.06524658 0.3662109
vt 0.06524658 0.3308105
vt 0.02694702 0.3662109
vt 0.02694702 0.3308105
vt 0.02694702 0.3662109
vt 0.02694702 0.3308105
vn 0 0 1
vn 0 0 1
vn 0 0 1
vn 0 0 1
vn 0 0 1
vn 0 0 1
vn 0 0 1
vn 0 0 1
vn 0 0 1
vn 0 0 1
vn 0 0 1
vn 0 0 1
vn 0 0 1
vn 0 0 1
vn 0 0 1
vn 0 0 1
vn 0 0 1
vn 0 0 1
vn 0 0 1
vn 0 0 1
vn 0 0 1
vn 0 0 1
vn -0.1558838 -0.987793 0
vn 0.1308594 -0.9912109 0
vn 0.1308594 -0.9912109 0
vn -0.1558838 -0.987793 0
vn -0.4755859 -0.8793945 0
vn -0.4755859 -0.8793945 0
vn -0.7661133 -0.6425781 0
vn -0.7661133 -0.6425781 0
vn -0.9487305 -0.3164063 0
vn -0.9487305 -0.3164063 0
vn -1 0.01496124 0
vn -1 0.01496124 0
vn -0.9550781 0.2958984 0
vn -0.9550781 0.2958984 0
vn -0.8554688 0.5175781 0
vn -0.8554688 0.5175781 0
vn -0.7226563 0.6914063 0
vn -0.7226563 0.6914063 0
vn -0.5615234 0.8271484 0
vn -0.5615234 0.8271484 0
vn -0.3676758 0.9296875 0
vn -0.3676758 0.9296875 0
vn -0.1308594 0.9912109 0
vn -0.1308594 0.9912109 0
vn 0.1308594 -0.9912109 0
vn 0.1308594 -0.9912109 0
vn 0.3676758 -0.9296875 0
vn 0.3676758 -0.9296875 0
vn 0.5615234 -0.8271484 0
vn 0.5615234 -0.8271484 0
vn 0.7226563 -0.6914063 0
vn 0.7226563 -0.6914063 0
vn 0.8554688 -0.5175781 0
vn 0.8554688 -0.5175781 0
vn 0.9550781 -0.2958984 0
vn 0.9550781 -0.2958984 0
vn 1 -0.01496124 0
vn 1 -0.01496124 0
vn 0.9487305 0.3164063 0
vn 0.9487305 0.3164063 0
vn 0.7661133 0.6425781 0
vn 0.7661133 0.6425781 0
vn 0.4755859 0.8793945 0
vn 0.4755859 0.8793945 0
vn 0.1558838 0.987793 0
vn 0.1558838 0.987793 0
vn -0.1308594 0.9912109 0
vn -0.1308594 0.9912109 0
g AbilitySV_0
f 3/3/3 2/2/2 1/1/1
f 2/2/2 4/4/4 1/1/1
f 5/5/5 4/4/4 2/2/2
f 6/6/6 4/4/4 5/5/5
f 7/7/7 6/6/6 5/5/5
f 8/8/8 6/6/6 7/7/7
f 9/9/9 8/8/8 7/7/7
f 10/10/10 8/8/8 9/9/9
f 11/11/11 10/10/10 9/9/9
f 12/12/12 10/10/10 11/11/11
f 13/13/13 12/12/12 11/11/11
f 14/14/14 12/12/12 13/13/13
f 15/15/15 14/14/14 13/13/13
f 16/16/16 14/14/14 15/15/15
f 17/17/17 16/16/16 15/15/15
f 18/18/18 16/16/16 17/17/17
f 19/19/19 18/18/18 17/17/17
f 20/20/20 18/18/18 19/19/19
f 21/21/21 20/20/20 19/19/19
f 22/22/22 20/20/20 21/21/21
f 25/25/25 24/24/24 23/23/23
f 24/24/24 26/26/26 23/23/23
f 23/23/23 26/26/26 27/27/27
f 26/26/26 28/28/28 27/27/27
f 27/27/27 28/28/28 29/29/29
f 28/28/28 30/30/30 29/29/29
f 29/29/29 30/30/30 31/31/31
f 30/30/30 32/32/32 31/31/31
f 31/31/31 32/32/32 33/33/33
f 32/32/32 34/34/34 33/33/33
f 33/33/33 34/34/34 35/35/35
f 34/34/34 36/36/36 35/35/35
f 35/35/35 36/36/36 37/37/37
f 36/36/36 38/38/38 37/37/37
f 37/37/37 38/38/38 39/39/39
f 38/38/38 40/40/40 39/39/39
f 39/39/39 40/40/40 41/41/41
f 40/40/40 42/42/42 41/41/41
f 41/41/41 42/42/42 43/43/43
f 42/42/42 44/44/44 43/43/43
f 43/43/43 44/44/44 45/45/45
f 44/44/44 46/46/46 45/45/45
f 49/49/49 48/48/48 47/47/47
f 50/50/50 49/49/49 47/47/47
f 51/51/51 49/49/49 50/50/50
f 52/52/52 51/51/51 50/50/50
f 53/53/53 51/51/51 52/52/52
f 54/54/54 53/53/53 52/52/52
f 55/55/55 53/53/53 54/54/54
f 56/56/56 55/55/55 54/54/54
f 57/57/57 55/55/55 56/56/56
f 58/58/58 57/57/57 56/56/56
f 59/59/59 57/57/57 58/58/58
f 60/60/60 59/59/59 58/58/58
f 61/61/61 59/59/59 60/60/60
f 62/62/62 61/61/61 60/60/60
f 63/63/63 61/61/61 62/62/62
f 64/64/64 63/63/63 62/62/62
f 65/65/65 63/63/63 64/64/64
f 66/66/66 65/65/65 64/64/64
f 67/67/67 65/65/65 66/66/66
f 68/68/68 67/67/67 66/66/66
f 69/69/69 67/67/67 68/68/68
f 70/70/70 69/69/69 68/68/68
