g Ability
v -1.392058 -0.3774739 0.07536949
v -1.551479 -0.2180529 0.07536949
v 1.392058 -0.3774739 0.07536949
v 1.551479 -0.2180529 0.07536949
v -1.551479 0.2180528 0.07536949
v 1.551479 0.2180528 0.07536949
v -1.392058 0.3774739 0.07536949
v 1.392058 0.3774739 0.07536949
v -1.392058 -0.3774739 0.0003694892
v -1.392058 -0.3774739 0.07536949
v 1.392058 -0.3774739 0.07536949
v 1.392058 -0.3774739 0.0003694892
v 1.392058 -0.3774739 0.0003694892
v 1.392058 -0.3774739 0.07536949
v 1.551479 -0.2180529 0.07536949
v 1.551479 -0.2180529 0.0003694892
v 1.551479 -0.2180529 0.0003694892
v 1.551479 -0.2180529 0.07536949
v 1.551479 0.2180528 0.07536949
v 1.551479 0.2180528 0.0003694892
v 1.551479 0.2180528 0.0003694892
v 1.551479 0.2180528 0.07536949
v 1.392058 0.3774739 0.07536949
v 1.392058 0.3774739 0.0003694892
v 1.392058 0.3774739 0.0003694892
v 1.392058 0.3774739 0.07536949
v -1.392058 0.3774739 0.07536949
v -1.392058 0.3774739 0.0003694892
v -1.392058 0.3774739 0.0003694892
v -1.392058 0.3774739 0.07536949
v -1.551479 0.2180528 0.07536949
v -1.551479 0.2180528 0.0003694892
v -1.551479 0.2180528 0.0003694892
v -1.551479 0.2180528 0.07536949
v -1.551479 -0.2180529 0.07536949
v -1.551479 -0.2180529 0.0003694892
v -1.551479 -0.2180529 0.0003694892
v -1.551479 -0.2180529 0.07536949
v -1.392058 -0.3774739 0.07536949
v -1.392058 -0.3774739 0.0003694892
vt 0.06329346 0.3994141
vt 0.0201416 0.4418945
vt 0.9311523 0.3994141
vt 0.9750977 0.4418945
vt 0.0201416 0.5581055
vt 0.9750977 0.5581055
vt 0.06329346 0.6005859
vt 0.9311523 0.6005859
vt 0.07110596 0.3344727
vt 0.07110596 0.3693848
vt 0.9287109 0.3693848
vt 0.9287109 0.3344727
vt 0.9287109 0.3344727
vt 0.9287109 0.3693848
vt 0.9780273 0.3693848
vt 0.9780273 0.3344727
vt 0.9780273 0.3344727
vt 0.9780273 0.3693848
vt 0.9780273 0.3693848
vt 0.9780273 0.3344727
vt 1 1
vt 1 1
vt 1 1
vt 1 1
vt 1 1
vt 1 1
vt 1 1
vt 1 1
vt 1 1
vt 1 1
vt 1 1
vt 1 1
vt 0.02201843 0.3344727
vt 0.02201843 0.3693848
vt 0.02201843 0.3693848
vt 0.02201843 0.3344727
vt 0.02201843 0.3344727
vt 0.02201843 0.3693848
vt 0.07110596 0.3693848
vt 0.07110596 0.3344727
vn 0 0 1
vn 0 0 1
vn 0 0 1
vn 0 0 1
vn 0 0 1
vn 0 0 1
vn 0 0 1
vn 0 0 1
vn 0 -1 0
vn 0 -1 0
vn 0 -1 0
vn 0 -1 0
vn 0.7070313 -0.7070313 0
vn 0.7070313 -0.7070313 0
vn 0.7070313 -0.7070313 0
vn 0.7070313 -0.7070313 0
vn 1 0 0
vn 1 0 0
vn 1 0 0
vn 1 0 0
vn 0.7070313 0.7070313 0
vn 0.7070313 0.7070313 0
vn 0.7070313 0.7070313 0
vn 0.7070313 0.7070313 0
vn 0 1 0
vn 0 1 0
vn 0 1 0
vn 0 1 0
vn -0.7070313 0.7070313 0
vn -0.7070313 0.7070313 0
vn -0.7070313 0.7070313 0
vn -0.7070313 0.7070313 0
vn -1 0 0
vn -1 0 0
vn -1 0 0
vn -1 0 0
vn -0.7070313 -0.7070313 0
vn -0.7070313 -0.7070313 0
vn -0.7070313 -0.7070313 0
vn -0.7070313 -0.7070313 0
g Ability_0
f 3/3/3 2/2/2 1/1/1
f 4/4/4 2/2/2 3/3/3
f 5/5/5 2/2/2 4/4/4
f 6/6/6 5/5/5 4/4/4
f 7/7/7 5/5/5 6/6/6
f 8/8/8 7/7/7 6/6/6
f 11/11/11 10/10/10 9/9/9
f 12/12/12 11/11/11 9/9/9
f 15/15/15 14/14/14 13/13/13
f 16/16/16 15/15/15 13/13/13
f 19/19/19 18/18/18 17/17/17
f 20/20/20 19/19/19 17/17/17
f 23/23/23 22/22/22 21/21/21
f 24/24/24 23/23/23 21/21/21
f 27/27/27 26/26/26 25/25/25
f 28/28/28 27/27/27 25/25/25
f 31/31/31 30/30/30 29/29/29
f 32/32/32 31/31/31 29/29/29
f 35/35/35 34/34/34 33/33/33
f 36/36/36 35/35/35 33/33/33
f 39/39/39 38/38/38 37/37/37
f 40/40/40 39/39/39 37/37/37
