g ex_Lower
v 0.1007758 -0.2325767 0
v 0.2298196 0.04264158 0
v 0.3672488 -0.2325767 0
v 0.04293668 -0.1149349 0
v 0.1503522 0.199227 0
v 0.3005779 0.0818961 0
v 0.1326965 0.2346126 0
v 0.1126973 0.2627127 0
v 0.09118728 0.2841985 0
v 0.1649695 0.2226055 0
v 0.06899895 0.2997411 0
v 0.3515533 0.1211506 0
v 0.1692641 0.2384514 0
v 0.1720518 0.2563758 0
v 0.3860431 0.1604051 0
v 0.04696494 0.310012 0
v 0.1737092 0.275859 0
v 0.4073443 0.1996597 0
v 0.4187541 0.2389142 0
v 0.1746131 0.2963813 0
v 0.4235696 0.2781687 0
v 0.1751403 0.3174233 0
v 0.4250879 0.3174233 0
v 0.0259178 0.3156824 0
v 0.006690152 0.3174233 0
v -0.2173393 0.3174233 0
v -0.2235363 -0.2114373 0
v 0.0375432 -0.1311027 0
v 0.03368563 -0.1475651 0
v 0.03110797 -0.1642729 0
v 0.02955426 -0.181177 0
v 0.0287685 -0.1982285 0
v 0.02849471 -0.215378 0
v 0.02847691 -0.2325767 0
v -0.2276677 -0.2325767 0
v -0.3016066 0.3063921 0
v -0.2458549 -0.2204361 0
v -0.3769046 0.2759863 0
v -0.2585778 -0.2244423 0
v -0.4417946 0.2298841 0
v -0.2731773 -0.2278567 0
v -0.4948382 0.171764 0
v -0.2902788 -0.2304821 0
v -0.5345969 0.1053043 0
v -0.3105078 -0.2321212 0
v -0.5596321 0.03418352 0
v -0.3344899 -0.2325767 0
v -0.5685052 -0.03792002 0
v -0.3845937 -0.2283494 0
v -0.5619037 -0.08890064 0
v -0.4325253 -0.2161257 0
v -0.5429736 -0.1322931 0
v -0.4762532 -0.1959873 0
v -0.5137465 -0.1680159 0
vt 0.6738281 0.2275391
vt 0.8037109 0.5
vt 0.9418945 0.2275391
vt 0.6152344 0.3439941
vt 0.7236328 0.6552734
vt 0.8745117 0.5390625
vt 0.7055664 0.6904297
vt 0.6855469 0.7182617
vt 0.6640625 0.7397461
vt 0.7382813 0.6787109
vt 0.6416016 0.7548828
vt 0.9257813 0.578125
vt 0.7426758 0.6943359
vt 0.7451172 0.7119141
vt 0.9609375 0.6166992
vt 0.6196289 0.7651367
vt 0.7470703 0.7314453
vt 0.9819336 0.6557617
vt 0.9936523 0.6948242
vt 0.7480469 0.7514648
vt 0.9985352 0.7333984
vt 0.7485352 0.7724609
vt 1 0.7724609
vt 0.5981445 0.7709961
vt 0.5791016 0.7724609
vt 0.3535156 0.7724609
vt 0.347168 0.2484131
vt 0.6098633 0.328125
vt 0.605957 0.3117676
vt 0.6035156 0.295166
vt 0.6020508 0.2783203
vt 0.6010742 0.2614746
vt 0.6010742 0.2445068
vt 0.6010742 0.2275391
vt 0.3430176 0.2275391
vt 0.2685547 0.7617188
vt 0.324707 0.239502
vt 0.1928711 0.7314453
vt 0.3120117 0.2355957
vt 0.1275635 0.6855469
vt 0.2971191 0.2321777
vt 0.07415771 0.6279297
vt 0.2800293 0.2296143
vt 0.03411865 0.5625
vt 0.2597656 0.2279053
vt 0.008934021 0.4919434
vt 0.2354736 0.2275391
vt 0 0.4204102
vt 0.1850586 0.2316895
vt 0.006645203 0.369873
vt 0.1368408 0.2437744
vt 0.0256958 0.3269043
vt 0.09283447 0.2636719
vt 0.05511475 0.2915039
vn 0 0 1
vn 0 0 1
vn 0 0 1
vn 0 0 1
vn 0 0 1
vn 0 0 1
vn 0 0 1
vn 0 0 1
vn 0 0 1
vn 0 0 1
vn 0 0 1
vn 0 0 1
vn 0 0 1
vn 0 0 1
vn 0 0 1
vn 0 0 1
vn 0 0 1
vn 0 0 1
vn 0 0 1
vn 0 0 1
vn 0 0 1
vn 0 0 1
vn 0 0 1
vn 0 0 1
vn 0 0 1
vn 0 0 1
vn 0 0 1
vn 0 0 1
vn 0 0 1
vn 0 0 1
vn 0 0 1
vn 0 0 1
vn 0 0 1
vn 0 0 1
vn 0 0 1
vn 0 0 1
vn 0 0 1
vn 0 0 1
vn 0 0 1
vn 0 0 1
vn 0 0 1
vn 0 0 1
vn 0 0 1
vn 0 0 1
vn 0 0 1
vn 0 0 1
vn 0 0 1
vn 0 0 1
vn 0 0 1
vn 0 0 1
vn 0 0 1
vn 0 0 1
vn 0 0 1
vn 0 0 1
g ex_Lower_0
f 3/3/3 2/2/2 1/1/1
f 1/1/1 2/2/2 4/4/4
f 2/2/2 5/5/5 4/4/4
f 6/6/6 5/5/5 2/2/2
f 5/5/5 7/7/7 4/4/4
f 7/7/7 8/8/8 4/4/4
f 8/8/8 9/9/9 4/4/4
f 10/10/10 5/5/5 6/6/6
f 9/9/9 11/11/11 4/4/4
f 12/12/12 10/10/10 6/6/6
f 13/13/13 10/10/10 12/12/12
f 14/14/14 13/13/13 12/12/12
f 15/15/15 14/14/14 12/12/12
f 11/11/11 16/16/16 4/4/4
f 17/17/17 14/14/14 15/15/15
f 18/18/18 17/17/17 15/15/15
f 19/19/19 17/17/17 18/18/18
f 20/20/20 17/17/17 19/19/19
f 21/21/21 20/20/20 19/19/19
f 22/22/22 20/20/20 21/21/21
f 23/23/23 22/22/22 21/21/21
f 16/16/16 24/24/24 4/4/4
f 24/24/24 25/25/25 4/4/4
f 25/25/25 26/26/26 4/4/4
f 4/4/4 26/26/26 27/27/27
f 28/28/28 4/4/4 27/27/27
f 29/29/29 28/28/28 27/27/27
f 30/30/30 29/29/29 27/27/27
f 31/31/31 30/30/30 27/27/27
f 32/32/32 31/31/31 27/27/27
f 33/33/33 32/32/32 27/27/27
f 34/34/34 33/33/33 27/27/27
f 35/35/35 34/34/34 27/27/27
f 36/36/36 27/27/27 26/26/26
f 37/37/37 27/27/27 36/36/36
f 38/38/38 37/37/37 36/36/36
f 39/39/39 37/37/37 38/38/38
f 40/40/40 39/39/39 38/38/38
f 41/41/41 39/39/39 40/40/40
f 42/42/42 41/41/41 40/40/40
f 43/43/43 41/41/41 42/42/42
f 44/44/44 43/43/43 42/42/42
f 45/45/45 43/43/43 44/44/44
f 46/46/46 45/45/45 44/44/44
f 47/47/47 45/45/45 46/46/46
f 48/48/48 47/47/47 46/46/46
f 49/49/49 47/47/47 48/48/48
f 50/50/50 49/49/49 48/48/48
f 51/51/51 49/49/49 50/50/50
f 52/52/52 51/51/51 50/50/50
f 53/53/53 51/51/51 52/52/52
f 54/54/54 53/53/53 52/52/52
