g FusionStrike
v -1.220282 0.2877409 0
v -1.220282 0.3287095 0
v -0.2289945 0.3287096 0
v -1.029643 -0.004515275 0
v -0.2516712 -0.2395159 0
v -0.3092632 -0.247642 0
v -1.260966 -0.247642 0
v -0.2042705 -0.2120567 0
v -0.1686424 -0.1851618 0
v -0.2002887 0.2941699 0
v -0.1601026 0.314357 0
v -0.1057847 -0.247642 0
v -0.09695184 0.3287095 0
v 0.9510725 -0.247642 0
v 1.024366 -0.2238508 0
v 1.065199 -0.1762479 0
v 1.085042 -0.1106149 0
v 1.074732 -0.03998695 0
v 1.01586 0.05913378 0
v 1.016564 0.1287319 0
v 1.07146 0.1976147 0
v 1.188091 0.2740362 0
v 1.276633 0.3287095 0
vt 0.01983643 0.5927734
vt 0.01983643 0.6083984
vt 0.40625 0.6083984
vt 0.09411621 0.4787598
vt 0.3974609 0.387207
vt 0.375 0.3840332
vt 0.003974915 0.3840332
vt 0.4157715 0.3979492
vt 0.4296875 0.4084473
vt 0.4174805 0.5952148
vt 0.4331055 0.6030273
vt 0.4543457 0.3840332
vt 0.4577637 0.6083984
vt 0.8662109 0.3840332
vt 0.8945313 0.3933105
vt 0.9106445 0.4118652
vt 0.918457 0.4375
vt 0.9145508 0.4648438
vt 0.8916016 0.503418
vt 0.8916016 0.5307617
vt 0.9130859 0.5576172
vt 0.9584961 0.5874023
vt 0.9931641 0.6083984
vn 0 0 1
vn 0 0 1
vn 0 0 1
vn 0 0 1
vn 0 0 1
vn 0 0 1
vn 0 0 1
vn 0 0 1
vn 0 0 1
vn 0 0 1
vn 0 0 1
vn 0 0 1
vn 0 0 1
vn 0 0 1
vn 0 0 1
vn 0 0 1
vn 0 0 1
vn 0 0 1
vn 0 0 1
vn 0 0 1
vn 0 0 1
vn 0 0 1
vn 0 0 1
g FusionStrike_0
f 3/3/3 2/2/2 1/1/1
f 3/3/3 1/1/1 4/4/4
f 5/5/5 3/3/3 4/4/4
f 6/6/6 5/5/5 4/4/4
f 7/7/7 6/6/6 4/4/4
f 5/5/5 8/8/8 3/3/3
f 8/8/8 9/9/9 3/3/3
f 9/9/9 10/10/10 3/3/3
f 9/9/9 11/11/11 10/10/10
f 9/9/9 12/12/12 11/11/11
f 12/12/12 13/13/13 11/11/11
f 12/12/12 14/14/14 13/13/13
f 14/14/14 15/15/15 13/13/13
f 15/15/15 16/16/16 13/13/13
f 16/16/16 17/17/17 13/13/13
f 17/17/17 18/18/18 13/13/13
f 18/18/18 19/19/19 13/13/13
f 19/19/19 20/20/20 13/13/13
f 20/20/20 21/21/21 13/13/13
f 22/22/22 13/13/13 21/21/21
f 22/22/22 23/23/23 13/13/13
