g TeraTrim
v 0.3453552 0.03739941 0.025
v -0.2204735 0.04239471 0.025
v 0.3471937 0.0424439 0.025
v -0.2551495 0.03250276 0.025
v 0.3405744 0.0309522 0.025
v -0.2950579 0.00836765 0.025
v 0.3299085 0.02169949 0.025
v -0.3358004 -0.0216995 0.025
v 0.2891659 -0.00836768 0.025
v -0.3464663 -0.0309522 0.025
v 0.2492576 -0.0325028 0.025
v -0.3512472 -0.03739942 0.025
v 0.2145816 -0.04239475 0.025
v -0.3530856 -0.0424439 0.025
v 0.3453552 0.03739941 0
v 0.3471937 0.0424439 0.025
v 0.3471937 0.0424439 0
v 0.3453552 0.03739941 0.025
v 0.3405744 0.0309522 0
v 0.3405744 0.0309522 0.025
v 0.3299085 0.02169949 0
v 0.3299085 0.02169949 0.025
v 0.2891659 -0.00836768 0
v 0.2891659 -0.00836768 0.025
v 0.2492576 -0.0325028 0
v 0.2492576 -0.0325028 0.025
v 0.2145816 -0.04239475 0
v 0.2145816 -0.04239475 0.025
v -0.3530856 -0.0424439 0
v -0.3530856 -0.0424439 0.025
v 0.3471937 0.0424439 0
v 0.3471937 0.0424439 0.025
v -0.2204735 0.04239471 0.025
v -0.2204735 0.04239471 0
v -0.2551495 0.03250276 0.025
v -0.2551495 0.03250276 0
v -0.2950579 0.00836765 0.025
v -0.2950579 0.00836765 0
v -0.3358004 -0.0216995 0.025
v -0.3358004 -0.0216995 0
v -0.3464663 -0.0309522 0.025
v -0.3464663 -0.0309522 0
v -0.3512472 -0.03739942 0.025
v -0.3512472 -0.03739942 0
v -0.3530856 -0.0424439 0.025
v -0.3530856 -0.0424439 0
vt 0.8735352 0.9609375
vt 0.1568604 0.2578125
vt 0.8706055 0.9677734
vt 0.1317139 0.2122803
vt 0.8754883 0.9492188
vt 0.1158447 0.1468506
vt 0.8740234 0.9287109
vt 0.1052856 0.07440186
vt 0.8637695 0.8564453
vt 0.1039429 0.05401611
vt 0.8476563 0.7910156
vt 0.1057129 0.04251099
vt 0.8227539 0.7456055
vt 0.1090088 0.03546143
vt 0.9736328 0.8701172
vt 0.9643555 0.8833008
vt 0.9755859 0.8720703
vt 0.9624023 0.8813477
vt 0.96875 0.8652344
vt 0.9575195 0.8764648
vt 0.9580078 0.8544922
vt 0.9467773 0.8657227
vt 0.9165039 0.8125
vt 0.9047852 0.8237305
vt 0.8754883 0.7719727
vt 0.8642578 0.7832031
vt 0.8398438 0.7363281
vt 0.8286133 0.7475586
vt 0.1222534 0.02238464
vt 0.1110229 0.03363037
vt 0.9755859 0.8720703
vt 0.9643555 0.8833008
vt 0.2467041 0.1693115
vt 0.2578125 0.157959
vt 0.2111816 0.1337891
vt 0.2224121 0.1225586
vt 0.1704102 0.09301758
vt 0.1816406 0.08172607
vt 0.1286621 0.05133057
vt 0.1398926 0.04006958
vt 0.1177979 0.04040527
vt 0.1290283 0.02915955
vt 0.112915 0.03552246
vt 0.1241455 0.02426147
vt 0.1110229 0.03363037
vt 0.1222534 0.02238464
vn 0 0 1
vn 0 0 1
vn 0 0 1
vn 0 0 1
vn 0 0 1
vn 0 0 1
vn 0 0 1
vn 0 0 1
vn 0 0 1
vn 0 0 1
vn 0 0 1
vn 0 0 1
vn 0 0 1
vn 0 0 1
vn 0.8803711 -0.473877 0
vn 0.9394531 -0.3425293 0
vn 0.9394531 -0.3425293 0
vn 0.8803711 -0.473877 0
vn 0.7333984 -0.6796875 0
vn 0.7333984 -0.6796875 0
vn 0.625 -0.7807617 0
vn 0.625 -0.7807617 0
vn 0.5561523 -0.8310547 0
vn 0.5561523 -0.8310547 0
vn 0.3994141 -0.9169922 0
vn 0.3994141 -0.9169922 0
vn 0.1385498 -0.9902344 0
vn 0.1385498 -0.9902344 0
vn 8.660555E-05 -1 0
vn 8.660555E-05 -1 0
vn -8.666515E-05 1 0
vn -8.666515E-05 1 0
vn -0.1385498 0.9902344 0
vn -0.1385498 0.9902344 0
vn -0.3994141 0.9169922 0
vn -0.3994141 0.9169922 0
vn -0.5561523 0.8310547 0
vn -0.5561523 0.8310547 0
vn -0.625 0.7807617 0
vn -0.625 0.7807617 0
vn -0.7333984 0.6796875 0
vn -0.7333984 0.6796875 0
vn -0.8803711 0.473877 0
vn -0.8803711 0.473877 0
vn -0.9394531 0.3422852 0
vn -0.9394531 0.3422852 0
g TeraTrim_0
f 3/3/3 2/2/2 1/1/1
f 2/2/2 4/4/4 1/1/1
f 4/4/4 5/5/5 1/1/1
f 6/6/6 5/5/5 4/4/4
f 7/7/7 5/5/5 6/6/6
f 8/8/8 7/7/7 6/6/6
f 9/9/9 7/7/7 8/8/8
f 10/10/10 9/9/9 8/8/8
f 11/11/11 9/9/9 10/10/10
f 12/12/12 11/11/11 10/10/10
f 13/13/13 11/11/11 12/12/12
f 14/14/14 13/13/13 12/12/12
f 17/17/17 16/16/16 15/15/15
f 16/16/16 18/18/18 15/15/15
f 15/15/15 18/18/18 19/19/19
f 18/18/18 20/20/20 19/19/19
f 19/19/19 20/20/20 21/21/21
f 20/20/20 22/22/22 21/21/21
f 21/21/21 22/22/22 23/23/23
f 22/22/22 24/24/24 23/23/23
f 23/23/23 24/24/24 25/25/25
f 24/24/24 26/26/26 25/25/25
f 25/25/25 26/26/26 27/27/27
f 26/26/26 28/28/28 27/27/27
f 27/27/27 28/28/28 29/29/29
f 28/28/28 30/30/30 29/29/29
f 33/33/33 32/32/32 31/31/31
f 34/34/34 33/33/33 31/31/31
f 35/35/35 33/33/33 34/34/34
f 36/36/36 35/35/35 34/34/34
f 37/37/37 35/35/35 36/36/36
f 38/38/38 37/37/37 36/36/36
f 39/39/39 37/37/37 38/38/38
f 40/40/40 39/39/39 38/38/38
f 41/41/41 39/39/39 40/40/40
f 42/42/42 41/41/41 40/40/40
f 43/43/43 41/41/41 42/42/42
f 44/44/44 43/43/43 42/42/42
f 45/45/45 43/43/43 44/44/44
f 46/46/46 45/45/45 44/44/44
