g V
v -1.833002 2.458124 0.06100003
v -1.347763 2.45953 0.06100003
v -1.681101 1.999607 0.06100003
v -1.616403 2.576269 0.06100003
v -1.882152 2.6213 0.06100003
v -1.588273 2.626903 0.06100003
v -1.623435 2.648 0.06100003
v -1.283064 2.542513 0.06100003
v -1.617809 2.719731 0.06100003
v -1.568106 2.674312 0.06100003
v -1.913468 2.725268 0.06100003
v -1.596734 2.813924 0.06100003
v -1.938489 2.80834 0.06100003
v -1.233837 2.590334 0.06100003
v -1.536515 2.74858 0.06100003
v -1.18461 2.631122 0.06100003
v -1.508103 2.815372 0.06100003
v -1.02427 2.726763 0.06100003
v -0.8611168 2.813966 0.06100003
v -0.8583038 2.804121 0.06100003
vt 0.2678223 0.5092773
vt 0.5712891 0.5102539
vt 0.362793 0.2227783
vt 0.4030762 0.5830078
vt 0.2370605 0.6113281
vt 0.4206543 0.6147461
vt 0.3986816 0.6279297
vt 0.6113281 0.5620117
vt 0.4023438 0.6728516
vt 0.4333496 0.6445313
vt 0.2175293 0.6762695
vt 0.4155273 0.7319336
vt 0.2019043 0.7285156
vt 0.6420898 0.5917969
vt 0.453125 0.690918
vt 0.6728516 0.6176758
vt 0.4709473 0.7329102
vt 0.7734375 0.6772461
vt 0.875 0.7319336
vt 0.8769531 0.7255859
vn 0 0 1
vn 0 0 1
vn 0 0 1
vn 0 0 1
vn 0 0 1
vn 0 0 1
vn 0 0 1
vn 0 0 1
vn 0 0 1
vn 0 0 1
vn 0 0 1
vn 0 0 1
vn 0 0 1
vn 0 0 1
vn 0 0 1
vn 0 0 1
vn 0 0 1
vn 0 0 1
vn 0 0 1
vn 0 0 1
g V_0
f 3/3/3 2/2/2 1/1/1
f 1/1/1 2/2/2 4/4/4
f 1/1/1 4/4/4 5/5/5
f 4/4/4 2/2/2 6/6/6
f 4/4/4 7/7/7 5/5/5
f 6/6/6 2/2/2 8/8/8
f 5/5/5 7/7/7 9/9/9
f 8/8/8 10/10/10 6/6/6
f 11/11/11 5/5/5 9/9/9
f 11/11/11 9/9/9 12/12/12
f 12/12/12 13/13/13 11/11/11
f 10/10/10 8/8/8 14/14/14
f 15/15/15 10/10/10 14/14/14
f 15/15/15 14/14/14 16/16/16
f 17/17/17 15/15/15 16/16/16
f 17/17/17 16/16/16 18/18/18
f 17/17/17 18/18/18 19/19/19
f 20/20/20 19/19/19 18/18/18
