g CardHighlightRing_Wide
v 3.1986 4.217295 1.341105E-07
v 3.672805 -4.408467 -6.705523E-08
v 3.1986 -4.218103 -1.117587E-07
v 3.672805 4.420183 2.011657E-07
v 4.395338 -4.698521 7.450581E-09
v 3.189308 4.301068 1.341105E-07
v 4.395338 4.72932 2.905726E-07
v 3.644243 4.537319 1.788139E-07
v 3.16143 4.366225 1.341105E-07
v 4.337413 4.897287 2.458692E-07
v 3.56985 4.657639 1.490116E-07
v 3.114967 4.412767 1.41561E-07
v 4.192148 5.101657 1.713634E-07
v 3.457187 4.765197 1.490116E-07
v 3.978618 5.302183 1.564622E-07
v 3.04992 4.440692 1.41561E-07
v 3.326853 4.840519 1.490116E-07
v 3.748809 5.449724 1.564622E-07
v 3.187705 4.871938 1.490116E-07
v 2.966287 4.45 1.41561E-07
v 3.525072 5.514832 1.564622E-07
v -2.966287 4.45 1.41561E-07
v -3.200767 4.871938 1.490116E-07
v -3.558038 5.514832 1.564622E-07
v -3.04992 4.440692 1.41561E-07
v -3.326854 4.840519 1.639128E-07
v -3.74881 5.449724 2.011657E-07
v -3.114967 4.412767 1.41561E-07
v -3.457182 4.765199 1.937151E-07
v -3.978604 5.302189 2.682209E-07
v -3.16143 4.366225 1.192093E-07
v -3.56985 4.65764 1.564622E-07
v -4.192147 5.101658 2.235174E-07
v -3.189308 4.301068 1.192093E-07
v -3.644242 4.537322 1.192093E-07
v -4.337412 4.897294 1.266599E-07
v -3.1986 4.217295 1.192093E-07
v -3.672805 4.407979 6.705523E-08
v -4.395338 4.69852 -7.450581E-09
v -3.1986 -4.217295 -1.341105E-07
v -3.672805 -4.420185 -2.011657E-07
v -4.395338 -4.729323 -2.905726E-07
v -3.189308 -4.301068 -1.341105E-07
v -3.644242 -4.537322 -1.788139E-07
v -4.337412 -4.897296 -2.458692E-07
v -3.16143 -4.366226 -1.341105E-07
v -3.569849 -4.657642 -1.490116E-07
v -4.192144 -5.101665 -1.713634E-07
v -3.114967 -4.412767 -1.41561E-07
v -3.457183 -4.765199 -1.490116E-07
v -3.978608 -5.302188 -1.564622E-07
v -3.04992 -4.440692 -1.41561E-07
v -3.326853 -4.840519 -1.490116E-07
v -3.748809 -5.449724 -1.564622E-07
v -2.966287 -4.45 -1.41561E-07
v -3.187705 -4.871938 -1.490116E-07
v -3.525072 -5.514832 -1.564622E-07
v 2.966287 -4.45 -1.41561E-07
v 3.200767 -4.871938 -1.490116E-07
v 3.558038 -5.514832 -1.564622E-07
v 3.04992 -4.440692 -1.41561E-07
v 3.326853 -4.840519 -1.639128E-07
v 3.748808 -5.449724 -2.011657E-07
v 3.114967 -4.412767 -1.41561E-07
v 3.457183 -4.765199 -1.937151E-07
v 3.978608 -5.302188 -2.682209E-07
v 3.16143 -4.366226 -1.192093E-07
v 3.569849 -4.657642 -1.564622E-07
v 4.192145 -5.101665 -2.235174E-07
v 3.189308 -4.301068 -1.192093E-07
v 3.644242 -4.537322 -1.192093E-07
v 3.1986 -4.218103 -1.117587E-07
v 4.337412 -4.897294 -1.266599E-07
v 3.672805 -4.408467 -6.705523E-08
v 4.395338 -4.698521 7.450581E-09
vt 0.7275391 1
vt 1 0.6010742
vt 1 0.9960938
vt 0.7275391 0.6054688
vt 1 5.960464E-08
vt 0.7226563 1
vt 0.7275391 0.004135132
vt 0.7226563 0.6054688
vt 0.7182617 1
vt 0.7226563 0.004135132
vt 0.7182617 0.6054688
vt 0.7128906 1
vt 0.7182617 0.004135132
vt 0.7128906 0.6054688
vt 0.7128906 0.004135132
vt 0.7075195 1
vt 0.7075195 0.6054688
vt 0.7075195 0.004135132
vt 0.7016602 0.6054688
vt 0.7016602 1
vt 0.7016602 0.004135132
vt 0.5341797 1
vt 0.5341797 0.6054688
vt 0.5341797 0.004135132
vt 0.5302734 1
vt 0.5302734 0.6054688
vt 0.5302734 0.004135132
vt 0.5249023 1
vt 0.5249023 0.6054688
vt 0.5249023 0.004135132
vt 0.519043 1
vt 0.519043 0.6054688
vt 0.519043 0.004135132
vt 0.5136719 1
vt 0.5136719 0.6054688
vt 0.5136719 0.004135132
vt 0.5073242 1
vt 0.5073242 0.6054688
vt 0.5073242 0.004135132
vt 0.2185059 1
vt 0.2185059 0.6054688
vt 0.2185059 0.004135132
vt 0.2141113 1
vt 0.2141113 0.6054688
vt 0.2141113 0.004135132
vt 0.2088623 1
vt 0.2088623 0.6054688
vt 0.2088623 0.004135132
vt 0.2032471 1
vt 0.2032471 0.6054688
vt 0.2032471 0.004135132
vt 0.1976318 1
vt 0.1976318 0.6054688
vt 0.1976318 0.004135132
vt 0.1915283 1
vt 0.1915283 0.6054688
vt 0.1915283 0.004135132
vt 0.03387451 1
vt 0.03387451 0.6054688
vt 0.03387451 0.004135132
vt 0.02922058 1
vt 0.02922058 0.6054688
vt 0.02922058 0.004135132
vt 0.0239563 1
vt 0.0239563 0.6054688
vt 0.0239563 0.004135132
vt 0.01831055 1
vt 0.01831055 0.6054688
vt 0.01831055 0.004135132
vt 0.01274109 1
vt 0.01274109 0.6054688
vt 0 0.9960938
vt 0.01274109 0.004135132
vt 0 0.6010742
vt 0 5.960464E-08
vn 0 0 1
vn 0 0 1
vn 0 0 1
vn 0 0 1
vn 0 0 1
vn 0 0 1
vn 0 0 1
vn 0 0 1
vn 0 0 1
vn 0 0 1
vn 0 0 1
vn 0 0 1
vn 0 0 1
vn 0 0 1
vn 0 0 1
vn 0 0 1
vn 0 0 1
vn 0 0 1
vn 0 0 1
vn 0 0 1
vn 0 0 1
vn 0 0 1
vn 0 0 1
vn 0 0 1
vn 0 0 1
vn 0 0 1
vn 0 0 1
vn 0 0 1
vn 0 0 1
vn 0 0 1
vn 0 0 1
vn 0 0 1
vn 0 0 1
vn 0 0 1
vn 0 0 1
vn 0 0 1
vn 0 0 1
vn 0 0 1
vn 0 0 1
vn 0 0 1
vn 0 0 1
vn 0 0 1
vn 0 0 1
vn 0 0 1
vn 0 0 1
vn 0 0 1
vn 0 0 1
vn 0 0 1
vn 0 0 1
vn 0 0 1
vn 0 0 1
vn 0 0 1
vn 0 0 1
vn 0 0 1
vn 0 0 1
vn 0 0 1
vn 0 0 1
vn 0 0 1
vn 0 0 1
vn 0 0 1
vn 0 0 1
vn 0 0 1
vn 0 0 1
vn 0 0 1
vn 0 0 1
vn 0 0 1
vn 0 0 1
vn 0 0 1
vn 0 0 1
vn 0 0 1
vn 0 0 1
vn 0 0 1
vn 0 0 1
vn 0 0 1
vn 0 0 1
g CardHighlightRing_Wide_0
f 3/3/3 2/2/2 1/1/1
f 2/2/2 4/4/4 1/1/1
f 2/2/2 5/5/5 4/4/4
f 1/1/1 4/4/4 6/6/6
f 5/5/5 7/7/7 4/4/4
f 4/4/4 8/8/8 6/6/6
f 4/4/4 7/7/7 8/8/8
f 6/6/6 8/8/8 9/9/9
f 7/7/7 10/10/10 8/8/8
f 8/8/8 11/11/11 9/9/9
f 8/8/8 10/10/10 11/11/11
f 9/9/9 11/11/11 12/12/12
f 10/10/10 13/13/13 11/11/11
f 11/11/11 14/14/14 12/12/12
f 11/11/11 13/13/13 14/14/14
f 13/13/13 15/15/15 14/14/14
f 12/12/12 14/14/14 16/16/16
f 14/14/14 15/15/15 17/17/17
f 14/14/14 17/17/17 16/16/16
f 15/15/15 18/18/18 17/17/17
f 17/17/17 19/19/19 16/16/16
f 17/17/17 18/18/18 19/19/19
f 19/19/19 20/20/20 16/16/16
f 18/18/18 21/21/21 19/19/19
f 20/20/20 19/19/19 22/22/22
f 19/19/19 21/21/21 23/23/23
f 19/19/19 23/23/23 22/22/22
f 21/21/21 24/24/24 23/23/23
f 22/22/22 23/23/23 25/25/25
f 23/23/23 24/24/24 26/26/26
f 23/23/23 26/26/26 25/25/25
f 24/24/24 27/27/27 26/26/26
f 25/25/25 26/26/26 28/28/28
f 26/26/26 27/27/27 29/29/29
f 26/26/26 29/29/29 28/28/28
f 27/27/27 30/30/30 29/29/29
f 28/28/28 29/29/29 31/31/31
f 29/29/29 30/30/30 32/32/32
f 29/29/29 32/32/32 31/31/31
f 30/30/30 33/33/33 32/32/32
f 31/31/31 32/32/32 34/34/34
f 32/32/32 33/33/33 35/35/35
f 32/32/32 35/35/35 34/34/34
f 33/33/33 36/36/36 35/35/35
f 34/34/34 35/35/35 37/37/37
f 35/35/35 36/36/36 38/38/38
f 35/35/35 38/38/38 37/37/37
f 36/36/36 39/39/39 38/38/38
f 37/37/37 38/38/38 40/40/40
f 38/38/38 39/39/39 41/41/41
f 38/38/38 41/41/41 40/40/40
f 39/39/39 42/42/42 41/41/41
f 40/40/40 41/41/41 43/43/43
f 41/41/41 42/42/42 44/44/44
f 41/41/41 44/44/44 43/43/43
f 42/42/42 45/45/45 44/44/44
f 43/43/43 44/44/44 46/46/46
f 44/44/44 45/45/45 47/47/47
f 44/44/44 47/47/47 46/46/46
f 45/45/45 48/48/48 47/47/47
f 46/46/46 47/47/47 49/49/49
f 47/47/47 48/48/48 50/50/50
f 47/47/47 50/50/50 49/49/49
f 48/48/48 51/51/51 50/50/50
f 49/49/49 50/50/50 52/52/52
f 50/50/50 51/51/51 53/53/53
f 50/50/50 53/53/53 52/52/52
f 51/51/51 54/54/54 53/53/53
f 52/52/52 53/53/53 55/55/55
f 53/53/53 54/54/54 56/56/56
f 53/53/53 56/56/56 55/55/55
f 54/54/54 57/57/57 56/56/56
f 55/55/55 56/56/56 58/58/58
f 56/56/56 57/57/57 59/59/59
f 56/56/56 59/59/59 58/58/58
f 57/57/57 60/60/60 59/59/59
f 58/58/58 59/59/59 61/61/61
f 59/59/59 60/60/60 62/62/62
f 59/59/59 62/62/62 61/61/61
f 60/60/60 63/63/63 62/62/62
f 61/61/61 62/62/62 64/64/64
f 62/62/62 63/63/63 65/65/65
f 62/62/62 65/65/65 64/64/64
f 63/63/63 66/66/66 65/65/65
f 64/64/64 65/65/65 67/67/67
f 65/65/65 66/66/66 68/68/68
f 65/65/65 68/68/68 67/67/67
f 66/66/66 69/69/69 68/68/68
f 67/67/67 68/68/68 70/70/70
f 68/68/68 69/69/69 71/71/71
f 68/68/68 71/71/71 70/70/70
f 70/70/70 71/71/71 72/72/72
f 69/69/69 73/73/73 71/71/71
f 71/71/71 74/74/74 72/72/72
f 71/71/71 73/73/73 74/74/74
f 73/73/73 75/75/75 74/74/74
