g Helix004
v -21.78267 -54.57622 29.76294
v 35.36812 57.5253 -25.42395
v 56.80804 52.24286 -13.95245
v -15.03697 -56.23868 33.37256
v 82.80861 36.34811 1.389084
v -15.18999 -56.17343 33.21896
v -15.18999 -56.17343 33.21896
v 82.80861 36.34811 1.389084
v 103.6936 12.87444 16.36163
v -14.92206 -56.49622 33.35233
v 117.6989 -16.27089 30.76019
v -14.25165 -57.90634 33.98752
v 123.8164 -48.96404 44.49411
v -13.67535 -60.98642 35.22729
v 121.6596 -83.12737 57.55649
v -13.98775 -65.99286 37.09418
v 111.3061 -116.8501 69.9877
v -16.0677 -72.79054 39.55814
v 93.16623 -148.4195 81.85129
v -20.71324 -80.89265 42.56546
v 67.90247 -176.3188 93.21655
v -28.53009 -89.53931 46.0538
v 36.38846 -199.2179 104.1487
v -39.87283 -97.79387 49.96368
v -0.3248444 -215.9782 114.7079
v -54.81537 -104.6268 54.23907
v -41.026 -225.6584 124.9454
v -73.15268 -108.9992 58.8309
v -84.36838 -227.5328 134.9051
v -94.41473 -109.9294 63.69818
v -128.8968 -221.1065 144.6235
v -117.8896 -106.552 68.80508
v -173.0776 -206.1362 154.1323
v -142.6613 -98.1692 74.12045
v -215.3384 -182.6418 163.4574
v -167.6508 -84.28802 79.62064
v -254.1109 -150.9164 172.6215
v -191.6621 -64.6532 85.28189
v -287.8729 -111.5266 181.6434
v -213.4352 -39.26587 91.08691
v -315.197 -65.30859 190.539
v -231.6974 -8.393402 97.01959
v -334.7966 -13.35075 199.3224
v -245.2195 27.42949 103.066
v -345.5694 43.02682 208.0049
v -252.8677 67.41 109.2152
v -346.6382 102.3015 216.5973
v -253.6536 110.522 115.4568
v -337.3899 162.7887 225.1076
v -246.7803 155.5285 121.7816
v -317.5004 222.6887 233.5447
v -231.6824 201.0225 128.1819
v -286.9606 280.1306 241.9142
v -208.0586 245.4718 134.6516
v -246.0856 333.2323 250.2224
v -175.8984 287.2637 141.1837
v -197.8921 377.9606 258.0861
v -132.8598 327.2073 148.2065
vt 0 0.759276
vt 0.9962844 0.759276
vt 0.9962844 0.7708219
vt 0 0.7708219
vt 0.9962844 0.782703
vt 0 0.782703
vt 0 0.782703
vt 0.9962844 0.782703
vt 0.9962844 0.7951319
vt 0 0.7951319
vt 0.9962844 0.8082649
vt 0 0.8082649
vt 0.9962844 0.8222584
vt 0 0.8222584
vt 0.9962844 0.8372356
vt 0 0.8372356
vt 0.9962844 0.8532858
vt 0 0.8532858
vt 0.9962844 0.8705096
vt 0 0.8705096
vt 0.9962844 0.8889628
vt 0 0.8889628
vt 0.9962844 0.9087014
vt 0 0.9087014
vt 0.9962844 0.92977
vt 0 0.92977
vt 0.9962844 0.9522023
vt 0 0.9522023
vt 0.9962844 0.9760205
vt 0 0.9760205
vt 0.9962844 1.001258
vt 0 1.001258
vt 0.9962844 1.027949
vt 0 1.027949
vt 0.9962844 1.056081
vt 0 1.056081
vt 0.9962844 1.0857
vt 0 1.0857
vt 0.9962844 1.116795
vt 0 1.116795
vt 0.9962844 1.149387
vt 0 1.149387
vt 0.9962844 1.183488
vt 0 1.183488
vt 0.9962844 1.219109
vt 0 1.219109
vt 0.9962844 1.256239
vt 0 1.256239
vt 0.9962844 1.294912
vt 0 1.294912
vt 0.9962844 1.335115
vt 0 1.335115
vt 0.9962844 1.376861
vt 0 1.376861
vt 0.9962844 1.42015
vt 0 1.42015
vt 0.9962844 1.464981
vt 0 1.464981
vn -0.2903685 0.5378323 0.7914686
vn -0.2903685 0.5378323 0.7914686
vn -0.2418706 0.5179357 0.8205128
vn -0.2456012 0.5191793 0.8186164
vn -0.1933727 0.4967956 0.8460503
vn -0.1933727 0.4967956 0.8460503
vn -0.1324394 0.444567 0.8859007
vn -0.1324394 0.444567 0.8859007
vn -0.1175169 0.4221833 0.898861
vn -0.1175169 0.4221833 0.898861
vn -0.0988639 0.3836338 0.9181781
vn -0.0988639 0.3836338 0.9181781
vn -0.09388977 0.3649808 0.9262688
vn -0.09388977 0.3649808 0.9262688
vn -0.09388977 0.3637372 0.9267578
vn -0.09388977 0.3637372 0.9267578
vn -0.08891559 0.3799031 0.920743
vn -0.08891559 0.3799031 0.920743
vn -0.07274961 0.407261 0.9104098
vn -0.07274961 0.407261 0.9104098
vn -0.04290473 0.4395929 0.8971718
vn -0.04290473 0.4395929 0.8971718
vn 0.001862586 0.4719248 0.8816368
vn 0.001862586 0.4719248 0.8816368
vn 0.06030875 0.4992827 0.8643377
vn 0.06030875 0.4992827 0.8643377
vn 0.1311904 0.5154486 0.8468186
vn 0.1311904 0.5154486 0.8468186
vn 0.2107767 0.5191793 0.8282669
vn 0.2107767 0.5191793 0.8282669
vn 0.2965807 0.5067438 0.8094755
vn 0.2965807 0.5067438 0.8094755
vn 0.3836283 0.4781426 0.790069
vn 0.3836283 0.4781426 0.790069
vn 0.4681888 0.4308881 0.7714497
vn 0.4681888 0.4308881 0.7714497
vn 0.5465316 0.3662242 0.7531156
vn 0.5465316 0.3662242 0.7531156
vn 0.614926 0.286638 0.734646
vn 0.614926 0.286638 0.734646
vn 0.6708852 0.1933727 0.7159051
vn 0.6708852 0.1933727 0.7159051
vn 0.7106783 0.08767205 0.6980329
vn 0.7106783 0.08767205 0.6980329
vn 0.7318185 -0.02548975 0.6810228
vn 0.7318185 -0.02548975 0.6810228
vn 0.7343056 -0.1436257 0.6634508
vn 0.7343056 -0.1436257 0.6634508
vn 0.7156525 -0.2630052 0.6470469
vn 0.7156525 -0.2630052 0.6470469
vn 0.6771029 -0.3798977 0.6302456
vn 0.6771029 -0.3798977 0.6302456
vn 0.6186566 -0.4905724 0.6136796
vn 0.6186566 -0.4905724 0.6136796
vn 0.5403138 -0.5925424 0.5974567
vn 0.5403138 -0.5925424 0.5974567
vn 0.4967901 -0.6385533 0.5877494
vn 0.4967901 -0.6385533 0.5877494
g Helix004_0
f 3/3/3 2/2/2 1/1/1
f 4/4/4 3/3/3 1/1/1
f 5/5/5 3/3/3 4/4/4
f 6/6/6 5/5/5 4/4/4
f 9/9/9 8/8/8 7/7/7
f 10/10/10 9/9/9 7/7/7
f 11/11/11 9/9/9 10/10/10
f 12/12/12 11/11/11 10/10/10
f 13/13/13 11/11/11 12/12/12
f 14/14/14 13/13/13 12/12/12
f 15/15/15 13/13/13 14/14/14
f 16/16/16 15/15/15 14/14/14
f 17/17/17 15/15/15 16/16/16
f 18/18/18 17/17/17 16/16/16
f 19/19/19 17/17/17 18/18/18
f 20/20/20 19/19/19 18/18/18
f 21/21/21 19/19/19 20/20/20
f 22/22/22 21/21/21 20/20/20
f 23/23/23 21/21/21 22/22/22
f 24/24/24 23/23/23 22/22/22
f 25/25/25 23/23/23 24/24/24
f 26/26/26 25/25/25 24/24/24
f 27/27/27 25/25/25 26/26/26
f 28/28/28 27/27/27 26/26/26
f 29/29/29 27/27/27 28/28/28
f 30/30/30 29/29/29 28/28/28
f 31/31/31 29/29/29 30/30/30
f 32/32/32 31/31/31 30/30/30
f 33/33/33 31/31/31 32/32/32
f 34/34/34 33/33/33 32/32/32
f 35/35/35 33/33/33 34/34/34
f 36/36/36 35/35/35 34/34/34
f 37/37/37 35/35/35 36/36/36
f 38/38/38 37/37/37 36/36/36
f 39/39/39 37/37/37 38/38/38
f 40/40/40 39/39/39 38/38/38
f 41/41/41 39/39/39 40/40/40
f 42/42/42 41/41/41 40/40/40
f 43/43/43 41/41/41 42/42/42
f 44/44/44 43/43/43 42/42/42
f 45/45/45 43/43/43 44/44/44
f 46/46/46 45/45/45 44/44/44
f 47/47/47 45/45/45 46/46/46
f 48/48/48 47/47/47 46/46/46
f 49/49/49 47/47/47 48/48/48
f 50/50/50 49/49/49 48/48/48
f 51/51/51 49/49/49 50/50/50
f 52/52/52 51/51/51 50/50/50
f 53/53/53 51/51/51 52/52/52
f 54/54/54 53/53/53 52/52/52
f 55/55/55 53/53/53 54/54/54
f 56/56/56 55/55/55 54/54/54
f 57/57/57 55/55/55 56/56/56
f 58/58/58 57/57/57 56/56/56
