g Helix003
v 85.9924 -24.81104 -44.78259
v -72.29898 19.5336 44.76974
v -63.06967 16.89008 62.39017
v 95.35547 -27.49246 -26.90527
v -55.44925 11.81964 78.48697
v 104.4084 -33.38565 -7.845276
v -50.11478 5.420929 92.293
v 112.7131 -43.17136 13.54688
v -46.97403 -1.566162 104.1185
v 118.9851 -56.86615 36.98947
v -45.79141 -8.628998 114.3564
v 121.9495 -74.01657 62.10721
v -46.31345 -15.48468 123.4366
v 120.5146 -93.73004 88.48453
v -48.36978 -22.00412 131.7815
v 113.917 -114.7836 115.7024
v -51.91306 -28.13174 139.7808
v 101.7921 -135.7591 143.3702
v -57.01785 -33.78226 147.7741
v 84.20242 -155.1967 171.1457
v -63.82968 -38.77811 156.0338
v 61.60507 -171.7197 198.7448
v -72.50137 -42.81384 164.7742
v 34.77905 -184.1383 225.9437
v -83.12527 -45.4491 174.1491
v 4.753082 -191.516 252.5791
v -95.66934 -46.13809 184.2639
v -27.28662 -193.203 278.5327
v -109.9323 -44.27472 195.1802
v -60.07571 -188.8464 303.7321
v -125.519 -39.25281 206.9264
v -92.34744 -178.3765 328.1407
v -141.8477 -30.52786 219.506
v -122.8766 -161.9837 351.7431
v -158.1518 -17.67123 232.9048
v -150.5372 -140.0872 374.5512
v -173.5216 -0.4308472 247.0885
v -174.335 -113.2991 396.5862
v -186.95 21.24188 262.018
v -193.4221 -82.384 417.8848
v -197.3846 47.15402 277.6472
v -207.1158 -48.22995 438.4862
v -203.788 76.8757 293.9286
v -214.909 -11.81473 458.4364
v -205.1932 109.7276 310.8092
v -216.4706 25.83051 477.7829
v -200.7561 144.8109 328.2401
v -211.6428 63.63791 496.5717
v -189.815 181.0237 346.1731
v -200.4471 100.548 514.8516
v -171.9235 217.1122 364.5583
v -183.0694 135.5118 532.6674
v -146.8874 251.7126 383.3543
v -159.8589 167.5255 550.0616
v -114.7849 283.4007 402.5172
v -131.3163 195.6513 567.0747
v -75.98312 310.75 422.007
v -98.08084 219.0371 583.7468
v -31.12823 332.3919 441.7891
v -60.92691 236.9298 600.1135
v 18.85626 347.0669 461.8269
v -20.73404 248.7008 616.2092
v 72.79956 353.6823 482.0921
v 21.51401 253.8565 632.0634
v 129.3142 351.3584 502.5549
v 64.76004 252.0535 647.7056
v 186.8315 339.463 523.1882
v 107.89 243.1119 663.1619
v 243.661 317.6577 543.9684
v 149.7569 227.0234 678.4572
v 298.0341 285.9034 564.8763
v 189.2051 203.9644 693.6105
v 348.163 244.4899 585.8884
v 225.103 174.2841 708.6454
v 392.2981 194.0318 606.9894
v 256.3685 138.5164 723.5796
v 428.7997 135.4526 628.1614
v 281.9858 97.37411 738.4287
v 456.1763 69.98099 649.3901
v 301.0565 51.73196 753.2079
v 471.7877 4.755615 668.9568
v 314.1096 -2.803284 769.5675
vt 0.005134657 0.3708
vt 1.001419 0.3708
vt 1.001419 0.3803817
vt 0.005134657 0.3803817
vt 1.001419 0.3900636
vt 0.005134657 0.3900636
vt 1.001419 0.3998791
vt 0.005134657 0.3998791
vt 1.001419 0.4098785
vt 0.005134657 0.4098785
vt 1.001419 0.4201284
vt 0.005134657 0.4201284
vt 1.001419 0.4306457
vt 0.005134657 0.4306457
vt 1.001419 0.4414804
vt 0.005134657 0.4414804
vt 1.001419 0.4526744
vt 0.005134657 0.4526744
vt 1.001419 0.4642525
vt 0.005134657 0.4642525
vt 1.001419 0.4762484
vt 0.005134657 0.4762484
vt 1.001419 0.4886787
vt 0.005134657 0.4886787
vt 1.001419 0.5015768
vt 0.005134657 0.5015768
vt 1.001419 0.5149593
vt 0.005134657 0.5149593
vt 1.001419 0.5288515
vt 0.005134657 0.5288515
vt 1.001419 0.5432699
vt 0.005134657 0.5432699
vt 1.001419 0.558223
vt 0.005134657 0.558223
vt 1.001419 0.5737191
vt 0.005134657 0.5737191
vt 1.001419 0.5897832
vt 0.005134657 0.5897832
vt 1.001419 0.6064237
vt 0.005134657 0.6064237
vt 1.001419 0.623649
vt 0.005134657 0.623649
vt 1.001419 0.6414674
vt 0.005134657 0.6414674
vt 1.001419 0.6598873
vt 0.005134657 0.6598873
vt 1.001419 0.6789085
vt 0.005134657 0.6789085
vt 1.001419 0.698548
vt 0.005134657 0.698548
vt 1.001419 0.7188057
vt 0.005134657 0.7188057
vt 1.001419 0.7396982
vt 0.005134657 0.7396982
vt 1.001419 0.761209
vt 0.005134657 0.761209
vt 1.001419 0.7833629
vt 0.005134657 0.7833629
vt 1.001419 0.8061684
vt 0.005134657 0.8061684
vt 1.001419 0.8296088
vt 0.005134657 0.8296088
vt 1.001419 0.8536925
vt 0.005134657 0.8536925
vt 1.001419 0.8784193
vt 0.005134657 0.8784193
vt 1.001419 0.9038145
vt 0.005134657 0.9038145
vt 1.001419 0.9298612
vt 0.005134657 0.9298612
vt 1.001419 0.9565679
vt 0.005134657 0.9565679
vt 1.001419 0.9839346
vt 0.005134657 0.9839346
vt 1.001419 1.011961
vt 0.005134657 1.011961
vt 1.001419 1.040664
vt 0.005134657 1.040664
vt 1.001419 1.070028
vt 0.005134657 1.070028
vt 1.001419 1.100059
vt 0.005134657 1.100059
vn -0.2713351 -0.962485 0
vn -0.2713351 -0.962485 0
vn -0.3039086 -0.9510012 -0.05688896
vn -0.3039086 -0.9510012 -0.05688896
vn -0.3633013 -0.9107674 -0.196252
vn -0.3633013 -0.9107674 -0.196252
vn -0.4073668 -0.8571224 -0.3152673
vn -0.4073668 -0.8571224 -0.3152673
vn -0.4361051 -0.7958139 -0.4201103
vn -0.4361051 -0.7958139 -0.4201103
vn -0.4456847 -0.7345053 -0.5117295
vn -0.4456847 -0.7345053 -0.5117295
vn -0.4418528 -0.6808603 -0.5841193
vn -0.4418528 -0.6808603 -0.5841193
vn -0.4284416 -0.6406265 -0.637209
vn -0.4284416 -0.6406265 -0.637209
vn -0.4150304 -0.613804 -0.6715611
vn -0.4150304 -0.613804 -0.6715611
vn -0.4054509 -0.6023087 -0.6876291
vn -0.4054509 -0.6023087 -0.6876291
vn -0.4054509 -0.6042246 -0.6859462
vn -0.4054509 -0.6042246 -0.6859462
vn -0.420778 -0.6099722 -0.6714758
vn -0.420778 -0.6099722 -0.6714758
vn -0.4533482 -0.6176358 -0.6426519
vn -0.4533482 -0.6176358 -0.6426519
vn -0.5012455 -0.6195517 -0.6040767
vn -0.5012455 -0.6195517 -0.6040767
vn -0.5625541 -0.6118882 -0.5559908
vn -0.5625541 -0.6118882 -0.5559908
vn -0.6334422 -0.5888975 -0.501947
vn -0.6334422 -0.5888975 -0.501947
vn -0.7119937 -0.5467478 -0.440604
vn -0.7119937 -0.5467478 -0.440604
vn -0.7886294 -0.4854392 -0.3773757
vn -0.7886294 -0.4854392 -0.3773757
vn -0.8595175 -0.4049717 -0.3118135
vn -0.8595175 -0.4049717 -0.3118135
vn -0.9208261 -0.3072612 -0.2401455
vn -0.9208261 -0.3072612 -0.2401455
vn -0.9648916 -0.1942235 -0.1768092
vn -0.9648916 -0.1942235 -0.1768092
vn -0.9917141 -0.06969053 -0.1079182
vn -0.9917141 -0.06969053 -0.1079182
vn -0.9974618 0.06059015 -0.0374006
vn -0.9974618 0.06059015 -0.0374006
vn -0.9802188 0.1947027 0.03552466
vn -0.9802188 0.1947027 0.03552466
vn -0.9399849 0.3249834 0.1039913
vn -0.9399849 0.3249834 0.1039913
vn -0.8786764 0.4476005 0.166077
vn -0.8786764 0.4476005 0.166077
vn -0.798209 0.5606382 0.2203345
vn -0.798209 0.5606382 0.2203345
vn -0.7004983 0.6564329 0.2799964
vn -0.7004983 0.6564329 0.2799964
vn -0.5893766 0.7349844 0.3353105
vn -0.5893766 0.7349844 0.3353105
vn -0.4686754 0.7924613 0.3903185
vn -0.4686754 0.7924613 0.3903185
vn -0.3422264 0.8288631 0.4425686
vn -0.3422264 0.8288631 0.4425686
vn -0.2138616 0.8461062 0.488229
vn -0.2138616 0.8461062 0.488229
vn -0.08932865 0.8403585 0.5346195
vn -0.08932865 0.8403585 0.5346195
vn 0.02945673 0.815452 0.5780747
vn 0.02945673 0.815452 0.5780747
vn 0.1405785 0.7733023 0.6182566
vn 0.1405785 0.7733023 0.6182566
vn 0.2363732 0.7158256 0.6570552
vn 0.2363732 0.7158256 0.6570552
vn 0.3206725 0.6468533 0.6919176
vn 0.3206725 0.6468533 0.6919176
vn 0.3896446 0.5683018 0.7247139
vn 0.3896446 0.5683018 0.7247139
vn 0.4413737 0.4859184 0.754369
vn 0.4413737 0.4859184 0.754369
vn 0.4777757 0.3997033 0.7822837
vn 0.4777757 0.3997033 0.7822837
vn 0.4911869 0.3556377 0.795146
vn 0.4911869 0.3556377 0.795146
g Helix003_0
f 3/3/3 2/2/2 1/1/1
f 4/4/4 3/3/3 1/1/1
f 5/5/5 3/3/3 4/4/4
f 6/6/6 5/5/5 4/4/4
f 7/7/7 5/5/5 6/6/6
f 8/8/8 7/7/7 6/6/6
f 9/9/9 7/7/7 8/8/8
f 10/10/10 9/9/9 8/8/8
f 11/11/11 9/9/9 10/10/10
f 12/12/12 11/11/11 10/10/10
f 13/13/13 11/11/11 12/12/12
f 14/14/14 13/13/13 12/12/12
f 15/15/15 13/13/13 14/14/14
f 16/16/16 15/15/15 14/14/14
f 17/17/17 15/15/15 16/16/16
f 18/18/18 17/17/17 16/16/16
f 19/19/19 17/17/17 18/18/18
f 20/20/20 19/19/19 18/18/18
f 21/21/21 19/19/19 20/20/20
f 22/22/22 21/21/21 20/20/20
f 23/23/23 21/21/21 22/22/22
f 24/24/24 23/23/23 22/22/22
f 25/25/25 23/23/23 24/24/24
f 26/26/26 25/25/25 24/24/24
f 27/27/27 25/25/25 26/26/26
f 28/28/28 27/27/27 26/26/26
f 29/29/29 27/27/27 28/28/28
f 30/30/30 29/29/29 28/28/28
f 31/31/31 29/29/29 30/30/30
f 32/32/32 31/31/31 30/30/30
f 33/33/33 31/31/31 32/32/32
f 34/34/34 33/33/33 32/32/32
f 35/35/35 33/33/33 34/34/34
f 36/36/36 35/35/35 34/34/34
f 37/37/37 35/35/35 36/36/36
f 38/38/38 37/37/37 36/36/36
f 39/39/39 37/37/37 38/38/38
f 40/40/40 39/39/39 38/38/38
f 41/41/41 39/39/39 40/40/40
f 42/42/42 41/41/41 40/40/40
f 43/43/43 41/41/41 42/42/42
f 44/44/44 43/43/43 42/42/42
f 45/45/45 43/43/43 44/44/44
f 46/46/46 45/45/45 44/44/44
f 47/47/47 45/45/45 46/46/46
f 48/48/48 47/47/47 46/46/46
f 49/49/49 47/47/47 48/48/48
f 50/50/50 49/49/49 48/48/48
f 51/51/51 49/49/49 50/50/50
f 52/52/52 51/51/51 50/50/50
f 53/53/53 51/51/51 52/52/52
f 54/54/54 53/53/53 52/52/52
f 55/55/55 53/53/53 54/54/54
f 56/56/56 55/55/55 54/54/54
f 57/57/57 55/55/55 56/56/56
f 58/58/58 57/57/57 56/56/56
f 59/59/59 57/57/57 58/58/58
f 60/60/60 59/59/59 58/58/58
f 61/61/61 59/59/59 60/60/60
f 62/62/62 61/61/61 60/60/60
f 63/63/63 61/61/61 62/62/62
f 64/64/64 63/63/63 62/62/62
f 65/65/65 63/63/63 64/64/64
f 66/66/66 65/65/65 64/64/64
f 67/67/67 65/65/65 66/66/66
f 68/68/68 67/67/67 66/66/66
f 69/69/69 67/67/67 68/68/68
f 70/70/70 69/69/69 68/68/68
f 71/71/71 69/69/69 70/70/70
f 72/72/72 71/71/71 70/70/70
f 73/73/73 71/71/71 72/72/72
f 74/74/74 73/73/73 72/72/72
f 75/75/75 73/73/73 74/74/74
f 76/76/76 75/75/75 74/74/74
f 77/77/77 75/75/75 76/76/76
f 78/78/78 77/77/77 76/76/76
f 79/79/79 77/77/77 78/78/78
f 80/80/80 79/79/79 78/78/78
f 81/81/81 79/79/79 80/80/80
f 82/82/82 81/81/81 80/80/80
