g Helix001
v 1.556152 9.805695 34.561
v 109.0057 -5.37204 -32.13773
v 116.1292 -16.44485 -18.14157
v 6.868134 1.549103 44.99713
v 121.9359 -31.77307 -1.93866
v 9.884125 -6.49411 53.44412
v 124.815 -49.79083 14.85077
v 11.20514 -14.90543 61.23318
v 124.0321 -69.78925 32.0423
v 10.85406 -23.46121 68.54706
v 119.0593 -90.88251 49.47607
v 8.835175 -31.97708 75.54642
v 109.599 -112.0837 67.01868
v 5.128082 -40.26852 82.37067
v 95.59862 -132.3627 84.55957
v -0.3029175 -48.12729 89.1337
v 77.23657 -150.7103 102.0121
v -7.486755 -55.306 95.92734
v 54.90903 -166.1847 119.309
v -16.43103 -61.508 102.8255
v 29.19995 -177.9545 136.3993
v -27.09241 -66.3941 109.8835
v 0.8454895 -185.3313 153.2474
v -39.35703 -69.59201 117.1439
v -29.2966 -187.788 169.8286
v -53.0242 -70.71494 124.6363
v -60.28708 -184.9794 186.125
v -67.80157 -69.38632 132.382
v -91.14069 -176.7432 202.1307
v -83.29126 -65.2627 140.3937
v -120.8629 -163.1041 217.8431
v -99.0054 -58.06613 148.6767
v -148.4778 -144.2677 233.2623
v -114.3719 -47.60193 157.2333
v -173.063 -120.6124 248.3958
v -128.7531 -33.7843 166.062
v -193.7747 -92.67444 263.2488
v -141.4716 -16.65482 175.1576
v -209.8747 -61.12802 277.8324
v -151.8312 3.607941 184.5142
v -220.7469 -26.76794 292.1567
v -159.1494 26.68015 194.1215
v -225.9195 9.511566 306.2336
v -162.7902 52.09595 203.9719
v -225.072 46.74741 320.0733
v -162.19 79.25012 214.0536
v -218.0505 83.92798 333.6904
v -156.8891 107.4142 224.358
v -204.8696 120.0239 347.0949
v -146.5592 135.7558 234.8723
v -185.7127 154.015 360.2996
v -131.021 163.3631 245.5872
v -160.9328 184.912 373.3157
v -110.2644 189.2728 256.4909
v -131.0414 211.7924 386.1541
v -84.46094 212.5005 267.5748
v -96.69666 233.8191 398.8276
v -53.97031 232.0773 278.8253
v -58.69748 250.2625 411.3446
v -19.328 247.0876 290.2364
v -17.95261 260.5278 423.7163
v 18.74341 256.6974 301.7963
v 24.53143 264.1644 435.952
v 59.36841 260.1929 313.4956
v 67.67685 260.8891 448.061
v 101.5269 257.0103 325.3267
v 110.3615 250.5915 460.0519
v 144.0841 246.7603 337.281
v 151.4456 233.3405 471.9315
v 185.826 229.2517 349.351
v 189.8035 209.3919 483.7098
v 225.4871 204.5083 361.528
v 224.348 179.1792 495.3922
v 261.7938 172.7758 373.8062
v 254.0625 143.3137 506.9869
v 293.5034 134.5275 386.177
v 278.029 102.5705 518.4992
v 319.4454 90.45639 398.6363
v 295.4526 57.87207 529.9359
v 338.558 41.466 411.1763
v 306.0349 8.684479 541.6836
v 349.6631 -10.15359 423.5055
vt 0 0
vt 0.9962768 0
vt 0.9962768 0.01229877
vt 0 0.01229877
vt 0.9962768 0.02504005
vt 0 0.02504005
vt 0.9962768 0.03828489
vt 0 0.03828489
vt 0.9962768 0.05204852
vt 0 0.05204852
vt 0.9962768 0.06634623
vt 0 0.06634623
vt 0.9962768 0.08122377
vt 0 0.08122377
vt 0.9962768 0.09668116
vt 0 0.09668116
vt 0.9962768 0.1127489
vt 0 0.1127489
vt 0.9962768 0.1294423
vt 0 0.1294423
vt 0.9962768 0.1467613
vt 0 0.1467613
vt 0.9962768 0.1647517
vt 0 0.1647517
vt 0.9962768 0.1833982
vt 0 0.1833982
vt 0.9962768 0.2027161
vt 0 0.2027161
vt 0.9962768 0.2227054
vt 0 0.2227054
vt 0.9962768 0.2434119
vt 0 0.2434119
vt 0.9962768 0.2648051
vt 0 0.2648051
vt 0.9962768 0.2869001
vt 0 0.2869001
vt 0.9962768 0.3097124
vt 0 0.3097124
vt 0.9962768 0.333257
vt 0 0.333257
vt 0.9962768 0.3575036
vt 0 0.3575036
vt 0.9962768 0.3824979
vt 0 0.3824979
vt 0.9962768 0.4082094
vt 0 0.4082094
vt 0.9962768 0.4346685
vt 0 0.4346685
vt 0.9962768 0.4618753
vt 0 0.4618753
vt 0.9962768 0.4898146
vt 0 0.4898146
vt 0.9962768 0.5185016
vt 0 0.5185016
vt 0.9962768 0.5479515
vt 0 0.5479515
vt 0.9962768 0.5781491
vt 0 0.5781491
vt 0.9962768 0.6090944
vt 0 0.6090944
vt 0.9962768 0.6408026
vt 0 0.6408026
vt 0.9962768 0.6732738
vt 0 0.6732738
vt 0.9962768 0.706508
vt 0 0.706508
vt 0.9962768 0.7405051
vt 0 0.7405051
vt 0.9962768 0.7752651
vt 0 0.7752651
vt 0.9962768 0.8107882
vt 0 0.8107882
vt 0.9962768 0.8470894
vt 0 0.8470894
vt 0.9962768 0.8841535
vt 0 0.8841535
vt 0.9962768 0.9219959
vt 0 0.9219959
vt 0.9962768 0.9606165
vt 0 0.9606165
vt 0.9962768 1
vt 0 1
vn 0.3887969 0.8082608 0.442212
vn 0.3887969 0.8082608 0.442212
vn 0.4094036 0.7689209 0.4910697
vn 0.4094036 0.7689209 0.4910697
vn 0.4412501 0.6883677 0.5757154
vn 0.4412501 0.6883677 0.5757154
vn 0.4524901 0.6078146 0.6525444
vn 0.4524901 0.6078146 0.6525444
vn 0.4506168 0.5385014 0.7120118
vn 0.4506168 0.5385014 0.7120118
vn 0.4356301 0.4804281 0.7611933
vn 0.4356301 0.4804281 0.7611933
vn 0.4168969 0.4373416 0.7968246
vn 0.4168969 0.4373416 0.7968246
vn 0.3981636 0.4092416 0.8209672
vn 0.3981636 0.4092416 0.8209672
vn 0.3850502 0.3942549 0.8344455
vn 0.3850502 0.3942549 0.8344455
vn 0.3794302 0.3905083 0.8387706
vn 0.3794302 0.3905083 0.8387706
vn 0.3850502 0.3923817 0.835328
vn 0.3850502 0.3923817 0.835328
vn 0.4037836 0.3980016 0.8237436
vn 0.4037836 0.3980016 0.8237436
vn 0.4356301 0.3998749 0.8064282
vn 0.4356301 0.3998749 0.8064282
vn 0.4787167 0.3961283 0.7835258
vn 0.4787167 0.3961283 0.7835258
vn 0.5330433 0.3811417 0.755378
vn 0.5330433 0.3811417 0.755378
vn 0.5929899 0.3530416 0.7236882
vn 0.5929899 0.3530416 0.7236882
vn 0.6548097 0.3099551 0.6893128
vn 0.6548097 0.3099551 0.6893128
vn 0.7166296 0.2518818 0.6503826
vn 0.7166296 0.2518818 0.6503826
vn 0.7728295 0.1769487 0.6094454
vn 0.7728295 0.1769487 0.6094454
vn 0.8177894 0.08702886 0.5688993
vn 0.8177894 0.08702886 0.5688993
vn 0.8515093 -0.01787764 0.5240346
vn 0.8515093 -0.01787764 0.5240346
vn 0.866496 -0.1302774 0.4818842
vn 0.866496 -0.1302774 0.4818842
vn 0.8646227 -0.2520438 0.434628
vn 0.8646227 -0.2520438 0.434628
vn 0.8402694 -0.3756836 0.3909082
vn 0.8402694 -0.3756836 0.3909082
vn 0.7971828 -0.4974501 0.3421155
vn 0.7971828 -0.4974501 0.3421155
vn 0.7297429 -0.6135964 0.3016201
vn 0.7297429 -0.6135964 0.3016201
vn 0.6435698 -0.7222496 0.2533247
vn 0.6435698 -0.7222496 0.2533247
vn 0.5405366 -0.8159161 0.2051855
vn 0.5405366 -0.8159161 0.2051855
vn 0.4187702 -0.8927226 0.1663666
vn 0.4187702 -0.8927226 0.1663666
vn 0.2857637 -0.9507958 0.1196929
vn 0.2857637 -0.9507958 0.1196929
vn 0.1433907 -0.9863891 0.08047128
vn 0.1433907 -0.9863891 0.08047128
vn -0.004602313 -0.9995024 0.03120515
vn -0.004602313 -0.9995024 0.03120515
vn -0.1525954 -0.9882624 -0.007217649
vn -0.1525954 -0.9882624 -0.007217649
vn -0.2987151 -0.9526692 -0.05648625
vn -0.2987151 -0.9526692 -0.05648625
vn -0.4354682 -0.894596 -0.1003269
vn -0.4354682 -0.894596 -0.1003269
vn -0.5628546 -0.8159161 -0.1321951
vn -0.5628546 -0.8159161 -0.1321951
vn -0.6752545 -0.7185029 -0.166688
vn -0.6752545 -0.7185029 -0.166688
vn -0.7707943 -0.6023565 -0.2074677
vn -0.7707943 -0.6023565 -0.2074677
vn -0.8457274 -0.4749701 -0.2432047
vn -0.8457274 -0.4749701 -0.2432047
vn -0.8981806 -0.338217 -0.2808573
vn -0.8981806 -0.338217 -0.2808573
vn -0.916914 -0.2670305 -0.2965863
vn -0.916914 -0.2670305 -0.2965863
g Helix001_0
f 3/3/3 2/2/2 1/1/1
f 4/4/4 3/3/3 1/1/1
f 5/5/5 3/3/3 4/4/4
f 6/6/6 5/5/5 4/4/4
f 7/7/7 5/5/5 6/6/6
f 8/8/8 7/7/7 6/6/6
f 9/9/9 7/7/7 8/8/8
f 10/10/10 9/9/9 8/8/8
f 11/11/11 9/9/9 10/10/10
f 12/12/12 11/11/11 10/10/10
f 13/13/13 11/11/11 12/12/12
f 14/14/14 13/13/13 12/12/12
f 15/15/15 13/13/13 14/14/14
f 16/16/16 15/15/15 14/14/14
f 17/17/17 15/15/15 16/16/16
f 18/18/18 17/17/17 16/16/16
f 19/19/19 17/17/17 18/18/18
f 20/20/20 19/19/19 18/18/18
f 21/21/21 19/19/19 20/20/20
f 22/22/22 21/21/21 20/20/20
f 23/23/23 21/21/21 22/22/22
f 24/24/24 23/23/23 22/22/22
f 25/25/25 23/23/23 24/24/24
f 26/26/26 25/25/25 24/24/24
f 27/27/27 25/25/25 26/26/26
f 28/28/28 27/27/27 26/26/26
f 29/29/29 27/27/27 28/28/28
f 30/30/30 29/29/29 28/28/28
f 31/31/31 29/29/29 30/30/30
f 32/32/32 31/31/31 30/30/30
f 33/33/33 31/31/31 32/32/32
f 34/34/34 33/33/33 32/32/32
f 35/35/35 33/33/33 34/34/34
f 36/36/36 35/35/35 34/34/34
f 37/37/37 35/35/35 36/36/36
f 38/38/38 37/37/37 36/36/36
f 39/39/39 37/37/37 38/38/38
f 40/40/40 39/39/39 38/38/38
f 41/41/41 39/39/39 40/40/40
f 42/42/42 41/41/41 40/40/40
f 43/43/43 41/41/41 42/42/42
f 44/44/44 43/43/43 42/42/42
f 45/45/45 43/43/43 44/44/44
f 46/46/46 45/45/45 44/44/44
f 47/47/47 45/45/45 46/46/46
f 48/48/48 47/47/47 46/46/46
f 49/49/49 47/47/47 48/48/48
f 50/50/50 49/49/49 48/48/48
f 51/51/51 49/49/49 50/50/50
f 52/52/52 51/51/51 50/50/50
f 53/53/53 51/51/51 52/52/52
f 54/54/54 53/53/53 52/52/52
f 55/55/55 53/53/53 54/54/54
f 56/56/56 55/55/55 54/54/54
f 57/57/57 55/55/55 56/56/56
f 58/58/58 57/57/57 56/56/56
f 59/59/59 57/57/57 58/58/58
f 60/60/60 59/59/59 58/58/58
f 61/61/61 59/59/59 60/60/60
f 62/62/62 61/61/61 60/60/60
f 63/63/63 61/61/61 62/62/62
f 64/64/64 63/63/63 62/62/62
f 65/65/65 63/63/63 64/64/64
f 66/66/66 65/65/65 64/64/64
f 67/67/67 65/65/65 66/66/66
f 68/68/68 67/67/67 66/66/66
f 69/69/69 67/67/67 68/68/68
f 70/70/70 69/69/69 68/68/68
f 71/71/71 69/69/69 70/70/70
f 72/72/72 71/71/71 70/70/70
f 73/73/73 71/71/71 72/72/72
f 74/74/74 73/73/73 72/72/72
f 75/75/75 73/73/73 74/74/74
f 76/76/76 75/75/75 74/74/74
f 77/77/77 75/75/75 76/76/76
f 78/78/78 77/77/77 76/76/76
f 79/79/79 77/77/77 78/78/78
f 80/80/80 79/79/79 78/78/78
f 81/81/81 79/79/79 80/80/80
f 82/82/82 81/81/81 80/80/80
