g Helix007
v -41.3255 -23.10947 38.32559
v 90.54831 28.09889 -36.16898
v 105.7093 20.84422 -14.31905
v -31.05582 -28.02309 53.12616
v 121.4775 6.587936 11.77052
v -24.49106 -34.02925 63.93854
v 134.062 -13.44215 38.79907
v -19.93152 -41.35075 73.68701
v 141.8068 -38.27686 66.30902
v -17.34621 -49.70035 82.82834
v 143.4508 -66.48865 93.9017
v -16.81386 -58.9332 91.76678
v 138.2173 -96.37702 121.2613
v -18.55809 -68.92278 100.8285
v 125.8293 -126.1484 148.1585
v -22.92267 -79.4447 110.2563
v 106.4661 -154.0618 174.4398
v -30.2951 -90.10588 120.2205
v 80.6916 -178.5313 200.0162
v -41.02072 -100.3215 130.8243
v 49.37967 -198.1874 224.8453
v -55.31522 -109.3275 142.1229
v 13.63074 -211.9193 248.9233
v -73.19684 -116.2289 154.1328
v -25.28996 -218.8851 272.2684
v -94.4436 -120.0651 166.8446
v -66.01379 -218.5183 294.9156
v -118.5733 -119.8813 180.2328
v -107.1164 -210.5212 316.9088
v -144.8459 -114.8045 194.2615
v -147.1646 -194.8604 338.2948
v -172.2882 -104.1115 208.8885
v -184.7541 -171.7525 359.1254
v -199.7273 -87.28423 224.0663
v -218.5392 -141.6524 379.4475
v -225.8487 -64.05928 239.7517
v -247.2737 -105.2383 399.3097
v -249.2527 -34.45656 255.9002
v -269.8374 -63.39246 418.7558
v -268.5173 1.198471 272.4689
v -285.2658 -17.17889 437.827
v -282.2643 42.27322 289.4187
v -292.7751 32.18019 456.5617
v -289.2293 87.83826 306.7131
v -291.7884 83.33203 474.9947
v -288.319 136.6936 324.3178
v -281.9532 134.8293 493.1581
v -278.6668 187.3999 342.201
v -263.1597 185.1599 511.0802
v -259.6815 238.3297 360.3357
v -235.5503 232.7891 528.7867
v -231.0854 287.7175 378.6956
v -199.522 276.2017 546.3024
v -192.9398 333.7242 397.2567
v -155.7307 313.9375 563.6477
v -145.6591 374.5013 415.9978
v -105.0785 344.64 580.8427
v -90.01218 408.2617 434.9003
v -48.70508 367.0954 597.9022
v -27.10901 433.3438 453.9485
v 14.36758 380.7876 615.4966
v 39.67894 447.8429 472.5797
vt 0 0.3472619
vt 0.9962811 0.3472619
vt 0.9962811 0.3650033
vt 0 0.3650033
vt 0.9962811 0.3831558
vt 0 0.3831558
vt 0.9962811 0.4018634
vt 0 0.4018634
vt 0.9962811 0.4212494
vt 0 0.4212494
vt 0.9962811 0.441396
vt 0 0.441396
vt 0.9962811 0.4624163
vt 0 0.4624163
vt 0.9962811 0.4843926
vt 0 0.4843926
vt 0.9962811 0.5073967
vt 0 0.5073967
vt 0.9962811 0.5314904
vt 0 0.5314904
vt 0.9962811 0.5567353
vt 0 0.5567353
vt 0.9962811 0.5831624
vt 0 0.5831624
vt 0.9962811 0.6108434
vt 0 0.6108434
vt 0.9962811 0.6397887
vt 0 0.6397887
vt 0.9962811 0.6700395
vt 0 0.6700395
vt 0.9962811 0.7016265
vt 0 0.7016265
vt 0.9962811 0.7345704
vt 0 0.7345704
vt 0.9962811 0.7689019
vt 0 0.7689019
vt 0.9962811 0.804621
vt 0 0.804621
vt 0.9962811 0.8417689
vt 0 0.8417689
vt 0.9962811 0.8803456
vt 0 0.8803456
vt 0.9962811 0.9203613
vt 0 0.9203613
vt 0.9962811 0.9618469
vt 0 0.9618469
vt 0.9962811 1.004792
vt 0 1.004792
vt 0.9962811 1.049217
vt 0 1.049217
vt 0.9962811 1.095133
vt 0 1.095133
vt 0.9962811 1.142539
vt 0 1.142539
vt 0.9962811 1.191446
vt 0 1.191446
vt 0.9962811 1.241875
vt 0 1.241875
vt 0.9962811 1.293804
vt 0 1.293804
vt 0.9962811 1.347264
vt 0 1.347264
vn -0.1304691 0.9100277 0.393481
vn -0.1304691 0.9100277 0.393481
vn -0.0950346 0.8876481 0.4506099
vn -0.0950346 0.8876481 0.4506099
vn -0.03349042 0.8316989 0.554216
vn -0.03349042 0.8316989 0.554216
vn 0.003808975 0.7720197 0.6355872
vn 0.003808975 0.7720197 0.6355872
vn 0.02059376 0.7216655 0.6919356
vn 0.02059376 0.7216655 0.6919356
vn 0.02245873 0.686231 0.7270368
vn 0.02245873 0.686231 0.7270368
vn 0.02059376 0.6694462 0.742575
vn 0.02059376 0.6694462 0.742575
vn 0.02059376 0.6713113 0.7408894
vn 0.02059376 0.6713113 0.7408894
vn 0.03364855 0.6880959 0.7248392
vn 0.03364855 0.6880959 0.7248392
vn 0.06162316 0.7142056 0.6972179
vn 0.06162316 0.7142056 0.6972179
vn 0.1101124 0.7440451 0.6589932
vn 0.1101124 0.7440451 0.6589932
vn 0.1753865 0.7682898 0.6156057
vn 0.1753865 0.7682898 0.6156057
vn 0.2593103 0.7832096 0.5651026
vn 0.2593103 0.7832096 0.5651026
vn 0.3562889 0.7832096 0.5095499
vn 0.3562889 0.7832096 0.5095499
vn 0.4625923 0.762695 0.4520008
vn 0.4625923 0.762695 0.4520008
vn 0.5726258 0.7198005 0.3924118
vn 0.5726258 0.7198005 0.3924118
vn 0.6789292 0.6545265 0.3326413
vn 0.6789292 0.6545265 0.3326413
vn 0.7777728 0.5668727 0.2715231
vn 0.7777728 0.5668727 0.2715231
vn 0.8616965 0.4587044 0.2169548
vn 0.8616965 0.4587044 0.2169548
vn 0.9288356 0.3337511 0.1608562
vn 0.9288356 0.3337511 0.1608562
vn 0.9754599 0.1957431 0.10081
vn 0.9754599 0.1957431 0.10081
vn 0.9978396 0.05027521 0.04229201
vn 0.9978396 0.05027521 0.04229201
vn 0.9941096 -0.09892261 -0.04427602
vn 0.9941096 -0.09892261 -0.04427602
vn 0.966135 -0.2481204 -0.07084738
vn 0.966135 -0.2481204 -0.07084738
vn 0.9139158 -0.3898584 -0.1129972
vn 0.9139158 -0.3898584 -0.1129972
vn 0.8374519 -0.5204065 -0.1668875
vn 0.8374519 -0.5204065 -0.1668875
vn 0.7423383 -0.6360348 -0.2106977
vn 0.7423383 -0.6360348 -0.2106977
vn 0.628575 -0.7348784 -0.2546512
vn 0.628575 -0.7348784 -0.2546512
vn 0.4998918 -0.8113422 -0.3030379
vn 0.4998918 -0.8113422 -0.3030379
vn 0.3637488 -0.8654265 -0.3445632
vn 0.3637488 -0.8654265 -0.3445632
vn 0.2928798 -0.8840762 -0.3641848
vn 0.2928798 -0.8840762 -0.3641848
g Helix007_0
f 3/3/3 2/2/2 1/1/1
f 4/4/4 3/3/3 1/1/1
f 5/5/5 3/3/3 4/4/4
f 6/6/6 5/5/5 4/4/4
f 7/7/7 5/5/5 6/6/6
f 8/8/8 7/7/7 6/6/6
f 9/9/9 7/7/7 8/8/8
f 10/10/10 9/9/9 8/8/8
f 11/11/11 9/9/9 10/10/10
f 12/12/12 11/11/11 10/10/10
f 13/13/13 11/11/11 12/12/12
f 14/14/14 13/13/13 12/12/12
f 15/15/15 13/13/13 14/14/14
f 16/16/16 15/15/15 14/14/14
f 17/17/17 15/15/15 16/16/16
f 18/18/18 17/17/17 16/16/16
f 19/19/19 17/17/17 18/18/18
f 20/20/20 19/19/19 18/18/18
f 21/21/21 19/19/19 20/20/20
f 22/22/22 21/21/21 20/20/20
f 23/23/23 21/21/21 22/22/22
f 24/24/24 23/23/23 22/22/22
f 25/25/25 23/23/23 24/24/24
f 26/26/26 25/25/25 24/24/24
f 27/27/27 25/25/25 26/26/26
f 28/28/28 27/27/27 26/26/26
f 29/29/29 27/27/27 28/28/28
f 30/30/30 29/29/29 28/28/28
f 31/31/31 29/29/29 30/30/30
f 32/32/32 31/31/31 30/30/30
f 33/33/33 31/31/31 32/32/32
f 34/34/34 33/33/33 32/32/32
f 35/35/35 33/33/33 34/34/34
f 36/36/36 35/35/35 34/34/34
f 37/37/37 35/35/35 36/36/36
f 38/38/38 37/37/37 36/36/36
f 39/39/39 37/37/37 38/38/38
f 40/40/40 39/39/39 38/38/38
f 41/41/41 39/39/39 40/40/40
f 42/42/42 41/41/41 40/40/40
f 43/43/43 41/41/41 42/42/42
f 44/44/44 43/43/43 42/42/42
f 45/45/45 43/43/43 44/44/44
f 46/46/46 45/45/45 44/44/44
f 47/47/47 45/45/45 46/46/46
f 48/48/48 47/47/47 46/46/46
f 49/49/49 47/47/47 48/48/48
f 50/50/50 49/49/49 48/48/48
f 51/51/51 49/49/49 50/50/50
f 52/52/52 51/51/51 50/50/50
f 53/53/53 51/51/51 52/52/52
f 54/54/54 53/53/53 52/52/52
f 55/55/55 53/53/53 54/54/54
f 56/56/56 55/55/55 54/54/54
f 57/57/57 55/55/55 56/56/56
f 58/58/58 57/57/57 56/56/56
f 59/59/59 57/57/57 58/58/58
f 60/60/60 59/59/59 58/58/58
f 61/61/61 59/59/59 60/60/60
f 62/62/62 61/61/61 60/60/60
