g pCylinder1
v 13.58936 -0.2235934 6.418283E-07
v 11.60673 -0.2235934 -3.77125
v 12.92426 -0.2235934 -4.19935
v 12.20403 -0.2235934 5.135534E-07
v 12.92425 -0.2235934 4.199345
v 10.02279 -0.2235934 -3.256604
v 11.60672 -0.2235934 3.771249
v 10.99402 -0.2235934 7.987629
v 10.53859 -0.2235934 1.265176E-07
v 8.205197 -0.2235934 -2.666031
v 9.873263 -0.2235934 7.173352
v 7.987629 -0.2235934 10.99402
v 10.02278 -0.2235934 3.256601
v 8.627455 -0.2235934 -3.010607E-07
v 6.269432 -0.2235934 -2.037063
v 7.173343 -0.2235934 9.873269
v 4.199347 -0.2235934 12.92425
v 8.525888 -0.2235934 6.194421
v 8.205194 -0.2235934 2.666028
v 6.592066 -0.2235934 -6.093848E-07
v 4.472198 -0.2235934 -1.453107
v 3.771252 -0.2235934 11.60672
v 2.289092E-08 -0.2235934 13.58937
v 6.194425 -0.2235934 8.525898
v 6.979752 -0.2235934 5.071087
v 6.269425 -0.2235934 2.03706
v 4.702348 -0.2235934 -9.472945E-07
v 2.856657 -0.2235934 -0.9281856
v -1.009683E-07 -0.2235934 12.20402
v -4.199347 -0.2235934 12.92425
v 3.256602 -0.2235934 10.02279
v 5.071087 -0.2235934 6.979752
v 5.333094 -0.2235934 3.874718
v 4.472194 -0.2235934 1.453105
v 3.003668 -0.2235934 -1.251042E-06
v 1.824061 -0.2235934 -0.5926753
v -3.771248 -0.2235934 11.60672
v -7.987632 -0.2235934 10.99402
v -2.498705E-07 -0.2235934 10.53859
v 2.666028 -0.2235934 8.205195
v 3.874717 -0.2235934 5.333095
v 3.804278 -0.2235934 2.763971
v 2.856655 -0.2235934 0.9281827
v 1.917933 -0.2235934 -1.445186E-06
v 0.7136476 -0.2235934 -0.2318808
v 0.7503749 -0.2235934 -1.653962E-06
v 1.82406 -0.2235934 0.5926719
v 0.7136472 -0.2235934 0.2318774
v 2.430017 -0.2235934 1.765511
v 1.551637 -0.2235934 1.127331
v 0.6070648 -0.2235934 0.4410571
v 2.763972 -0.2235934 3.804278
v 1.765511 -0.2235934 2.430017
v 1.127331 -0.2235934 1.551636
v 0.4410577 -0.2235934 0.6070642
v 2.03706 -0.2235934 6.269428
v 1.453105 -0.2235934 4.472194
v 0.9281833 -0.2235934 2.856654
v 0.5926723 -0.2235934 1.82406
v 0.231878 -0.2235934 0.7136467
v -5.041811E-07 -0.2235934 8.627459
v -6.027163E-07 -0.2235934 6.592065
v -7.716704E-07 -0.2235934 4.702348
v -9.235442E-07 -0.2235934 3.003668
v -1.020616E-06 -0.2235934 1.917933
v -1.125004E-06 -0.2235934 0.7503743
v -3.256601 -0.2235934 10.02278
v -2.66603 -0.2235934 8.205195
v -2.037062 -0.2235934 6.269427
v -1.453106 -0.2235934 4.472196
v -0.9281849 -0.2235934 2.856654
v -0.5926747 -0.2235934 1.82406
v -0.2318802 -0.2235934 0.7136467
v -7.173346 -0.2235934 9.873265
v -10.99402 -0.2235934 7.987629
v -6.194423 -0.2235934 8.525896
v -9.873262 -0.2235934 7.173343
v -12.92425 -0.2235934 4.199348
v -1.127334 -0.2235934 1.551637
v -0.4410601 -0.2235934 0.6070642
v -1.765513 -0.2235934 2.430017
v -5.071091 -0.2235934 6.979749
v -11.60672 -0.2235934 3.771251
v -13.58937 -0.2235934 6.418283E-07
v -8.525895 -0.2235934 6.194425
v -1.551639 -0.2235934 1.127331
v -0.6070672 -0.2235934 0.4410571
v -3.874718 -0.2235934 5.333094
v -12.20403 -0.2235934 5.135534E-07
v -12.92425 -0.2235934 -4.199343
v -10.02279 -0.2235934 3.256603
v -6.979753 -0.2235934 5.071087
v -2.763973 -0.2235934 3.804278
v -11.60672 -0.2235934 -3.77125
v -10.99402 -0.2235934 -7.987632
v -10.53859 -0.2235934 1.265176E-07
v -8.205196 -0.2235934 2.666028
v -5.333097 -0.2235934 3.874718
v -3.804281 -0.2235934 2.763972
v -9.873265 -0.2235934 -7.173349
v -7.987632 -0.2235934 -10.99403
v -10.02279 -0.2235934 -3.256602
v -8.627456 -0.2235934 -3.010607E-07
v -6.269427 -0.2235934 2.037061
v -2.430019 -0.2235934 1.765511
v -7.173346 -0.2235934 -9.873266
v -4.199348 -0.2235934 -12.92425
v -8.525891 -0.2235934 -6.194424
v -8.205196 -0.2235934 -2.666031
v -6.592069 -0.2235934 -6.093848E-07
v -4.472197 -0.2235934 1.453105
v -2.856657 -0.2235934 0.9281828
v -3.771252 -0.2235934 -11.60672
v 4.278844E-07 -0.2235934 -13.58938
v -6.194427 -0.2235934 -8.525897
v -6.979754 -0.2235934 -5.071091
v -6.269427 -0.2235934 -2.037063
v -4.70235 -0.2235934 -9.472945E-07
v -1.824063 -0.2235934 0.5926719
v -0.7136496 -0.2235934 0.2318774
v -3.00367 -0.2235934 -1.251042E-06
v -1.917935 -0.2235934 -1.445186E-06
v -0.7503772 -0.2235934 -1.653962E-06
v -4.472197 -0.2235934 -1.453107
v -5.333097 -0.2235934 -3.874719
v -2.856657 -0.2235934 -0.9281855
v -1.824063 -0.2235934 -0.5926751
v -0.7136496 -0.2235934 -0.2318808
v -3.804281 -0.2235934 -2.763973
v -5.07109 -0.2235934 -6.979759
v -2.430019 -0.2235934 -1.765514
v -1.551639 -0.2235934 -1.127334
v -0.6070672 -0.2235934 -0.4410607
v -3.874719 -0.2235934 -5.333097
v -3.256603 -0.2235934 -10.02279
v -2.763974 -0.2235934 -3.804281
v -1.765513 -0.2235934 -2.43002
v -1.127334 -0.2235934 -1.55164
v -0.4410601 -0.2235934 -0.6070678
v -2.666031 -0.2235934 -8.205199
v 2.627411E-07 -0.2235934 -12.20402
v 4.199347 -0.2235934 -12.92425
v -2.037063 -0.2235934 -6.269431
v -1.453107 -0.2235934 -4.472198
v -0.9281852 -0.2235934 -2.856658
v -0.5926747 -0.2235934 -1.824063
v -0.2318802 -0.2235934 -0.7136502
v 6.420425E-08 -0.2235934 -10.53859
v 3.771252 -0.2235934 -11.60672
v 7.98763 -0.2235934 -10.99403
v -2.470639E-07 -0.2235934 -8.62746
v -4.062576E-07 -0.2235934 -6.592069
v -6.315295E-07 -0.2235934 -4.702352
v -8.340278E-07 -0.2235934 -3.003671
v 7.173352 -0.2235934 -9.873267
v 10.99403 -0.2235934 -7.987633
v 3.256605 -0.2235934 -10.02279
v 2.666029 -0.2235934 -8.205197
v 2.037061 -0.2235934 -6.269432
v 9.873271 -0.2235934 -7.173353
v 12.92426 -0.2235934 -4.19935
v 11.60673 -0.2235934 -3.77125
v 6.194423 -0.2235934 -8.525897
v 8.525901 -0.2235934 -6.194425
v 10.02279 -0.2235934 -3.256604
v 5.071088 -0.2235934 -6.979753
v 6.979758 -0.2235934 -5.071092
v 8.205197 -0.2235934 -2.666031
v 1.453106 -0.2235934 -4.472198
v 3.874719 -0.2235934 -5.333098
v 5.333097 -0.2235934 -3.874719
v 6.269432 -0.2235934 -2.037063
v 2.763973 -0.2235934 -3.804282
v 3.804281 -0.2235934 -2.763975
v 4.472198 -0.2235934 -1.453107
v 0.9281834 -0.2235934 -2.856658
v 2.430019 -0.2235934 -1.765514
v 2.856657 -0.2235934 -0.9281856
v 1.765512 -0.2235934 -2.430022
v -9.634574E-07 -0.2235934 -1.917936
v -1.102641E-06 -0.2235934 -0.7503778
v 0.5926725 -0.2235934 -1.824063
v 0.231878 -0.2235934 -0.7136502
v 1.127332 -0.2235934 -1.55164
v 0.4410577 -0.2235934 -0.6070678
v 1.551639 -0.2235934 -1.127334
v 1.824061 -0.2235934 -0.5926753
v 0.6070651 -0.2235934 -0.4410607
v 0.7136476 -0.2235934 -0.2318808
vt 0.9501953 0
vt 1 0.125
vt 1 0
vt 0.9501953 0.125
vt 0.8999023 0
vt 1 0.25
vt 0.8999023 0.125
vt 0.8500977 0
vt 0.9501953 0.25
vt 1 0.375
vt 0.8500977 0.125
vt 0.7998047 0
vt 0.8999023 0.25
vt 0.9501953 0.375
vt 1 0.5
vt 0.7998047 0.125
vt 0.75 0
vt 0.8500977 0.25
vt 0.8999023 0.375
vt 0.9501953 0.5
vt 1 0.625
vt 0.75 0.125
vt 0.7001953 0
vt 0.7998047 0.25
vt 0.8500977 0.375
vt 0.8999023 0.5
vt 0.9501953 0.625
vt 1 0.75
vt 0.7001953 0.125
vt 0.6499023 0
vt 0.75 0.25
vt 0.7998047 0.375
vt 0.8500977 0.5
vt 0.8999023 0.625
vt 0.9501953 0.75
vt 1 0.875
vt 0.6499023 0.125
vt 0.6000977 0
vt 0.7001953 0.25
vt 0.75 0.375
vt 0.7998047 0.5
vt 0.8500977 0.625
vt 0.8999023 0.75
vt 0.9501953 0.875
vt 1 1
vt 0.9501953 1
vt 0.8999023 0.875
vt 0.8999023 1
vt 0.8500977 0.75
vt 0.8500977 0.875
vt 0.8500977 1
vt 0.7998047 0.625
vt 0.7998047 0.75
vt 0.7998047 0.875
vt 0.7998047 1
vt 0.75 0.5
vt 0.75 0.625
vt 0.75 0.75
vt 0.75 0.875
vt 0.75 1
vt 0.7001953 0.375
vt 0.7001953 0.5
vt 0.7001953 0.625
vt 0.7001953 0.75
vt 0.7001953 0.875
vt 0.7001953 1
vt 0.6499023 0.25
vt 0.6499023 0.375
vt 0.6499023 0.5
vt 0.6499023 0.625
vt 0.6499023 0.75
vt 0.6499023 0.875
vt 0.6499023 1
vt 0.6000977 0.125
vt 0.5498047 0
vt 0.6000977 0.25
vt 0.5498047 0.125
vt 0.5 0
vt 0.6000977 0.875
vt 0.6000977 1
vt 0.6000977 0.75
vt 0.6000977 0.375
vt 0.5 0.125
vt 0.4499512 0
vt 0.5498047 0.25
vt 0.5498047 0.875
vt 0.5498047 1
vt 0.6000977 0.5
vt 0.4499512 0.125
vt 0.3999023 0
vt 0.5 0.25
vt 0.5498047 0.375
vt 0.6000977 0.625
vt 0.3999023 0.125
vt 0.3500977 0
vt 0.4499512 0.25
vt 0.5 0.375
vt 0.5498047 0.5
vt 0.5498047 0.625
vt 0.3500977 0.125
vt 0.3000488 0
vt 0.3999023 0.25
vt 0.4499512 0.375
vt 0.5 0.5
vt 0.5498047 0.75
vt 0.3000488 0.125
vt 0.25 0
vt 0.3500977 0.25
vt 0.3999023 0.375
vt 0.4499512 0.5
vt 0.5 0.625
vt 0.5 0.75
vt 0.25 0.125
vt 0.1999512 0
vt 0.3000488 0.25
vt 0.3500977 0.375
vt 0.3999023 0.5
vt 0.4499512 0.625
vt 0.5 0.875
vt 0.5 1
vt 0.4499512 0.75
vt 0.4499512 0.875
vt 0.4499512 1
vt 0.3999023 0.625
vt 0.3500977 0.5
vt 0.3999023 0.75
vt 0.3999023 0.875
vt 0.3999023 1
vt 0.3500977 0.625
vt 0.3000488 0.375
vt 0.3500977 0.75
vt 0.3500977 0.875
vt 0.3500977 1
vt 0.3000488 0.5
vt 0.25 0.25
vt 0.3000488 0.625
vt 0.3000488 0.75
vt 0.3000488 0.875
vt 0.3000488 1
vt 0.25 0.375
vt 0.1999512 0.125
vt 0.1500244 0
vt 0.25 0.5
vt 0.25 0.625
vt 0.25 0.75
vt 0.25 0.875
vt 0.25 1
vt 0.1999512 0.25
vt 0.1500244 0.125
vt 0.09997559 0
vt 0.1999512 0.375
vt 0.1999512 0.5
vt 0.1999512 0.625
vt 0.1999512 0.75
vt 0.09997559 0.125
vt 0.04998779 0
vt 0.1500244 0.25
vt 0.1500244 0.375
vt 0.1500244 0.5
vt 0.04998779 0.125
vt 5.960464E-08 0
vt 5.960464E-08 0.125
vt 0.09997559 0.25
vt 0.04998779 0.25
vt 5.960464E-08 0.25
vt 0.09997559 0.375
vt 0.04998779 0.375
vt 5.960464E-08 0.375
vt 0.1500244 0.625
vt 0.09997559 0.5
vt 0.04998779 0.5
vt 5.960464E-08 0.5
vt 0.09997559 0.625
vt 0.04998779 0.625
vt 5.960464E-08 0.625
vt 0.1500244 0.75
vt 0.04998779 0.75
vt 5.960464E-08 0.75
vt 0.09997559 0.75
vt 0.1999512 0.875
vt 0.1999512 1
vt 0.1500244 0.875
vt 0.1500244 1
vt 0.09997559 0.875
vt 0.09997559 1
vt 0.04998779 0.875
vt 5.960464E-08 0.875
vt 0.04998779 1
vt 5.960464E-08 1
vn 0 1 0
vn 0 1 0
vn 0 1 0
vn 0 1 0
vn 0 1 0
vn 0 1 0
vn 0 1 0
vn 0 1 0
vn 0 1 0
vn 0 1 0
vn 0 1 0
vn 0 1 0
vn 0 1 0
vn 0 1 0
vn 0 1 0
vn 0 1 0
vn 0 1 0
vn 0 1 0
vn 0 1 0
vn 0 1 0
vn 0 1 0
vn 0 1 0
vn 0 1 0
vn 0 1 0
vn 0 1 0
vn 0 1 0
vn 0 1 0
vn 0 1 0
vn 0 1 0
vn 0 1 0
vn 0 1 0
vn 0 1 0
vn 0 1 0
vn 0 1 0
vn 0 1 0
vn 0 1 0
vn 0 1 0
vn 0 1 0
vn 0 1 0
vn 0 1 0
vn 0 1 0
vn 0 1 0
vn 0 1 0
vn 0 1 0
vn 0 1 0
vn 0 1 0
vn 0 1 0
vn 0 1 0
vn 0 1 0
vn 0 1 0
vn 0 1 0
vn 0 1 0
vn 0 1 0
vn 0 1 0
vn 0 1 0
vn 0 1 0
vn 0 1 0
vn 0 1 0
vn 0 1 0
vn 0 1 0
vn 0 1 0
vn 0 1 0
vn 0 1 0
vn 0 1 0
vn 0 1 0
vn 0 1 0
vn 0 1 0
vn 0 1 0
vn 0 1 0
vn 0 1 0
vn 0 1 0
vn 0 1 0
vn 0 1 0
vn 0 1 0
vn 0 1 0
vn 0 1 0
vn 0 1 0
vn 0 1 0
vn 0 1 0
vn 0 1 0
vn 0 1 0
vn 0 1 0
vn 0 1 0
vn 0 1 0
vn 0 1 0
vn 0 1 0
vn 0 1 0
vn 0 1 0
vn 0 1 0
vn 0 1 0
vn 0 1 0
vn 0 1 0
vn 0 1 0
vn 0 1 0
vn 0 1 0
vn 0 1 0
vn 0 1 0
vn 0 1 0
vn 0 1 0
vn 0 1 0
vn 0 1 0
vn 0 1 0
vn 0 1 0
vn 0 1 0
vn 0 1 0
vn 0 1 0
vn 0 1 0
vn 0 1 0
vn 0 1 0
vn 0 1 0
vn 0 1 0
vn 0 1 0
vn 0 1 0
vn 0 1 0
vn 0 1 0
vn 0 1 0
vn 0 1 0
vn 0 1 0
vn 0 1 0
vn 0 1 0
vn 0 1 0
vn 0 1 0
vn 0 1 0
vn 0 1 0
vn 0 1 0
vn 0 1 0
vn 0 1 0
vn 0 1 0
vn 0 1 0
vn 0 1 0
vn 0 1 0
vn 0 1 0
vn 0 1 0
vn 0 1 0
vn 0 1 0
vn 0 1 0
vn 0 1 0
vn 0 1 0
vn 0 1 0
vn 0 1 0
vn 0 1 0
vn 0 1 0
vn 0 1 0
vn 0 1 0
vn 0 1 0
vn 0 1 0
vn 0 1 0
vn 0 1 0
vn 0 1 0
vn 0 1 0
vn 0 1 0
vn 0 1 0
vn 0 1 0
vn 0 1 0
vn 0 1 0
vn 0 1 0
vn 0 1 0
vn 0 1 0
vn 0 1 0
vn 0 1 0
vn 0 1 0
vn 0 1 0
vn 0 1 0
vn 0 1 0
vn 0 1 0
vn 0 1 0
vn 0 1 0
vn 0 1 0
vn 0 1 0
vn 0 1 0
vn 0 1 0
vn 0 1 0
vn 0 1 0
vn 0 1 0
vn 0 1 0
vn 0 1 0
vn 0 1 0
vn 0 1 0
vn 0 1 0
vn 0 1 0
vn 0 1 0
vn 0 1 0
vn 0 1 0
vn 0 1 0
vn 0 1 0
vn 0 1 0
vn 0 1 0
vn 0 1 0
vn 0 1 0
g pCylinder1_0
f 3/3/3 2/2/2 1/1/1
f 2/2/2 4/4/4 1/1/1
f 1/1/1 4/4/4 5/5/5
f 2/2/2 6/6/6 4/4/4
f 4/4/4 7/7/7 5/5/5
f 5/5/5 7/7/7 8/8/8
f 6/6/6 9/9/9 4/4/4
f 4/4/4 9/9/9 7/7/7
f 6/6/6 10/10/10 9/9/9
f 7/7/7 11/11/11 8/8/8
f 8/8/8 11/11/11 12/12/12
f 9/9/9 13/13/13 7/7/7
f 7/7/7 13/13/13 11/11/11
f 10/10/10 14/14/14 9/9/9
f 9/9/9 14/14/14 13/13/13
f 10/10/10 15/15/15 14/14/14
f 11/11/11 16/16/16 12/12/12
f 12/12/12 16/16/16 17/17/17
f 13/13/13 18/18/18 11/11/11
f 11/11/11 18/18/18 16/16/16
f 14/14/14 19/19/19 13/13/13
f 13/13/13 19/19/19 18/18/18
f 15/15/15 20/20/20 14/14/14
f 14/14/14 20/20/20 19/19/19
f 15/15/15 21/21/21 20/20/20
f 16/16/16 22/22/22 17/17/17
f 17/17/17 22/22/22 23/23/23
f 18/18/18 24/24/24 16/16/16
f 16/16/16 24/24/24 22/22/22
f 19/19/19 25/25/25 18/18/18
f 18/18/18 25/25/25 24/24/24
f 20/20/20 26/26/26 19/19/19
f 19/19/19 26/26/26 25/25/25
f 21/21/21 27/27/27 20/20/20
f 20/20/20 27/27/27 26/26/26
f 21/21/21 28/28/28 27/27/27
f 22/22/22 29/29/29 23/23/23
f 23/23/23 29/29/29 30/30/30
f 24/24/24 31/31/31 22/22/22
f 22/22/22 31/31/31 29/29/29
f 25/25/25 32/32/32 24/24/24
f 24/24/24 32/32/32 31/31/31
f 26/26/26 33/33/33 25/25/25
f 25/25/25 33/33/33 32/32/32
f 27/27/27 34/34/34 26/26/26
f 26/26/26 34/34/34 33/33/33
f 28/28/28 35/35/35 27/27/27
f 27/27/27 35/35/35 34/34/34
f 28/28/28 36/36/36 35/35/35
f 29/29/29 37/37/37 30/30/30
f 30/30/30 37/37/37 38/38/38
f 31/31/31 39/39/39 29/29/29
f 29/29/29 39/39/39 37/37/37
f 32/32/32 40/40/40 31/31/31
f 31/31/31 40/40/40 39/39/39
f 33/33/33 41/41/41 32/32/32
f 32/32/32 41/41/41 40/40/40
f 34/34/34 42/42/42 33/33/33
f 33/33/33 42/42/42 41/41/41
f 35/35/35 43/43/43 34/34/34
f 34/34/34 43/43/43 42/42/42
f 36/36/36 44/44/44 35/35/35
f 35/35/35 44/44/44 43/43/43
f 36/36/36 45/45/45 44/44/44
f 45/45/45 46/46/46 44/44/44
f 44/44/44 46/46/46 47/47/47
f 44/44/44 47/47/47 43/43/43
f 46/46/46 48/48/48 47/47/47
f 43/43/43 49/49/49 42/42/42
f 43/43/43 47/47/47 49/49/49
f 47/47/47 48/48/48 50/50/50
f 47/47/47 50/50/50 49/49/49
f 48/48/48 51/51/51 50/50/50
f 42/42/42 52/52/52 41/41/41
f 42/42/42 49/49/49 52/52/52
f 49/49/49 50/50/50 53/53/53
f 49/49/49 53/53/53 52/52/52
f 50/50/50 51/51/51 54/54/54
f 50/50/50 54/54/54 53/53/53
f 51/51/51 55/55/55 54/54/54
f 41/41/41 52/52/52 56/56/56
f 41/41/41 56/56/56 40/40/40
f 52/52/52 53/53/53 57/57/57
f 52/52/52 57/57/57 56/56/56
f 53/53/53 54/54/54 58/58/58
f 53/53/53 58/58/58 57/57/57
f 54/54/54 55/55/55 59/59/59
f 54/54/54 59/59/59 58/58/58
f 55/55/55 60/60/60 59/59/59
f 40/40/40 56/56/56 61/61/61
f 40/40/40 61/61/61 39/39/39
f 56/56/56 57/57/57 62/62/62
f 56/56/56 62/62/62 61/61/61
f 57/57/57 58/58/58 63/63/63
f 57/57/57 63/63/63 62/62/62
f 58/58/58 59/59/59 64/64/64
f 58/58/58 64/64/64 63/63/63
f 59/59/59 60/60/60 65/65/65
f 59/59/59 65/65/65 64/64/64
f 60/60/60 66/66/66 65/65/65
f 39/39/39 61/61/61 67/67/67
f 39/39/39 67/67/67 37/37/37
f 61/61/61 62/62/62 68/68/68
f 61/61/61 68/68/68 67/67/67
f 62/62/62 63/63/63 69/69/69
f 62/62/62 69/69/69 68/68/68
f 63/63/63 64/64/64 70/70/70
f 63/63/63 70/70/70 69/69/69
f 64/64/64 65/65/65 71/71/71
f 64/64/64 71/71/71 70/70/70
f 65/65/65 66/66/66 72/72/72
f 65/65/65 72/72/72 71/71/71
f 66/66/66 73/73/73 72/72/72
f 37/37/37 67/67/67 74/74/74
f 37/37/37 74/74/74 38/38/38
f 38/38/38 74/74/74 75/75/75
f 67/67/67 68/68/68 76/76/76
f 67/67/67 76/76/76 74/74/74
f 74/74/74 77/77/77 75/75/75
f 74/74/74 76/76/76 77/77/77
f 75/75/75 77/77/77 78/78/78
f 72/72/72 73/73/73 79/79/79
f 73/73/73 80/80/80 79/79/79
f 71/71/71 72/72/72 81/81/81
f 72/72/72 79/79/79 81/81/81
f 68/68/68 82/82/82 76/76/76
f 68/68/68 69/69/69 82/82/82
f 77/77/77 83/83/83 78/78/78
f 78/78/78 83/83/83 84/84/84
f 76/76/76 85/85/85 77/77/77
f 76/76/76 82/82/82 85/85/85
f 77/77/77 85/85/85 83/83/83
f 79/79/79 80/80/80 86/86/86
f 80/80/80 87/87/87 86/86/86
f 69/69/69 88/88/88 82/82/82
f 69/69/69 70/70/70 88/88/88
f 83/83/83 89/89/89 84/84/84
f 84/84/84 89/89/89 90/90/90
f 85/85/85 91/91/91 83/83/83
f 83/83/83 91/91/91 89/89/89
f 82/82/82 92/92/92 85/85/85
f 82/82/82 88/88/88 92/92/92
f 85/85/85 92/92/92 91/91/91
f 70/70/70 93/93/93 88/88/88
f 70/70/70 71/71/71 93/93/93
f 71/71/71 81/81/81 93/93/93
f 89/89/89 94/94/94 90/90/90
f 90/90/90 94/94/94 95/95/95
f 91/91/91 96/96/96 89/89/89
f 89/89/89 96/96/96 94/94/94
f 92/92/92 97/97/97 91/91/91
f 91/91/91 97/97/97 96/96/96
f 88/88/88 98/98/98 92/92/92
f 88/88/88 93/93/93 98/98/98
f 92/92/92 98/98/98 97/97/97
f 93/93/93 81/81/81 99/99/99
f 93/93/93 99/99/99 98/98/98
f 94/94/94 100/100/100 95/95/95
f 95/95/95 100/100/100 101/101/101
f 96/96/96 102/102/102 94/94/94
f 94/94/94 102/102/102 100/100/100
f 97/97/97 103/103/103 96/96/96
f 96/96/96 103/103/103 102/102/102
f 98/98/98 104/104/104 97/97/97
f 98/98/98 99/99/99 104/104/104
f 97/97/97 104/104/104 103/103/103
f 81/81/81 105/105/105 99/99/99
f 81/81/81 79/79/79 105/105/105
f 79/79/79 86/86/86 105/105/105
f 100/100/100 106/106/106 101/101/101
f 101/101/101 106/106/106 107/107/107
f 102/102/102 108/108/108 100/100/100
f 100/100/100 108/108/108 106/106/106
f 103/103/103 109/109/109 102/102/102
f 102/102/102 109/109/109 108/108/108
f 104/104/104 110/110/110 103/103/103
f 103/103/103 110/110/110 109/109/109
f 99/99/99 111/111/111 104/104/104
f 99/99/99 105/105/105 111/111/111
f 104/104/104 111/111/111 110/110/110
f 105/105/105 86/86/86 112/112/112
f 105/105/105 112/112/112 111/111/111
f 106/106/106 113/113/113 107/107/107
f 107/107/107 113/113/113 114/114/114
f 108/108/108 115/115/115 106/106/106
f 106/106/106 115/115/115 113/113/113
f 109/109/109 116/116/116 108/108/108
f 108/108/108 116/116/116 115/115/115
f 110/110/110 117/117/117 109/109/109
f 109/109/109 117/117/117 116/116/116
f 111/111/111 118/118/118 110/110/110
f 111/111/111 112/112/112 118/118/118
f 110/110/110 118/118/118 117/117/117
f 86/86/86 119/119/119 112/112/112
f 86/86/86 87/87/87 119/119/119
f 87/87/87 120/120/120 119/119/119
f 112/112/112 121/121/121 118/118/118
f 112/112/112 119/119/119 121/121/121
f 119/119/119 120/120/120 122/122/122
f 119/119/119 122/122/122 121/121/121
f 120/120/120 123/123/123 122/122/122
f 118/118/118 124/124/124 117/117/117
f 118/118/118 121/121/121 124/124/124
f 117/117/117 125/125/125 116/116/116
f 117/117/117 124/124/124 125/125/125
f 121/121/121 122/122/122 126/126/126
f 121/121/121 126/126/126 124/124/124
f 122/122/122 123/123/123 127/127/127
f 122/122/122 127/127/127 126/126/126
f 123/123/123 128/128/128 127/127/127
f 124/124/124 126/126/126 129/129/129
f 124/124/124 129/129/129 125/125/125
f 116/116/116 125/125/125 130/130/130
f 116/116/116 130/130/130 115/115/115
f 126/126/126 127/127/127 131/131/131
f 126/126/126 131/131/131 129/129/129
f 127/127/127 128/128/128 132/132/132
f 127/127/127 132/132/132 131/131/131
f 128/128/128 133/133/133 132/132/132
f 125/125/125 129/129/129 134/134/134
f 125/125/125 134/134/134 130/130/130
f 115/115/115 130/130/130 135/135/135
f 115/115/115 135/135/135 113/113/113
f 129/129/129 131/131/131 136/136/136
f 129/129/129 136/136/136 134/134/134
f 131/131/131 132/132/132 137/137/137
f 131/131/131 137/137/137 136/136/136
f 132/132/132 133/133/133 138/138/138
f 132/132/132 138/138/138 137/137/137
f 133/133/133 139/139/139 138/138/138
f 130/130/130 134/134/134 140/140/140
f 130/130/130 140/140/140 135/135/135
f 113/113/113 135/135/135 141/141/141
f 113/113/113 141/141/141 114/114/114
f 114/114/114 141/141/141 142/142/142
f 134/134/134 136/136/136 143/143/143
f 134/134/134 143/143/143 140/140/140
f 136/136/136 137/137/137 144/144/144
f 136/136/136 144/144/144 143/143/143
f 137/137/137 138/138/138 145/145/145
f 137/137/137 145/145/145 144/144/144
f 138/138/138 139/139/139 146/146/146
f 138/138/138 146/146/146 145/145/145
f 139/139/139 147/147/147 146/146/146
f 135/135/135 148/148/148 141/141/141
f 135/135/135 140/140/140 148/148/148
f 141/141/141 149/149/149 142/142/142
f 141/141/141 148/148/148 149/149/149
f 142/142/142 149/149/149 150/150/150
f 140/140/140 143/143/143 151/151/151
f 140/140/140 151/151/151 148/148/148
f 143/143/143 144/144/144 152/152/152
f 143/143/143 152/152/152 151/151/151
f 144/144/144 145/145/145 153/153/153
f 144/144/144 153/153/153 152/152/152
f 145/145/145 146/146/146 154/154/154
f 145/145/145 154/154/154 153/153/153
f 149/149/149 155/155/155 150/150/150
f 150/150/150 155/155/155 156/156/156
f 148/148/148 157/157/157 149/149/149
f 148/148/148 151/151/151 157/157/157
f 149/149/149 157/157/157 155/155/155
f 151/151/151 152/152/152 158/158/158
f 151/151/151 158/158/158 157/157/157
f 152/152/152 153/153/153 159/159/159
f 152/152/152 159/159/159 158/158/158
f 155/155/155 160/160/160 156/156/156
f 156/156/156 160/160/160 161/161/161
f 160/160/160 162/162/162 161/161/161
f 157/157/157 163/163/163 155/155/155
f 157/157/157 158/158/158 163/163/163
f 155/155/155 163/163/163 160/160/160
f 160/160/160 164/164/164 162/162/162
f 163/163/163 164/164/164 160/160/160
f 164/164/164 165/165/165 162/162/162
f 158/158/158 166/166/166 163/163/163
f 163/163/163 166/166/166 164/164/164
f 158/158/158 159/159/159 166/166/166
f 164/164/164 167/167/167 165/165/165
f 166/166/166 167/167/167 164/164/164
f 167/167/167 168/168/168 165/165/165
f 153/153/153 169/169/169 159/159/159
f 153/153/153 154/154/154 169/169/169
f 159/159/159 170/170/170 166/166/166
f 166/166/166 170/170/170 167/167/167
f 159/159/159 169/169/169 170/170/170
f 167/167/167 171/171/171 168/168/168
f 170/170/170 171/171/171 167/167/167
f 171/171/171 172/172/172 168/168/168
f 169/169/169 173/173/173 170/170/170
f 170/170/170 173/173/173 171/171/171
f 171/171/171 174/174/174 172/172/172
f 173/173/173 174/174/174 171/171/171
f 174/174/174 175/175/175 172/172/172
f 154/154/154 176/176/176 169/169/169
f 169/169/169 176/176/176 173/173/173
f 174/174/174 177/177/177 175/175/175
f 177/177/177 178/178/178 175/175/175
f 173/173/173 179/179/179 174/174/174
f 176/176/176 179/179/179 173/173/173
f 179/179/179 177/177/177 174/174/174
f 154/154/154 180/180/180 176/176/176
f 146/146/146 180/180/180 154/154/154
f 146/146/146 147/147/147 180/180/180
f 147/147/147 181/181/181 180/180/180
f 180/180/180 182/182/182 176/176/176
f 180/180/180 181/181/181 182/182/182
f 176/176/176 182/182/182 179/179/179
f 181/181/181 183/183/183 182/182/182
f 182/182/182 184/184/184 179/179/179
f 182/182/182 183/183/183 184/184/184
f 179/179/179 184/184/184 177/177/177
f 183/183/183 185/185/185 184/184/184
f 177/177/177 186/186/186 178/178/178
f 184/184/184 186/186/186 177/177/177
f 184/184/184 185/185/185 186/186/186
f 186/186/186 187/187/187 178/178/178
f 185/185/185 188/188/188 186/186/186
f 186/186/186 188/188/188 187/187/187
f 188/188/188 189/189/189 187/187/187
