g Plane_Wavy
v 0.1666667 0.007408366 0.5
v 0.5 0.007408366 0.1666667
v 0.5 -0.05945501 0.5
v 0.1666667 0.1793024 0.1666667
v -0.1666667 0.007408366 0.5
v 0.5 0.007408366 -0.1666667
v -0.1666667 0.1793024 0.1666667
v -0.5 -0.05945501 0.5
v -0.5 0.007408366 0.1666667
v 0.1666667 0.1793024 -0.1666667
v 0.5 -0.05945501 -0.5
v 0.1666667 0.007408366 -0.5
v -0.1666667 0.1793024 -0.1666667
v -0.5 0.007408366 -0.1666667
v -0.1666667 0.007408366 -0.5
v -0.5 -0.05945501 -0.5
vt 0.6665039 0
vt 1 0.333252
vt 1 0
vt 0.6665039 0.333252
vt 0.333252 0
vt 1 0.6665039
vt 0.333252 0.333252
vt 0 0
vt 0 0.333252
vt 0.6665039 0.6665039
vt 1 1
vt 0.6665039 1
vt 0.333252 0.6665039
vt 0 0.6665039
vt 0.333252 1
vt 0 1
vn 0.1665039 0.9042969 0.3930664
vn 0.3930664 0.9042969 0.1665039
vn 0.3195801 0.8920898 0.3195801
vn 0.2044678 0.9575195 0.2044678
vn -0.1665039 0.9042969 0.3930664
vn 0.3930664 0.9042969 -0.1665039
vn -0.2044678 0.9575195 0.2044678
vn -0.3195801 0.8920898 0.3195801
vn -0.3930664 0.9042969 0.1665039
vn 0.2044678 0.9575195 -0.2044678
vn 0.3195801 0.8920898 -0.3195801
vn 0.1665039 0.9042969 -0.3930664
vn -0.2044678 0.9575195 -0.2044678
vn -0.3930664 0.9042969 -0.1665039
vn -0.1665039 0.9042969 -0.3930664
vn -0.3195801 0.8920898 -0.3195801
g Plane_Wavy_0
f 3/3/3 2/2/2 1/1/1
f 2/2/2 4/4/4 1/1/1
f 1/1/1 4/4/4 5/5/5
f 2/2/2 6/6/6 4/4/4
f 4/4/4 7/7/7 5/5/5
f 5/5/5 7/7/7 8/8/8
f 7/7/7 9/9/9 8/8/8
f 6/6/6 10/10/10 4/4/4
f 4/4/4 10/10/10 7/7/7
f 6/6/6 11/11/11 10/10/10
f 11/11/11 12/12/12 10/10/10
f 7/7/7 13/13/13 9/9/9
f 10/10/10 13/13/13 7/7/7
f 10/10/10 12/12/12 13/13/13
f 13/13/13 14/14/14 9/9/9
f 12/12/12 15/15/15 13/13/13
f 13/13/13 15/15/15 14/14/14
f 15/15/15 16/16/16 14/14/14
