g SM_VFX_Dragon_Medium_Cylinder_Taper
v 0.6733456 5.11456 0
v 4.768372E-06 15.805 20
v 9.536743E-07 5.158693 0
v 2.062969 15.66979 20
v 1.335169 4.982915 0
v 4.090638 15.26646 20
v 1.974146 4.766011 0
v 6.048315 14.60192 20
v 2.579348 4.467562 0
v 7.902502 13.68753 20
v 3.140413 4.092667 0
v 9.621475 12.53895 20
v 3.647747 3.647747 0
v 11.17583 11.17583 20
v 4.092666 3.140413 0
v 12.53895 9.621475 20
v 4.46756 2.579347 0
v 13.68753 7.9025 20
v 4.766011 1.974146 0
v 14.60192 6.048313 20
v 4.982915 1.335168 0
v 15.26646 4.090637 20
v 5.11456 0.6733437 0
v 15.66979 2.062967 20
v 5.158693 0 0
v 15.805 0 20
v 5.114563 -0.6733303 0
v 15.6698 -2.062921 20
v 4.98292 -1.335155 0
v 15.26647 -4.090594 20
v 4.766016 -1.974135 0
v 14.60193 -6.048278 20
v 4.467565 -2.579337 0
v 13.68755 -7.902469 20
v 4.092672 -3.140407 0
v 12.53897 -9.62145 20
v 3.647755 -3.647741 0
v 11.17584 -11.1758 20
v 3.140421 -4.092663 0
v 9.621494 -12.53893 20
v 2.579353 -4.467558 0
v 7.902519 -13.68752 20
v 1.974152 -4.76601 0
v 6.048328 -14.60191 20
v 1.335173 -4.982915 0
v 4.090652 -15.26645 20
v 0.6733494 -5.114561 0
v 2.062979 -15.66978 20
v 1.907349E-06 -5.158694 0
v 8.583069E-06 -15.805 20
v -0.6733437 -5.114561 0
v -2.062963 -15.66979 20
v -1.335168 -4.982916 0
v -4.090633 -15.26646 20
v -1.974148 -4.766012 0
v -6.048313 -14.60192 20
v -2.579349 -4.467559 0
v -7.902503 -13.68753 20
v -3.140416 -4.092666 0
v -9.621482 -12.53894 20
v -3.64775 -3.647746 0
v -11.17583 -11.17582 20
v -4.092669 -3.140412 0
v -12.53895 -9.621468 20
v -4.467561 -2.579345 0
v -13.68753 -7.902493 20
v -4.766014 -1.974145 0
v -14.60192 -6.048306 20
v -4.982917 -1.335167 0
v -15.26646 -4.090629 20
v -5.114562 -0.6733427 0
v -15.66979 -2.06296 20
v -5.158694 1.907349E-06 0
v -15.805 5.722046E-06 20
v -5.114561 0.6733456 0
v -15.66978 2.062973 20
v -4.982916 1.335169 0
v -15.26646 4.090641 20
v -4.766012 1.974149 0
v -14.60191 6.048319 20
v -4.46756 2.579347 0
v -13.68753 7.902504 20
v -4.092667 3.140413 0
v -12.53895 9.621475 20
v -3.647747 3.647749 0
v -11.17582 11.17583 20
v -3.140414 4.092669 0
v -9.621471 12.53896 20
v -2.579347 4.46756 0
v -7.902498 13.68754 20
v -1.974145 4.766011 0
v -6.048307 14.60192 20
v -1.335167 4.982916 0
v -4.090632 15.26646 20
v -0.6733437 5.11456 0
v -2.062962 15.66979 20
v 9.536743E-07 5.158693 0
v 4.768372E-06 15.805 20
vt 0.9791666 0
vt 0.9999999 1
vt 0.9999999 0
vt 0.9791666 1
vt 0.9583333 0
vt 0.9583333 1
vt 0.9375 0
vt 0.9375 1
vt 0.9166666 0
vt 0.9166666 1
vt 0.8958333 0
vt 0.8958333 1
vt 0.875 0
vt 0.875 1
vt 0.8541667 0
vt 0.8541667 1
vt 0.8333333 0
vt 0.8333333 1
vt 0.8125 0
vt 0.8125 1
vt 0.7916667 0
vt 0.7916667 1
vt 0.7708334 0
vt 0.7708334 1
vt 0.75 0
vt 0.75 1
vt 0.7291672 0
vt 0.7291672 1
vt 0.7083338 0
vt 0.7083338 1
vt 0.6875004 0
vt 0.6875004 1
vt 0.666667 0
vt 0.666667 1
vt 0.6458337 0
vt 0.6458337 1
vt 0.6250003 0
vt 0.6250003 1
vt 0.6041669 0
vt 0.6041669 1
vt 0.5833336 0
vt 0.5833336 1
vt 0.5625002 0
vt 0.5625002 1
vt 0.5416668 0
vt 0.5416668 1
vt 0.5208334 0
vt 0.5208334 1
vt 0.5000001 0
vt 0.5000001 1
vt 0.4791667 0
vt 0.4791667 1
vt 0.4583333 0
vt 0.4583333 1
vt 0.4375 0
vt 0.4375 1
vt 0.4166666 0
vt 0.4166666 1
vt 0.3958333 0
vt 0.3958333 1
vt 0.3749999 0
vt 0.3749999 1
vt 0.3541666 0
vt 0.3541666 1
vt 0.3333333 0
vt 0.3333333 1
vt 0.3124999 0
vt 0.3124999 1
vt 0.2916666 0
vt 0.2916666 1
vt 0.2708333 0
vt 0.2708333 1
vt 0.2499999 0
vt 0.2499999 1
vt 0.2291666 0
vt 0.2291666 1
vt 0.2083333 0
vt 0.2083333 1
vt 0.1875 0
vt 0.1875 1
vt 0.1666666 0
vt 0.1666666 1
vt 0.1458333 0
vt 0.1458333 1
vt 0.125 0
vt 0.125 1
vt 0.1041666 0
vt 0.1041666 1
vt 0.08333331 0
vt 0.08333331 1
vt 0.06249999 0
vt 0.06249999 1
vt 0.04166666 0
vt 0.04166666 1
vt 0.02083333 0
vt 0.02083333 1
vt -5.960464E-08 0
vt -5.960464E-08 1
vn 0.1152188 0.8751739 -0.4698885
vn 0 0.8827257 -0.4698885
vn 0 0.8827258 -0.4698885
vn 0.1152188 0.8751739 -0.4698885
vn 0.2284662 0.8526476 -0.4698885
vn 0.2284662 0.8526476 -0.4698885
vn 0.3378039 0.8155325 -0.4698885
vn 0.337804 0.8155326 -0.4698885
vn 0.4413634 0.7644627 -0.4698886
vn 0.4413634 0.7644627 -0.4698886
vn 0.5373698 0.7003132 -0.4698884
vn 0.5373697 0.7003132 -0.4698884
vn 0.6241813 0.6241814 -0.4698886
vn 0.6241813 0.6241814 -0.4698886
vn 0.7003135 0.5373693 -0.4698886
vn 0.7003135 0.5373693 -0.4698886
vn 0.7644628 0.441363 -0.4698886
vn 0.7644628 0.441363 -0.4698886
vn 0.8155324 0.3378043 -0.4698885
vn 0.8155323 0.3378043 -0.4698885
vn 0.8526476 0.2284661 -0.4698885
vn 0.8526476 0.2284661 -0.4698885
vn 0.8751739 0.1152187 -0.4698885
vn 0.8751739 0.1152187 -0.4698885
vn 0.8827257 0 -0.4698885
vn 0.8827257 0 -0.4698885
vn 0.8751742 -0.1152163 -0.4698886
vn 0.8751742 -0.1152163 -0.4698886
vn 0.8526481 -0.2284643 -0.4698886
vn 0.8526481 -0.2284643 -0.4698886
vn 0.815533 -0.3378029 -0.4698886
vn 0.815533 -0.3378029 -0.4698886
vn 0.7644637 -0.4413616 -0.4698885
vn 0.7644637 -0.4413616 -0.4698885
vn 0.7003147 -0.537368 -0.4698884
vn 0.7003147 -0.5373679 -0.4698884
vn 0.6241828 -0.6241801 -0.4698885
vn 0.6241828 -0.62418 -0.4698885
vn 0.5373706 -0.7003125 -0.4698884
vn 0.5373706 -0.7003126 -0.4698884
vn 0.4413639 -0.7644624 -0.4698884
vn 0.4413638 -0.7644624 -0.4698884
vn 0.3378054 -0.8155319 -0.4698884
vn 0.3378054 -0.8155319 -0.4698884
vn 0.2284672 -0.8526474 -0.4698885
vn 0.2284672 -0.8526474 -0.4698885
vn 0.1152193 -0.8751739 -0.4698885
vn 0.1152193 -0.8751739 -0.4698884
vn 0 -0.8827258 -0.4698884
vn 0 -0.8827257 -0.4698885
vn -0.1152186 -0.8751739 -0.4698885
vn -0.1152186 -0.8751739 -0.4698884
vn -0.2284662 -0.8526477 -0.4698884
vn -0.2284662 -0.8526476 -0.4698885
vn -0.3378048 -0.8155321 -0.4698885
vn -0.3378048 -0.8155321 -0.4698885
vn -0.4413633 -0.7644628 -0.4698885
vn -0.4413633 -0.7644628 -0.4698885
vn -0.5373694 -0.7003134 -0.4698885
vn -0.5373695 -0.7003134 -0.4698885
vn -0.6241818 -0.624181 -0.4698884
vn -0.6241818 -0.624181 -0.4698885
vn -0.700314 -0.5373688 -0.4698884
vn -0.700314 -0.5373688 -0.4698883
vn -0.7644631 -0.4413629 -0.4698884
vn -0.7644631 -0.4413629 -0.4698884
vn -0.8155323 -0.3378047 -0.4698884
vn -0.8155323 -0.3378047 -0.4698884
vn -0.8526478 -0.2284659 -0.4698884
vn -0.8526477 -0.2284659 -0.4698884
vn -0.875174 -0.1152181 -0.4698885
vn -0.875174 -0.1152181 -0.4698884
vn -0.8827258 0 -0.4698884
vn -0.8827258 0 -0.4698884
vn -0.8751739 0.115219 -0.4698884
vn -0.8751739 0.115219 -0.4698884
vn -0.8526477 0.2284659 -0.4698885
vn -0.8526477 0.2284659 -0.4698884
vn -0.8155321 0.3378049 -0.4698885
vn -0.8155321 0.3378049 -0.4698885
vn -0.7644624 0.4413638 -0.4698885
vn -0.7644624 0.4413638 -0.4698885
vn -0.7003135 0.5373694 -0.4698884
vn -0.7003135 0.5373694 -0.4698884
vn -0.624182 0.6241807 -0.4698884
vn -0.624182 0.6241808 -0.4698884
vn -0.5373694 0.7003134 -0.4698886
vn -0.5373694 0.7003134 -0.4698886
vn -0.441362 0.7644634 -0.4698885
vn -0.441362 0.7644634 -0.4698886
vn -0.3378041 0.8155324 -0.4698885
vn -0.3378041 0.8155324 -0.4698885
vn -0.2284658 0.8526477 -0.4698885
vn -0.2284658 0.8526477 -0.4698885
vn -0.1152182 0.8751739 -0.4698885
vn -0.1152182 0.8751739 -0.4698885
vn 0 0.8827258 -0.4698885
vn 0 0.8827257 -0.4698885
g SM_VFX_Dragon_Medium_Cylinder_Taper_0
f 3/3/3 2/2/2 1/1/1
f 2/2/2 4/4/4 1/1/1
f 1/1/1 4/4/4 5/5/5
f 4/4/4 6/6/6 5/5/5
f 5/5/5 6/6/6 7/7/7
f 6/6/6 8/8/8 7/7/7
f 7/7/7 8/8/8 9/9/9
f 8/8/8 10/10/10 9/9/9
f 9/9/9 10/10/10 11/11/11
f 10/10/10 12/12/12 11/11/11
f 11/11/11 12/12/12 13/13/13
f 12/12/12 14/14/14 13/13/13
f 13/13/13 14/14/14 15/15/15
f 14/14/14 16/16/16 15/15/15
f 15/15/15 16/16/16 17/17/17
f 16/16/16 18/18/18 17/17/17
f 17/17/17 18/18/18 19/19/19
f 18/18/18 20/20/20 19/19/19
f 19/19/19 20/20/20 21/21/21
f 20/20/20 22/22/22 21/21/21
f 21/21/21 22/22/22 23/23/23
f 22/22/22 24/24/24 23/23/23
f 23/23/23 24/24/24 25/25/25
f 24/24/24 26/26/26 25/25/25
f 25/25/25 26/26/26 27/27/27
f 26/26/26 28/28/28 27/27/27
f 27/27/27 28/28/28 29/29/29
f 28/28/28 30/30/30 29/29/29
f 29/29/29 30/30/30 31/31/31
f 30/30/30 32/32/32 31/31/31
f 31/31/31 32/32/32 33/33/33
f 32/32/32 34/34/34 33/33/33
f 33/33/33 34/34/34 35/35/35
f 34/34/34 36/36/36 35/35/35
f 35/35/35 36/36/36 37/37/37
f 36/36/36 38/38/38 37/37/37
f 37/37/37 38/38/38 39/39/39
f 38/38/38 40/40/40 39/39/39
f 39/39/39 40/40/40 41/41/41
f 40/40/40 42/42/42 41/41/41
f 41/41/41 42/42/42 43/43/43
f 42/42/42 44/44/44 43/43/43
f 43/43/43 44/44/44 45/45/45
f 44/44/44 46/46/46 45/45/45
f 45/45/45 46/46/46 47/47/47
f 46/46/46 48/48/48 47/47/47
f 47/47/47 48/48/48 49/49/49
f 48/48/48 50/50/50 49/49/49
f 49/49/49 50/50/50 51/51/51
f 50/50/50 52/52/52 51/51/51
f 51/51/51 52/52/52 53/53/53
f 52/52/52 54/54/54 53/53/53
f 53/53/53 54/54/54 55/55/55
f 54/54/54 56/56/56 55/55/55
f 55/55/55 56/56/56 57/57/57
f 56/56/56 58/58/58 57/57/57
f 57/57/57 58/58/58 59/59/59
f 58/58/58 60/60/60 59/59/59
f 59/59/59 60/60/60 61/61/61
f 60/60/60 62/62/62 61/61/61
f 61/61/61 62/62/62 63/63/63
f 62/62/62 64/64/64 63/63/63
f 63/63/63 64/64/64 65/65/65
f 64/64/64 66/66/66 65/65/65
f 65/65/65 66/66/66 67/67/67
f 66/66/66 68/68/68 67/67/67
f 67/67/67 68/68/68 69/69/69
f 68/68/68 70/70/70 69/69/69
f 69/69/69 70/70/70 71/71/71
f 70/70/70 72/72/72 71/71/71
f 71/71/71 72/72/72 73/73/73
f 72/72/72 74/74/74 73/73/73
f 73/73/73 74/74/74 75/75/75
f 74/74/74 76/76/76 75/75/75
f 75/75/75 76/76/76 77/77/77
f 76/76/76 78/78/78 77/77/77
f 77/77/77 78/78/78 79/79/79
f 78/78/78 80/80/80 79/79/79
f 79/79/79 80/80/80 81/81/81
f 80/80/80 82/82/82 81/81/81
f 81/81/81 82/82/82 83/83/83
f 82/82/82 84/84/84 83/83/83
f 83/83/83 84/84/84 85/85/85
f 84/84/84 86/86/86 85/85/85
f 85/85/85 86/86/86 87/87/87
f 86/86/86 88/88/88 87/87/87
f 87/87/87 88/88/88 89/89/89
f 88/88/88 90/90/90 89/89/89
f 89/89/89 90/90/90 91/91/91
f 90/90/90 92/92/92 91/91/91
f 91/91/91 92/92/92 93/93/93
f 92/92/92 94/94/94 93/93/93
f 93/93/93 94/94/94 95/95/95
f 94/94/94 96/96/96 95/95/95
f 95/95/95 96/96/96 97/97/97
f 96/96/96 98/98/98 97/97/97
