g SM_VFX_Lightbeam_1
v 0.703097 1.525814 0.3510497
v 2.542995 5.188499 1.630249
v 1.394397 1.403919 0.3510497
v 1.607789 5.353401 1.630249
v 0.07145828 1.637189 0.3510497
v 3.691593 8.97308 2.909449
v 0.7532936 5.504072 1.630249
v -0.5553351 1.74771 0.3510497
v 2.512481 9.180988 2.909449
v 4.84019 12.75766 4.188648
v -0.0946461 5.653586 1.630249
v -1.251481 1.870459 0.3510497
v -1.036408 5.819644 1.630249
v 3.417172 13.00857 4.188647
v 5.988789 16.54224 5.467847
v 1.435129 9.370955 2.909449
v 0.3660424 9.559464 2.909449
v -0.8213346 9.76883 2.909449
v 4.321865 16.83616 5.467846
v 7.137386 20.32682 6.747046
v 5.226557 20.66375 6.747046
v 2.116964 13.23783 4.188648
v 0.8267312 13.46534 4.188647
v -0.6062615 13.71801 4.188648
v 2.7988 17.10472 5.467847
v 3.480636 20.9716 6.747046
v 1.28742 17.37121 5.467847
v -0.3911881 17.6672 5.467847
v 1.74811 21.27709 6.747046
v -0.1761146 21.61638 6.747046
v -1.014952 -1.525226 0.05236554
v -0.8532753 -5.599424 0.392046
v -1.727727 -1.784654 0.05236506
v 0.1052219 -5.277151 0.3942325
v -0.3636915 -1.288186 0.05236578
v 0.02117682 -9.414191 0.7317266
v 0.9809979 -4.982691 0.3962295
v 0.282572 -1.052966 0.0523653
v 1.225396 -9.029074 0.7360992
v 0.8956289 -13.22896 1.071407
v 1.850055 -4.690488 0.3982129
v 1.000343 -0.7917191 0.0523653
v 2.81527 -4.365959 0.400413
v 2.34557 -12.781 1.077966
v 1.770081 -17.04373 1.411087
v 2.325687 -8.677193 0.7400942
v 3.417537 -8.328012 0.7440591
v 4.630197 -7.9402 0.7484615
v 3.465744 -16.53292 1.419834
v 2.644534 -20.8585 1.75077
v 4.585919 -20.28485 1.761701
v 3.670377 -12.3717 1.083958
v 4.98502 -11.96554 1.089904
v 6.445127 -11.51443 1.096509
v 5.015068 -16.0662 1.427823
v 6.359757 -19.76071 1.771687
v 6.552504 -15.60306 1.43575
v 8.260054 -15.08868 1.444557
v 8.119987 -19.24059 1.781597
v 10.07498 -18.66291 1.792606
vt 0.7387257 0
vt 1 0.2
vt 1 0
vt 0.7387257 0.2
vt 0.5 0
vt 1 0.4
vt 0.5 0.2
vt 0.2631058 -2.653983E-09
vt 0.7387257 0.4
vt 1 0.6
vt 0.2631058 0.2
vt 0 0
vt 0 0.2
vt 0.7387257 0.6
vt 1 0.8
vt 0.5 0.4
vt 0.2631058 0.4
vt 0 0.4
vt 0.7387257 0.8
vt 1 1
vt 0.7387257 1
vt 0.5 0.6
vt 0.2631058 0.6
vt 0 0.6
vt 0.5 0.8
vt 0.5 1
vt 0.2631058 0.8
vt 0 0.8
vt 0.2631058 1
vt 0 1
vt 0.7387257 0
vt 1 0.2
vt 1 0
vt 0.7387257 0.2
vt 0.5 0
vt 1 0.4
vt 0.5 0.2
vt 0.2631058 -2.653983E-09
vt 0.7387257 0.4
vt 1 0.6
vt 0.2631058 0.2
vt 0 0
vt 0 0.2
vt 0.7387257 0.6
vt 1 0.8
vt 0.5 0.4
vt 0.2631058 0.4
vt 0 0.4
vt 0.7387257 0.8
vt 1 1
vt 0.7387257 1
vt 0.5 0.6
vt 0.2631058 0.6
vt 0 0.6
vt 0.5 0.8
vt 0.5 1
vt 0.2631058 0.8
vt 0 0.8
vt 0.2631058 1
vt 0 1
vn -0.05378914 -0.3050536 0.950815
vn -0.05378908 -0.3050536 0.950815
vn -0.05378913 -0.3050536 0.950815
vn -0.05378914 -0.3050537 0.9508149
vn -0.05378916 -0.3050536 0.9508149
vn -0.05378911 -0.3050537 0.9508149
vn -0.05378916 -0.3050536 0.9508149
vn -0.05378916 -0.3050536 0.950815
vn -0.05378911 -0.3050537 0.9508149
vn -0.05378923 -0.3050536 0.9508149
vn -0.05378916 -0.3050536 0.950815
vn -0.05378914 -0.3050536 0.950815
vn -0.05378918 -0.3050536 0.950815
vn -0.05378909 -0.3050536 0.950815
vn -0.05378927 -0.3050537 0.9508149
vn -0.05378918 -0.3050536 0.9508149
vn -0.05378922 -0.3050536 0.9508149
vn -0.05378918 -0.3050536 0.950815
vn -0.05378913 -0.3050537 0.9508149
vn -0.05378925 -0.3050537 0.9508149
vn -0.05378914 -0.3050537 0.9508149
vn -0.05378914 -0.3050536 0.9508149
vn -0.05378921 -0.3050537 0.9508149
vn -0.05378906 -0.3050537 0.9508149
vn -0.05378914 -0.3050536 0.9508149
vn -0.05378916 -0.3050536 0.9508149
vn -0.05378911 -0.3050537 0.9508149
vn -0.05378892 -0.3050537 0.950815
vn -0.05378906 -0.3050536 0.950815
vn -0.05378885 -0.3050536 0.950815
vn -0.02980028 0.08187404 0.9961971
vn -0.02980077 0.08187388 0.9961971
vn -0.02980057 0.08187395 0.9961971
vn -0.02980049 0.08187401 0.9961971
vn -0.02980039 0.08187414 0.9961971
vn -0.02980094 0.08187377 0.9961971
vn -0.02980071 0.08187405 0.9961971
vn -0.02980017 0.08187453 0.9961971
vn -0.02980084 0.08187386 0.9961971
vn -0.02980141 0.08187365 0.9961971
vn -0.02980042 0.08187437 0.9961971
vn -0.02979952 0.08187492 0.9961971
vn -0.02979965 0.08187477 0.9961971
vn -0.02980119 0.0818738 0.9961971
vn -0.02980195 0.08187368 0.9961971
vn -0.02980104 0.08187384 0.9961971
vn -0.02980081 0.08187405 0.9961971
vn -0.02980038 0.0818743 0.9961971
vn -0.02980138 0.08187383 0.9961971
vn -0.02980204 0.08187378 0.9961971
vn -0.02980136 0.08187383 0.9961971
vn -0.02980099 0.08187389 0.9961971
vn -0.0298011 0.08187387 0.9961971
vn -0.02980127 0.08187384 0.9961971
vn -0.02980089 0.08187397 0.9961971
vn -0.02980086 0.08187389 0.9961971
vn -0.02980137 0.08187383 0.9961971
vn -0.02980181 0.08187372 0.9961971
vn -0.02980155 0.08187381 0.9961971
vn -0.029802 0.08187373 0.9961971
g SM_VFX_Lightbeam_1_0
f 3/3/3 2/2/2 1/1/1
f 2/2/2 4/4/4 1/1/1
f 1/1/1 4/4/4 5/5/5
f 2/2/2 6/6/6 4/4/4
f 4/4/4 7/7/7 5/5/5
f 5/5/5 7/7/7 8/8/8
f 6/6/6 9/9/9 4/4/4
f 4/4/4 9/9/9 7/7/7
f 6/6/6 10/10/10 9/9/9
f 7/7/7 11/11/11 8/8/8
f 8/8/8 11/11/11 12/12/12
f 11/11/11 13/13/13 12/12/12
f 10/10/10 14/14/14 9/9/9
f 14/14/14 10/10/10 15/15/15
f 9/9/9 16/16/16 7/7/7
f 7/7/7 16/16/16 11/11/11
f 9/9/9 14/14/14 16/16/16
f 11/11/11 17/17/17 13/13/13
f 16/16/16 17/17/17 11/11/11
f 17/17/17 18/18/18 13/13/13
f 19/19/19 14/14/14 15/15/15
f 19/19/19 15/15/15 20/20/20
f 21/21/21 19/19/19 20/20/20
f 14/14/14 22/22/22 16/16/16
f 16/16/16 22/22/22 17/17/17
f 22/22/22 14/14/14 19/19/19
f 18/18/18 17/17/17 23/23/23
f 22/22/22 23/23/23 17/17/17
f 24/24/24 18/18/18 23/23/23
f 25/25/25 19/19/19 21/21/21
f 25/25/25 22/22/22 19/19/19
f 23/23/23 22/22/22 25/25/25
f 26/26/26 25/25/25 21/21/21
f 24/24/24 23/23/23 27/27/27
f 27/27/27 23/23/23 25/25/25
f 27/27/27 25/25/25 26/26/26
f 28/28/28 24/24/24 27/27/27
f 29/29/29 27/27/27 26/26/26
f 28/28/28 27/27/27 29/29/29
f 30/30/30 28/28/28 29/29/29
f 33/33/33 32/32/32 31/31/31
f 32/32/32 34/34/34 31/31/31
f 31/31/31 34/34/34 35/35/35
f 32/32/32 36/36/36 34/34/34
f 34/34/34 37/37/37 35/35/35
f 35/35/35 37/37/37 38/38/38
f 36/36/36 39/39/39 34/34/34
f 34/34/34 39/39/39 37/37/37
f 36/36/36 40/40/40 39/39/39
f 37/37/37 41/41/41 38/38/38
f 38/38/38 41/41/41 42/42/42
f 41/41/41 43/43/43 42/42/42
f 40/40/40 44/44/44 39/39/39
f 44/44/44 40/40/40 45/45/45
f 39/39/39 46/46/46 37/37/37
f 37/37/37 46/46/46 41/41/41
f 39/39/39 44/44/44 46/46/46
f 41/41/41 47/47/47 43/43/43
f 46/46/46 47/47/47 41/41/41
f 47/47/47 48/48/48 43/43/43
f 49/49/49 44/44/44 45/45/45
f 49/49/49 45/45/45 50/50/50
f 51/51/51 49/49/49 50/50/50
f 44/44/44 52/52/52 46/46/46
f 46/46/46 52/52/52 47/47/47
f 52/52/52 44/44/44 49/49/49
f 48/48/48 47/47/47 53/53/53
f 52/52/52 53/53/53 47/47/47
f 54/54/54 48/48/48 53/53/53
f 55/55/55 49/49/49 51/51/51
f 55/55/55 52/52/52 49/49/49
f 53/53/53 52/52/52 55/55/55
f 56/56/56 55/55/55 51/51/51
f 54/54/54 53/53/53 57/57/57
f 57/57/57 53/53/53 55/55/55
f 57/57/57 55/55/55 56/56/56
f 58/58/58 54/54/54 57/57/57
f 59/59/59 57/57/57 56/56/56
f 58/58/58 57/57/57 59/59/59
f 60/60/60 58/58/58 59/59/59
