g SM_VFX_Colorless_Pokeball_Energy
v 4.344182E-07 1.7555 8.940697E-08
v 0.1720695 1.747047 8.940697E-08
v 0.09801714 0.9951847 1.788139E-07
v 0 1 1.788139E-07
v 0.1720695 1.747047 8.940697E-08
v 0.3424814 1.721768 8.940697E-08
v 0.1950903 0.9807853 1.788139E-07
v 0.09801714 0.9951847 1.788139E-07
v 0.3424814 1.721768 8.940697E-08
v 0.5095951 1.679909 8.940697E-08
v 0.2902847 0.9569404 1.788139E-07
v 0.1950903 0.9807853 1.788139E-07
v 0.5095951 1.679909 8.940697E-08
v 0.6718011 1.62187 8.940697E-08
v 0.3826835 0.9238795 1.788139E-07
v 0.2902847 0.9569404 1.788139E-07
v 0.6718011 1.62187 8.940697E-08
v 0.8275372 1.548213 8.940697E-08
v 0.4713967 0.8819212 1.788139E-07
v 0.3826835 0.9238795 1.788139E-07
v 0.8275372 1.548213 8.940697E-08
v 0.9753038 1.459645 8.940697E-08
v 0.5555702 0.8314696 1.788139E-07
v 0.4713967 0.8819212 1.788139E-07
v 0.9753038 1.459645 8.940697E-08
v 1.113678 1.35702 8.940697E-08
v 0.6343933 0.7730105 1.788139E-07
v 0.5555702 0.8314696 1.788139E-07
v 1.113678 1.35702 8.940697E-08
v 1.241326 1.241326 8.940697E-08
v 0.7071068 0.7071068 1.788139E-07
v 0.6343933 0.7730105 1.788139E-07
v 1.241326 1.241326 8.940697E-08
v 1.35702 1.113677 8.940697E-08
v 0.7730104 0.6343933 1.788139E-07
v 0.7071068 0.7071068 1.788139E-07
v 1.35702 1.113677 8.940697E-08
v 1.459645 0.9753037 8.940697E-08
v 0.8314696 0.5555703 1.788139E-07
v 0.7730104 0.6343933 1.788139E-07
v 1.459645 0.9753037 8.940697E-08
v 1.548213 0.8275371 8.940697E-08
v 0.8819212 0.4713968 1.788139E-07
v 0.8314696 0.5555703 1.788139E-07
v 1.548213 0.8275371 8.940697E-08
v 1.621871 0.6718008 8.940697E-08
v 0.9238795 0.3826834 1.788139E-07
v 0.8819212 0.4713968 1.788139E-07
v 1.621871 0.6718008 8.940697E-08
v 1.679909 0.5095947 8.940697E-08
v 0.9569404 0.2902846 1.788139E-07
v 0.9238795 0.3826834 1.788139E-07
v 1.679909 0.5095947 8.940697E-08
v 1.721769 0.342481 8.940697E-08
v 0.9807853 0.1950902 1.788139E-07
v 0.9569404 0.2902846 1.788139E-07
v 1.721769 0.342481 8.940697E-08
v 1.747047 0.172069 8.940697E-08
v 0.9951847 0.09801701 1.788139E-07
v 0.9807853 0.1950902 1.788139E-07
v 1.747047 0.172069 8.940697E-08
v 1.7555 -1.196355E-07 8.940697E-08
v 1 -1.629207E-07 1.788139E-07
v 0.9951847 0.09801701 1.788139E-07
v 1.7555 -1.196355E-07 8.940697E-08
v 1.747047 -0.1720693 8.940697E-08
v 0.9951847 -0.09801734 1.788139E-07
v 1 -1.629207E-07 1.788139E-07
v 1.747047 -0.1720693 8.940697E-08
v 1.721769 -0.3424813 8.940697E-08
v 0.9807853 -0.1950906 1.788139E-07
v 0.9951847 -0.09801734 1.788139E-07
v 1.721769 -0.3424813 8.940697E-08
v 1.679909 -0.509595 8.940697E-08
v 0.9569402 -0.290285 1.788139E-07
v 0.9807853 -0.1950906 1.788139E-07
v 1.679909 -0.509595 8.940697E-08
v 1.621871 -0.671801 8.940697E-08
v 0.9238794 -0.3826837 1.788139E-07
v 0.9569402 -0.290285 1.788139E-07
v 1.621871 -0.671801 8.940697E-08
v 1.548213 -0.8275372 8.940697E-08
v 0.8819211 -0.471397 1.788139E-07
v 0.9238794 -0.3826837 1.788139E-07
v 1.548213 -0.8275372 8.940697E-08
v 1.459645 -0.9753037 8.940697E-08
v 0.8314694 -0.5555705 1.788139E-07
v 0.8819211 -0.471397 1.788139E-07
v 1.459645 -0.9753037 8.940697E-08
v 1.35702 -1.113678 8.940697E-08
v 0.7730102 -0.6343936 1.788139E-07
v 0.8314694 -0.5555705 1.788139E-07
v 1.35702 -1.113678 8.940697E-08
v 1.241325 -1.241326 8.940697E-08
v 0.7071065 -0.7071071 1.788139E-07
v 0.7730102 -0.6343936 1.788139E-07
v 1.241325 -1.241326 8.940697E-08
v 1.113677 -1.35702 8.940697E-08
v 0.6343929 -0.7730108 1.788139E-07
v 0.7071065 -0.7071071 1.788139E-07
v 1.113677 -1.35702 8.940697E-08
v 0.975303 -1.459645 8.940697E-08
v 0.5555698 -0.83147 1.788139E-07
v 0.6343929 -0.7730108 1.788139E-07
v 0.975303 -1.459645 8.940697E-08
v 0.8275363 -1.548213 8.940697E-08
v 0.4713962 -0.8819215 1.788139E-07
v 0.5555698 -0.83147 1.788139E-07
v 0.8275363 -1.548213 8.940697E-08
v 0.6718 -1.621871 8.940697E-08
v 0.3826828 -0.9238798 1.788139E-07
v 0.4713962 -0.8819215 1.788139E-07
v 0.6718 -1.621871 8.940697E-08
v 0.509594 -1.679909 8.940697E-08
v 0.290284 -0.9569405 1.788139E-07
v 0.3826828 -0.9238798 1.788139E-07
v 0.509594 -1.679909 8.940697E-08
v 0.3424802 -1.721768 8.940697E-08
v 0.1950896 -0.9807854 1.788139E-07
v 0.290284 -0.9569405 1.788139E-07
v 0.3424802 -1.721768 8.940697E-08
v 0.1720682 -1.747046 8.940697E-08
v 0.09801638 -0.9951848 1.788139E-07
v 0.1950896 -0.9807854 1.788139E-07
v 0.1720682 -1.747046 8.940697E-08
v -9.746838E-07 -1.755499 8.940697E-08
v -8.026785E-07 -1 1.788139E-07
v 0.09801638 -0.9951848 1.788139E-07
v -9.746838E-07 -1.755499 8.940697E-08
v -0.1720701 -1.747046 8.940697E-08
v -0.09801798 -0.9951847 1.788139E-07
v -8.026785E-07 -1 1.788139E-07
v -0.1720701 -1.747046 8.940697E-08
v -0.3424821 -1.721768 8.940697E-08
v -0.1950912 -0.9807851 1.788139E-07
v -0.09801798 -0.9951847 1.788139E-07
v -0.3424821 -1.721768 8.940697E-08
v -0.5095958 -1.679908 8.940697E-08
v -0.2902856 -0.9569401 1.788139E-07
v -0.1950912 -0.9807851 1.788139E-07
v -0.5095958 -1.679908 8.940697E-08
v -0.6718017 -1.621869 8.940697E-08
v -0.3826843 -0.9238791 1.788139E-07
v -0.2902856 -0.9569401 1.788139E-07
v -0.6718017 -1.621869 8.940697E-08
v -0.827538 -1.548211 8.940697E-08
v -0.4713976 -0.8819208 1.788139E-07
v -0.3826843 -0.9238791 1.788139E-07
v -0.827538 -1.548211 8.940697E-08
v -0.9753044 -1.459643 8.940697E-08
v -0.5555711 -0.8314691 1.788139E-07
v -0.4713976 -0.8819208 1.788139E-07
v -0.9753044 -1.459643 8.940697E-08
v -1.113678 -1.357018 8.940697E-08
v -0.6343941 -0.7730098 1.788139E-07
v -0.5555711 -0.8314691 1.788139E-07
v -1.113678 -1.357018 8.940697E-08
v -1.241327 -1.241324 8.940697E-08
v -0.7071076 -0.707106 1.788139E-07
v -0.6343941 -0.7730098 1.788139E-07
v -1.241327 -1.241324 8.940697E-08
v -1.35702 -1.113676 8.940697E-08
v -0.773011 -0.6343926 1.788139E-07
v -0.7071076 -0.707106 1.788139E-07
v -1.35702 -1.113676 8.940697E-08
v -1.459645 -0.9753022 8.940697E-08
v -0.83147 -0.5555696 1.788139E-07
v -0.773011 -0.6343926 1.788139E-07
v -1.459645 -0.9753022 8.940697E-08
v -1.548213 -0.8275358 8.940697E-08
v -0.8819215 -0.4713963 1.788139E-07
v -0.83147 -0.5555696 1.788139E-07
v -1.548213 -0.8275358 8.940697E-08
v -1.62187 -0.6718 8.940697E-08
v -0.9238797 -0.3826831 1.788139E-07
v -0.8819215 -0.4713963 1.788139E-07
v -1.62187 -0.6718 8.940697E-08
v -1.679908 -0.5095943 8.940697E-08
v -0.9569404 -0.2902845 1.788139E-07
v -0.9238797 -0.3826831 1.788139E-07
v -1.679908 -0.5095943 8.940697E-08
v -1.721768 -0.342481 8.940697E-08
v -0.9807853 -0.1950904 1.788139E-07
v -0.9569404 -0.2902845 1.788139E-07
v -1.721768 -0.342481 8.940697E-08
v -1.747046 -0.1720694 8.940697E-08
v -0.9951847 -0.0980174 1.788139E-07
v -0.9807853 -0.1950904 1.788139E-07
v -1.747046 -0.1720694 8.940697E-08
v -1.755499 -6.497816E-07 8.940697E-08
v -1 -4.649123E-07 1.788139E-07
v -0.9951847 -0.0980174 1.788139E-07
v -1.755499 -6.497816E-07 8.940697E-08
v -1.747046 0.1720681 8.940697E-08
v -0.9951848 0.09801648 1.788139E-07
v -1 -4.649123E-07 1.788139E-07
v -1.747046 0.1720681 8.940697E-08
v -1.721768 0.3424796 8.940697E-08
v -0.9807854 0.1950895 1.788139E-07
v -0.9951848 0.09801648 1.788139E-07
v -1.721768 0.3424796 8.940697E-08
v -1.679909 0.509593 8.940697E-08
v -0.9569407 0.2902837 1.788139E-07
v -0.9807854 0.1950895 1.788139E-07
v -1.679909 0.509593 8.940697E-08
v -1.621871 0.6717988 8.940697E-08
v -0.92388 0.3826823 1.788139E-07
v -0.9569407 0.2902837 1.788139E-07
v -1.621871 0.6717988 8.940697E-08
v -1.548213 0.8275348 8.940697E-08
v -0.8819219 0.4713955 1.788139E-07
v -0.92388 0.3826823 1.788139E-07
v -1.548213 0.8275348 8.940697E-08
v -1.459646 0.9753011 8.940697E-08
v -0.8314705 0.5555689 1.788139E-07
v -0.8819219 0.4713955 1.788139E-07
v -1.459646 0.9753011 8.940697E-08
v -1.357021 1.113675 8.940697E-08
v -0.7730116 0.6343918 1.788139E-07
v -0.8314705 0.5555689 1.788139E-07
v -1.357021 1.113675 8.940697E-08
v -1.241328 1.241323 8.940697E-08
v -0.7071083 0.7071053 1.788139E-07
v -0.7730116 0.6343918 1.788139E-07
v -1.241328 1.241323 8.940697E-08
v -1.11368 1.357017 8.940697E-08
v -0.634395 0.773009 1.788139E-07
v -0.7071083 0.7071053 1.788139E-07
v -1.11368 1.357017 8.940697E-08
v -0.9753065 1.459642 8.940697E-08
v -0.5555723 0.8314682 1.788139E-07
v -0.634395 0.773009 1.788139E-07
v -0.9753065 1.459642 8.940697E-08
v -0.8275405 1.548211 8.940697E-08
v -0.4713991 0.88192 1.788139E-07
v -0.5555723 0.8314682 1.788139E-07
v -0.8275405 1.548211 8.940697E-08
v -0.6718048 1.621868 8.940697E-08
v -0.382686 0.9238784 1.788139E-07
v -0.4713991 0.88192 1.788139E-07
v -0.6718048 1.621868 8.940697E-08
v -0.5095993 1.679907 8.940697E-08
v -0.2902876 0.9569395 1.788139E-07
v -0.382686 0.9238784 1.788139E-07
v -0.5095993 1.679907 8.940697E-08
v -0.3424862 1.721767 8.940697E-08
v -0.1950935 0.9807847 1.788139E-07
v -0.2902876 0.9569395 1.788139E-07
v -0.3424862 1.721767 8.940697E-08
v -0.1720746 1.747046 8.940697E-08
v -0.09802057 0.9951844 1.788139E-07
v -0.1950935 0.9807847 1.788139E-07
v -0.1720746 1.747046 8.940697E-08
v 4.344182E-07 1.7555 8.940697E-08
v 0 1 1.788139E-07
v -0.09802057 0.9951844 1.788139E-07
vt 0 1
vt 0.015625 1
vt 0.015625 0.001708031
vt 1.192093E-07 0.001708031
vt 0.015625 1
vt 0.03125 1
vt 0.03125 0.001708031
vt 0.015625 0.001708031
vt 0.03125 1
vt 0.046875 1
vt 0.046875 0.001708031
vt 0.03125 0.001708031
vt 0.046875 1
vt 0.0625 1
vt 0.0625 0.001708031
vt 0.046875 0.001708031
vt 0.0625 1
vt 0.078125 1
vt 0.078125 0.001708031
vt 0.0625 0.001708031
vt 0.078125 1
vt 0.09375 1
vt 0.09375 0.001708031
vt 0.078125 0.001708031
vt 0.09375 1
vt 0.109375 1
vt 0.109375 0.001708031
vt 0.09375 0.001708031
vt 0.109375 1
vt 0.125 1
vt 0.125 0.001708031
vt 0.109375 0.001708031
vt 0.125 1
vt 0.140625 1
vt 0.140625 0.001708031
vt 0.125 0.001708031
vt 0.140625 1
vt 0.15625 1
vt 0.15625 0.001708031
vt 0.140625 0.001708031
vt 0.15625 1
vt 0.171875 1
vt 0.171875 0.001708031
vt 0.15625 0.001708031
vt 0.171875 1
vt 0.1875 1
vt 0.1875 0.001708031
vt 0.171875 0.001708031
vt 0.1875 1
vt 0.203125 1
vt 0.203125 0.001708031
vt 0.1875 0.001708031
vt 0.203125 1
vt 0.21875 1
vt 0.21875 0.001708984
vt 0.203125 0.001708031
vt 0.21875 1
vt 0.234375 1
vt 0.234375 0.001708984
vt 0.21875 0.001708984
vt 0.234375 1
vt 0.25 1
vt 0.25 0.001708984
vt 0.234375 0.001708984
vt 0.25 1
vt 0.265625 1
vt 0.265625 0.001708984
vt 0.25 0.001708984
vt 0.265625 1
vt 0.28125 1
vt 0.28125 0.001708984
vt 0.265625 0.001708984
vt 0.28125 1
vt 0.296875 1
vt 0.296875 0.001708984
vt 0.28125 0.001708984
vt 0.296875 1
vt 0.3125 1
vt 0.3125 0.001708984
vt 0.296875 0.001708984
vt 0.3125 1
vt 0.328125 1
vt 0.328125 0.001708984
vt 0.3125 0.001708984
vt 0.328125 1
vt 0.34375 1
vt 0.34375 0.001708984
vt 0.328125 0.001708984
vt 0.34375 1
vt 0.359375 1
vt 0.359375 0.001708984
vt 0.34375 0.001708984
vt 0.359375 1
vt 0.375 1
vt 0.375 0.001708984
vt 0.359375 0.001708984
vt 0.375 1
vt 0.390625 1
vt 0.390625 0.001708984
vt 0.375 0.001708984
vt 0.390625 1
vt 0.40625 1
vt 0.40625 0.001708984
vt 0.390625 0.001708984
vt 0.40625 1
vt 0.421875 1
vt 0.421875 0.001708984
vt 0.40625 0.001708984
vt 0.421875 1
vt 0.4375 1
vt 0.4375 0.001708984
vt 0.421875 0.001708984
vt 0.4375 1
vt 0.453125 1
vt 0.453125 0.001708984
vt 0.4375 0.001708984
vt 0.453125 1
vt 0.46875 1
vt 0.46875 0.001708984
vt 0.453125 0.001708984
vt 0.46875 1
vt 0.484375 1
vt 0.484375 0.001708984
vt 0.46875 0.001708984
vt 0.484375 1
vt 0.5 1
vt 0.5 0.001708984
vt 0.484375 0.001708984
vt 0.5 1
vt 0.515625 1
vt 0.515625 0.001708984
vt 0.5 0.001708984
vt 0.515625 1
vt 0.53125 1
vt 0.53125 0.001708984
vt 0.515625 0.001708984
vt 0.53125 1
vt 0.546875 1
vt 0.546875 0.001708984
vt 0.53125 0.001708984
vt 0.546875 1
vt 0.5625 1
vt 0.5625 0.001708984
vt 0.546875 0.001708984
vt 0.5625 1
vt 0.578125 1
vt 0.578125 0.001708984
vt 0.5625 0.001708984
vt 0.578125 1
vt 0.59375 1
vt 0.59375 0.001708984
vt 0.578125 0.001708984
vt 0.59375 1
vt 0.609375 1
vt 0.609375 0.001708984
vt 0.59375 0.001708984
vt 0.609375 1
vt 0.625 1
vt 0.625 0.001708984
vt 0.609375 0.001708984
vt 0.625 1
vt 0.640625 1
vt 0.640625 0.001708984
vt 0.625 0.001708984
vt 0.640625 1
vt 0.65625 1
vt 0.65625 0.001708984
vt 0.640625 0.001708984
vt 0.65625 1
vt 0.671875 1
vt 0.671875 0.001708984
vt 0.65625 0.001708984
vt 0.671875 1
vt 0.6875 1
vt 0.6875 0.001708984
vt 0.671875 0.001708984
vt 0.6875 1
vt 0.703125 1
vt 0.703125 0.001708984
vt 0.6875 0.001708984
vt 0.703125 1
vt 0.71875 1
vt 0.71875 0.001708984
vt 0.703125 0.001708984
vt 0.71875 1
vt 0.734375 1
vt 0.734375 0.001708984
vt 0.71875 0.001708984
vt 0.734375 1
vt 0.75 1
vt 0.75 0.001708984
vt 0.734375 0.001708984
vt 0.75 1
vt 0.765625 1
vt 0.765625 0.001708984
vt 0.75 0.001708984
vt 0.765625 1
vt 0.78125 1
vt 0.78125 0.001708984
vt 0.765625 0.001708984
vt 0.78125 1
vt 0.796875 1
vt 0.796875 0.001708984
vt 0.78125 0.001708984
vt 0.796875 1
vt 0.8125 1
vt 0.8125 0.001708984
vt 0.796875 0.001708984
vt 0.8125 1
vt 0.828125 1
vt 0.828125 0.001708984
vt 0.8125 0.001708984
vt 0.828125 1
vt 0.84375 1
vt 0.84375 0.001708984
vt 0.828125 0.001708984
vt 0.84375 1
vt 0.859375 1
vt 0.859375 0.001708984
vt 0.84375 0.001708984
vt 0.859375 1
vt 0.875 1
vt 0.875 0.001708984
vt 0.859375 0.001708984
vt 0.875 1
vt 0.890625 1
vt 0.890625 0.001708984
vt 0.875 0.001708984
vt 0.890625 1
vt 0.90625 1
vt 0.90625 0.001708984
vt 0.890625 0.001708984
vt 0.90625 1
vt 0.921875 1
vt 0.921875 0.001708984
vt 0.90625 0.001708984
vt 0.921875 1
vt 0.9375 1
vt 0.9375 0.001708984
vt 0.921875 0.001708984
vt 0.9375 1
vt 0.953125 1
vt 0.953125 0.001708984
vt 0.9375 0.001708984
vt 0.953125 1
vt 0.96875 1
vt 0.96875 0.001708984
vt 0.953125 0.001708984
vt 0.96875 1
vt 0.984375 1
vt 0.984375 0.001708984
vt 0.96875 0.001708984
vt 0.984375 1
vt 1 1
vt 1 0.001708984
vt 0.984375 0.001708984
vn 0 0 1
vn 0 0 1
vn 0 0 1
vn 0 0 1
vn 0 0 1
vn 0 0 1
vn 0 0 1
vn 0 0 1
vn 0 0 1
vn 0 0 1
vn 0 0 1
vn 0 0 1
vn 0 0 1
vn 0 0 1
vn 0 0 1
vn 0 0 1
vn 0 0 1
vn 0 0 1
vn 0 0 1
vn 0 0 1
vn 0 0 1
vn 0 0 1
vn 0 0 1
vn 0 0 1
vn 0 0 1
vn 0 0 1
vn 0 0 1
vn 0 0 1
vn 0 0 1
vn 0 0 1
vn 0 0 1
vn 0 0 1
vn 0 0 1
vn 0 0 1
vn 0 0 1
vn 0 0 1
vn 0 0 1
vn 0 0 1
vn 0 0 1
vn 0 0 1
vn 0 0 1
vn 0 0 1
vn 0 0 1
vn 0 0 1
vn 0 0 1
vn 0 0 1
vn 0 0 1
vn 0 0 1
vn 0 0 1
vn 0 0 1
vn 0 0 1
vn 0 0 1
vn 0 0 1
vn 0 0 1
vn 0 0 1
vn 0 0 1
vn 0 0 1
vn 0 0 1
vn 0 0 1
vn 0 0 1
vn 0 0 1
vn 0 0 1
vn 0 0 1
vn 0 0 1
vn 0 0 1
vn 0 0 1
vn 0 0 1
vn 0 0 1
vn 0 0 1
vn 0 0 1
vn 0 0 1
vn 0 0 1
vn 0 0 1
vn 0 0 1
vn 0 0 1
vn 0 0 1
vn 0 0 1
vn 0 0 1
vn 0 0 1
vn 0 0 1
vn 0 0 1
vn 0 0 1
vn 0 0 1
vn 0 0 1
vn 0 0 1
vn 0 0 1
vn 0 0 1
vn 0 0 1
vn 0 0 1
vn 0 0 1
vn 0 0 1
vn 0 0 1
vn 0 0 1
vn 0 0 1
vn 0 0 1
vn 0 0 1
vn 0 0 1
vn 0 0 1
vn 0 0 1
vn 0 0 1
vn 0 0 1
vn 0 0 1
vn 0 0 1
vn 0 0 1
vn 0 0 1
vn 0 0 1
vn 0 0 1
vn 0 0 1
vn 0 0 1
vn 0 0 1
vn 0 0 1
vn 0 0 1
vn 0 0 1
vn 0 0 1
vn 0 0 1
vn 0 0 1
vn 0 0 1
vn 0 0 1
vn 0 0 1
vn 0 0 1
vn 0 0 1
vn 0 0 1
vn 0 0 1
vn 0 0 1
vn 0 0 1
vn 0 0 1
vn 0 0 1
vn 0 0 1
vn 0 0 1
vn 0 0 1
vn 0 0 1
vn 0 0 1
vn 0 0 1
vn 0 0 1
vn 0 0 1
vn 0 0 1
vn 0 0 1
vn 0 0 1
vn 0 0 1
vn 0 0 1
vn 0 0 1
vn 0 0 1
vn 0 0 1
vn 0 0 1
vn 0 0 1
vn 0 0 1
vn 0 0 1
vn 0 0 1
vn 0 0 1
vn 0 0 1
vn 0 0 1
vn 0 0 1
vn 0 0 1
vn 0 0 1
vn 0 0 1
vn 0 0 1
vn 0 0 1
vn 0 0 1
vn 0 0 1
vn 0 0 1
vn 0 0 1
vn 0 0 1
vn 0 0 1
vn 0 0 1
vn 0 0 1
vn 0 0 1
vn 0 0 1
vn 0 0 1
vn 0 0 1
vn 0 0 1
vn 0 0 1
vn 0 0 1
vn 0 0 1
vn 0 0 1
vn 0 0 1
vn 0 0 1
vn 0 0 1
vn 0 0 1
vn 0 0 1
vn 0 0 1
vn 0 0 1
vn 0 0 1
vn 0 0 1
vn 0 0 1
vn 0 0 1
vn 0 0 1
vn 0 0 1
vn 0 0 1
vn 0 0 1
vn 0 0 1
vn 0 0 1
vn 0 0 1
vn 0 0 1
vn 0 0 1
vn 0 0 1
vn 0 0 1
vn 0 0 1
vn 0 0 1
vn 0 0 1
vn 0 0 1
vn 0 0 1
vn 0 0 1
vn 0 0 1
vn 0 0 1
vn 0 0 1
vn 0 0 1
vn 0 0 1
vn 0 0 1
vn 0 0 1
vn 0 0 1
vn 0 0 1
vn 0 0 1
vn 0 0 1
vn 0 0 1
vn 0 0 1
vn 0 0 1
vn 0 0 1
vn 0 0 1
vn 0 0 1
vn 0 0 1
vn 0 0 1
vn 0 0 1
vn 0 0 1
vn 0 0 1
vn 0 0 1
vn 0 0 1
vn 0 0 1
vn 0 0 1
vn 0 0 1
vn 0 0 1
vn 0 0 1
vn 0 0 1
vn 0 0 1
vn 0 0 1
vn 0 0 1
vn 0 0 1
vn 0 0 1
vn 0 0 1
vn 0 0 1
vn 0 0 1
vn 0 0 1
vn 0 0 1
vn 0 0 1
vn 0 0 1
vn 0 0 1
vn 0 0 1
vn 0 0 1
vn 0 0 1
vn 0 0 1
vn 0 0 1
vn 0 0 1
vn 0 0 1
vn 0 0 1
vn 0 0 1
vn 0 0 1
vn 0 0 1
g SM_VFX_Colorless_Pokeball_Energy_0
f 3/3/3 2/2/2 1/1/1
f 4/4/4 3/3/3 1/1/1
f 7/7/7 6/6/6 5/5/5
f 8/8/8 7/7/7 5/5/5
f 11/11/11 10/10/10 9/9/9
f 12/12/12 11/11/11 9/9/9
f 15/15/15 14/14/14 13/13/13
f 16/16/16 15/15/15 13/13/13
f 19/19/19 18/18/18 17/17/17
f 20/20/20 19/19/19 17/17/17
f 23/23/23 22/22/22 21/21/21
f 24/24/24 23/23/23 21/21/21
f 27/27/27 26/26/26 25/25/25
f 28/28/28 27/27/27 25/25/25
f 31/31/31 30/30/30 29/29/29
f 32/32/32 31/31/31 29/29/29
f 35/35/35 34/34/34 33/33/33
f 36/36/36 35/35/35 33/33/33
f 39/39/39 38/38/38 37/37/37
f 40/40/40 39/39/39 37/37/37
f 43/43/43 42/42/42 41/41/41
f 44/44/44 43/43/43 41/41/41
f 47/47/47 46/46/46 45/45/45
f 48/48/48 47/47/47 45/45/45
f 51/51/51 50/50/50 49/49/49
f 52/52/52 51/51/51 49/49/49
f 55/55/55 54/54/54 53/53/53
f 56/56/56 55/55/55 53/53/53
f 59/59/59 58/58/58 57/57/57
f 60/60/60 59/59/59 57/57/57
f 63/63/63 62/62/62 61/61/61
f 64/64/64 63/63/63 61/61/61
f 67/67/67 66/66/66 65/65/65
f 68/68/68 67/67/67 65/65/65
f 71/71/71 70/70/70 69/69/69
f 72/72/72 71/71/71 69/69/69
f 75/75/75 74/74/74 73/73/73
f 76/76/76 75/75/75 73/73/73
f 79/79/79 78/78/78 77/77/77
f 80/80/80 79/79/79 77/77/77
f 83/83/83 82/82/82 81/81/81
f 84/84/84 83/83/83 81/81/81
f 87/87/87 86/86/86 85/85/85
f 88/88/88 87/87/87 85/85/85
f 91/91/91 90/90/90 89/89/89
f 92/92/92 91/91/91 89/89/89
f 95/95/95 94/94/94 93/93/93
f 96/96/96 95/95/95 93/93/93
f 99/99/99 98/98/98 97/97/97
f 100/100/100 99/99/99 97/97/97
f 103/103/103 102/102/102 101/101/101
f 104/104/104 103/103/103 101/101/101
f 107/107/107 106/106/106 105/105/105
f 108/108/108 107/107/107 105/105/105
f 111/111/111 110/110/110 109/109/109
f 112/112/112 111/111/111 109/109/109
f 115/115/115 114/114/114 113/113/113
f 116/116/116 115/115/115 113/113/113
f 119/119/119 118/118/118 117/117/117
f 120/120/120 119/119/119 117/117/117
f 123/123/123 122/122/122 121/121/121
f 124/124/124 123/123/123 121/121/121
f 127/127/127 126/126/126 125/125/125
f 128/128/128 127/127/127 125/125/125
f 131/131/131 130/130/130 129/129/129
f 132/132/132 131/131/131 129/129/129
f 135/135/135 134/134/134 133/133/133
f 136/136/136 135/135/135 133/133/133
f 139/139/139 138/138/138 137/137/137
f 140/140/140 139/139/139 137/137/137
f 143/143/143 142/142/142 141/141/141
f 144/144/144 143/143/143 141/141/141
f 147/147/147 146/146/146 145/145/145
f 148/148/148 147/147/147 145/145/145
f 151/151/151 150/150/150 149/149/149
f 152/152/152 151/151/151 149/149/149
f 155/155/155 154/154/154 153/153/153
f 156/156/156 155/155/155 153/153/153
f 159/159/159 158/158/158 157/157/157
f 160/160/160 159/159/159 157/157/157
f 163/163/163 162/162/162 161/161/161
f 164/164/164 163/163/163 161/161/161
f 167/167/167 166/166/166 165/165/165
f 168/168/168 167/167/167 165/165/165
f 171/171/171 170/170/170 169/169/169
f 172/172/172 171/171/171 169/169/169
f 175/175/175 174/174/174 173/173/173
f 176/176/176 175/175/175 173/173/173
f 179/179/179 178/178/178 177/177/177
f 180/180/180 179/179/179 177/177/177
f 183/183/183 182/182/182 181/181/181
f 184/184/184 183/183/183 181/181/181
f 187/187/187 186/186/186 185/185/185
f 188/188/188 187/187/187 185/185/185
f 191/191/191 190/190/190 189/189/189
f 192/192/192 191/191/191 189/189/189
f 195/195/195 194/194/194 193/193/193
f 196/196/196 195/195/195 193/193/193
f 199/199/199 198/198/198 197/197/197
f 200/200/200 199/199/199 197/197/197
f 203/203/203 202/202/202 201/201/201
f 204/204/204 203/203/203 201/201/201
f 207/207/207 206/206/206 205/205/205
f 208/208/208 207/207/207 205/205/205
f 211/211/211 210/210/210 209/209/209
f 212/212/212 211/211/211 209/209/209
f 215/215/215 214/214/214 213/213/213
f 216/216/216 215/215/215 213/213/213
f 219/219/219 218/218/218 217/217/217
f 220/220/220 219/219/219 217/217/217
f 223/223/223 222/222/222 221/221/221
f 224/224/224 223/223/223 221/221/221
f 227/227/227 226/226/226 225/225/225
f 228/228/228 227/227/227 225/225/225
f 231/231/231 230/230/230 229/229/229
f 232/232/232 231/231/231 229/229/229
f 235/235/235 234/234/234 233/233/233
f 236/236/236 235/235/235 233/233/233
f 239/239/239 238/238/238 237/237/237
f 240/240/240 239/239/239 237/237/237
f 243/243/243 242/242/242 241/241/241
f 244/244/244 243/243/243 241/241/241
f 247/247/247 246/246/246 245/245/245
f 248/248/248 247/247/247 245/245/245
f 251/251/251 250/250/250 249/249/249
f 252/252/252 251/251/251 249/249/249
f 255/255/255 254/254/254 253/253/253
f 256/256/256 255/255/255 253/253/253
