g SM_VFX_Water_Reduced_FoamEdge
v 44.06999 2.917224 -2.384186E-06
v 44.17417 -1.023797E-06 -2.384186E-06
v 13.60595 -1.140937E-06 -2.384186E-06
v 13.53106 0.9442782 -2.384186E-06
v 43.48926 5.714677 -2.384186E-06
v 13.2992 1.87228 -2.384186E-06
v 41.651 9.60845 -2.384186E-06
v 12.92966 2.668682 -2.384186E-06
v 12.52137 3.173025 -2.384186E-06
v 39.53115 13.2342 -2.384186E-06
v 37.22976 15.42321 -2.384186E-06
v 12.02256 3.512438 -2.384186E-06
v 33.8601 16.6797 -2.384186E-06
v 11.42234 3.778677 -2.384186E-06
v 10.32627 4.003012 -2.384186E-06
v 30.89495 17.18088 -2.384186E-06
v 28.19263 17.58536 -2.384186E-06
v 9.434446 4.100832 -2.384186E-06
v 25.36868 17.95215 -2.384186E-06
v 8.502184 4.189566 -2.384186E-06
v 22.43531 18.27964 -2.384186E-06
v 7.533562 4.268814 -2.384186E-06
v 19.40518 18.56641 -2.384186E-06
v 6.5328 4.338221 -2.384186E-06
v 16.29134 18.81121 -2.384186E-06
v 5.504245 4.397474 -2.384186E-06
v 13.10722 19.01295 -2.384186E-06
v 4.452354 4.446315 -2.384186E-06
v 9.866507 19.17079 -2.384186E-06
v 3.381681 4.484527 -2.384186E-06
v 6.583144 19.28401 -2.384186E-06
v 2.296852 4.511942 -2.384186E-06
v 3.271247 19.35215 -2.384186E-06
v 1.202555 4.52844 -2.384186E-06
v -1.991496E-06 19.37365 -2.384186E-06
v -2.310642E-06 4.533562 -2.384186E-06
v -1.202559 4.52844 -2.384186E-06
v -3.271251 19.35215 -2.384186E-06
v -2.296857 4.511942 -2.384186E-06
v -6.583148 19.28401 -2.384186E-06
v -3.381686 4.484527 -2.384186E-06
v -9.86651 19.17079 -2.384186E-06
v -4.452359 4.446315 -2.384186E-06
v -13.10722 19.01295 -2.384186E-06
v -5.50425 4.397474 -2.384186E-06
v -16.29135 18.81121 -2.384186E-06
v -6.532805 4.338221 -2.384186E-06
v -19.40518 18.56641 -2.384186E-06
v -7.533567 4.268814 -2.384186E-06
v -22.43531 18.27964 -2.384186E-06
v -8.502188 4.189566 -2.384186E-06
v -25.36868 17.95215 -2.384186E-06
v -9.434452 4.100832 -2.384186E-06
v -28.19263 17.58536 -2.384186E-06
v -10.32628 4.003012 -2.384186E-06
v -30.89495 17.18088 -2.384186E-06
v -33.86011 16.6797 -2.384186E-06
v -11.42234 3.778677 -2.384186E-06
v -12.02256 3.512438 -2.384186E-06
v -37.22977 15.42321 -2.384186E-06
v -12.52138 3.173025 -2.384186E-06
v -39.53115 13.2342 -2.384186E-06
v -41.651 9.60845 -2.384186E-06
v -12.92967 2.668682 -2.384186E-06
v -13.29921 1.87228 -2.384186E-06
v -43.48927 5.714677 -2.384186E-06
v -13.53106 0.9442782 -2.384186E-06
v -44.07 2.917224 -2.384186E-06
v -13.60595 -1.140937E-06 -2.384186E-06
v -44.17418 -1.023797E-06 -2.384186E-06
v -44.07 -2.917226 -2.384186E-06
v -13.53106 -0.9442806 -2.384186E-06
v -43.48927 -5.714679 -2.384186E-06
v -13.29921 -1.872282 -2.384186E-06
v -41.651 -9.608452 -2.384186E-06
v -12.92967 -2.668684 -2.384186E-06
v -12.52138 -3.173027 -2.384186E-06
v -39.53115 -13.2342 -2.384186E-06
v -37.22977 -15.42321 -2.384186E-06
v -12.02256 -3.51244 -2.384186E-06
v -33.86011 -16.6797 -2.384186E-06
v -11.42234 -3.778679 -2.384186E-06
v -10.32628 -4.003014 -2.384186E-06
v -30.89495 -17.18089 -2.384186E-06
v -28.19263 -17.58536 -2.384186E-06
v -9.434452 -4.100834 -2.384186E-06
v -25.36868 -17.95215 -2.384186E-06
v -8.502188 -4.189569 -2.384186E-06
v -22.43531 -18.27965 -2.384186E-06
v -7.533567 -4.268816 -2.384186E-06
v -19.40518 -18.56642 -2.384186E-06
v -6.532805 -4.338223 -2.384186E-06
v -16.29135 -18.81121 -2.384186E-06
v -5.50425 -4.397477 -2.384186E-06
v -13.10722 -19.01296 -2.384186E-06
v -4.452359 -4.446317 -2.384186E-06
v -9.86651 -19.17079 -2.384186E-06
v -3.381686 -4.484529 -2.384186E-06
v -6.583148 -19.28402 -2.384186E-06
v -2.296857 -4.511944 -2.384186E-06
v -3.271251 -19.35215 -2.384186E-06
v -1.202559 -4.528442 -2.384186E-06
v -1.991496E-06 -19.37365 -2.384186E-06
v -2.310642E-06 -4.533564 -2.384186E-06
v 1.202555 -4.528442 -2.384186E-06
v 3.271247 -19.35215 -2.384186E-06
v 2.296852 -4.511944 -2.384186E-06
v 6.583144 -19.28402 -2.384186E-06
v 3.381681 -4.484529 -2.384186E-06
v 9.866507 -19.17079 -2.384186E-06
v 4.452354 -4.446317 -2.384186E-06
v 13.10722 -19.01296 -2.384186E-06
v 5.504245 -4.397477 -2.384186E-06
v 16.29134 -18.81121 -2.384186E-06
v 6.5328 -4.338223 -2.384186E-06
v 19.40518 -18.56642 -2.384186E-06
v 7.533562 -4.268816 -2.384186E-06
v 22.43531 -18.27965 -2.384186E-06
v 8.502184 -4.189569 -2.384186E-06
v 25.36868 -17.95215 -2.384186E-06
v 9.434446 -4.100834 -2.384186E-06
v 28.19263 -17.58536 -2.384186E-06
v 10.32627 -4.003014 -2.384186E-06
v 30.89495 -17.18089 -2.384186E-06
v 33.8601 -16.6797 -2.384186E-06
v 11.42234 -3.778679 -2.384186E-06
v 12.02256 -3.51244 -2.384186E-06
v 37.22976 -15.42321 -2.384186E-06
v 12.52137 -3.173027 -2.384186E-06
v 39.53115 -13.2342 -2.384186E-06
v 41.651 -9.608452 -2.384186E-06
v 12.92966 -2.668684 -2.384186E-06
v 13.2992 -1.872282 -2.384186E-06
v 43.48926 -5.714679 -2.384186E-06
v 13.53106 -0.9442806 -2.384186E-06
v 44.06999 -2.917226 -2.384186E-06
v 13.60595 -1.140937E-06 -2.384186E-06
v 44.17417 -1.023797E-06 -2.384186E-06
vt 0.01380247 0.2062654
vt 1.776218E-05 0.2062654
vt 1.776218E-05 0.7920371
vt 0.01380247 0.7920372
vt 0.02746862 0.2062654
vt 0.02746862 0.7920372
vt 0.04475141 0.2062654
vt 0.04475141 0.7920372
vt 0.06044745 0.7920372
vt 0.06044745 0.2062654
vt 0.07293218 0.2062654
vt 0.07293218 0.7920372
vt 0.08690536 0.2062654
vt 0.08690536 0.7920372
vt 0.1019475 0.7920372
vt 0.1019475 0.2062654
vt 0.1149107 0.2062654
vt 0.1149107 0.7920372
vt 0.1284292 0.2062654
vt 0.1284292 0.7920372
vt 0.1424482 0.2062654
vt 0.1424482 0.7920372
vt 0.1569104 0.2062654
vt 0.1569104 0.7920372
vt 0.1717563 0.2062655
vt 0.1717563 0.7920372
vt 0.1869248 0.2062655
vt 0.1869248 0.7920372
vt 0.2023531 0.2062655
vt 0.2023531 0.7920372
vt 0.2179775 0.2062656
vt 0.2179775 0.7920372
vt 0.2337329 0.2062656
vt 0.2337329 0.7920372
vt 0.2500098 0.2062656
vt 0.2500097 0.7920372
vt 0.2662865 0.7920372
vt 0.2662866 0.2062656
vt 0.2820419 0.7920372
vt 0.282042 0.2062656
vt 0.2976663 0.7920372
vt 0.2976664 0.2062656
vt 0.3130946 0.7920372
vt 0.3130947 0.2062656
vt 0.328263 0.7920372
vt 0.3282632 0.2062656
vt 0.3431091 0.7920372
vt 0.3431092 0.2062656
vt 0.3575712 0.7920372
vt 0.3575714 0.2062656
vt 0.3715903 0.7920372
vt 0.3715904 0.2062656
vt 0.3851088 0.7920372
vt 0.3851089 0.2062656
vt 0.3980719 0.7920372
vt 0.3980721 0.2062656
vt 0.4131141 0.2062656
vt 0.413114 0.7920372
vt 0.4270872 0.7920372
vt 0.4270873 0.2062656
vt 0.4395718 0.7920372
vt 0.4395719 0.2062656
vt 0.455268 0.2062656
vt 0.4552678 0.7920372
vt 0.4725506 0.7920372
vt 0.4725507 0.2062656
vt 0.4862167 0.7920372
vt 0.4862168 0.2062656
vt 0.5000013 0.7920372
vt 0.5000014 0.2062656
vt 0.5137862 0.2062656
vt 0.513786 0.7920372
vt 0.5274522 0.2062656
vt 0.527452 0.7920372
vt 0.544735 0.2062656
vt 0.5447348 0.7920372
vt 0.5604307 0.7920372
vt 0.5604308 0.2062656
vt 0.5729155 0.2062656
vt 0.5729153 0.7920372
vt 0.5868886 0.2062656
vt 0.5868884 0.7920372
vt 0.6019305 0.7920374
vt 0.6019307 0.2062656
vt 0.6148937 0.2062656
vt 0.6148936 0.7920374
vt 0.6284122 0.2062656
vt 0.628412 0.7920374
vt 0.6424311 0.2062656
vt 0.642431 0.7920374
vt 0.6568933 0.2062656
vt 0.6568931 0.7920374
vt 0.6717391 0.2062656
vt 0.671739 0.7920374
vt 0.6869075 0.2062656
vt 0.6869074 0.7920374
vt 0.7023359 0.2062656
vt 0.7023357 0.7920374
vt 0.71796 0.2062656
vt 0.7179599 0.7920374
vt 0.7337155 0.2062656
vt 0.7337154 0.7920374
vt 0.7499921 0.2062656
vt 0.749992 0.7920374
vt 0.7662687 0.7920374
vt 0.7662688 0.2062656
vt 0.782024 0.7920374
vt 0.7820241 0.2062656
vt 0.7976483 0.7920374
vt 0.7976484 0.2062656
vt 0.8130765 0.7920374
vt 0.8130766 0.2062656
vt 0.8282449 0.7920374
vt 0.828245 0.2062656
vt 0.8430908 0.7920374
vt 0.843091 0.2062656
vt 0.8575529 0.7920374
vt 0.857553 0.2062656
vt 0.8715719 0.7920374
vt 0.8715721 0.2062656
vt 0.8850904 0.7920374
vt 0.8850906 0.2062656
vt 0.8980535 0.7920374
vt 0.8980536 0.2062656
vt 0.9130957 0.2062656
vt 0.9130955 0.7920374
vt 0.9270686 0.7920374
vt 0.9270688 0.2062656
vt 0.9395533 0.7920374
vt 0.9395534 0.2062656
vt 0.9552493 0.2062656
vt 0.9552491 0.7920374
vt 0.9725318 0.7920374
vt 0.9725319 0.2062656
vt 0.9861976 0.7920374
vt 0.9861977 0.2062656
vt 0.9999821 0.7920374
vt 0.9999824 0.2062657
vn 0 0 1
vn 0 0 1
vn 0 0 1
vn 0 0 1
vn 0 0 1
vn 0 0 1
vn 0 0 1
vn 0 0 1
vn 0 0 1
vn 0 0 1
vn 0 0 1
vn 0 0 1
vn 0 0 1
vn 0 0 1
vn 0 0 1
vn 0 0 1
vn 0 0 1
vn 0 0 1
vn 0 0 1
vn 0 0 1
vn 0 0 1
vn 0 0 1
vn 0 0 1
vn 0 0 1
vn 0 0 1
vn 0 0 1
vn 0 0 1
vn 0 0 1
vn 0 0 1
vn 0 0 1
vn 0 0 1
vn 0 0 1
vn 0 0 1
vn 0 0 1
vn 0 0 1
vn 0 0 1
vn 0 0 1
vn 0 0 1
vn 0 0 1
vn 0 0 1
vn 0 0 1
vn 0 0 1
vn 0 0 1
vn 0 0 1
vn 0 0 1
vn 0 0 1
vn 0 0 1
vn 0 0 1
vn 0 0 1
vn 0 0 1
vn 0 0 1
vn 0 0 1
vn 0 0 1
vn 0 0 1
vn 0 0 1
vn 0 0 1
vn 0 0 1
vn 0 0 1
vn 0 0 1
vn 0 0 1
vn 0 0 1
vn 0 0 1
vn 0 0 1
vn 0 0 1
vn 0 0 1
vn 0 0 1
vn 0 0 1
vn 0 0 1
vn 0 0 1
vn 0 0 1
vn 0 0 1
vn 0 0 1
vn 0 0 1
vn 0 0 1
vn 0 0 1
vn 0 0 1
vn 0 0 1
vn 0 0 1
vn 0 0 1
vn 0 0 1
vn 0 0 1
vn 0 0 1
vn 0 0 1
vn 0 0 1
vn 0 0 1
vn 0 0 1
vn 0 0 1
vn 0 0 1
vn 0 0 1
vn 0 0 1
vn 0 0 1
vn 0 0 1
vn 0 0 1
vn 0 0 1
vn 0 0 1
vn 0 0 1
vn 0 0 1
vn 0 0 1
vn 0 0 1
vn 0 0 1
vn 0 0 1
vn 0 0 1
vn 0 0 1
vn 0 0 1
vn 0 0 1
vn 0 0 1
vn 0 0 1
vn 0 0 1
vn 0 0 1
vn 0 0 1
vn 0 0 1
vn 0 0 1
vn 0 0 1
vn 0 0 1
vn 0 0 1
vn 0 0 1
vn 0 0 1
vn 0 0 1
vn 0 0 1
vn 0 0 1
vn 0 0 1
vn 0 0 1
vn 0 0 1
vn 0 0 1
vn 0 0 1
vn 0 0 1
vn 0 0 1
vn 0 0 1
vn 0 0 1
vn 0 0 1
vn 0 0 1
vn 0 0 1
vn 0 0 1
vn 0 0 1
vn 0 0 1
vn 0 0 1
vn 0 0 1
vn 0 0 1
g SM_VFX_Water_Reduced_FoamEdge_0
f 3/3/3 2/2/2 1/1/1
f 4/4/4 3/3/3 1/1/1
f 4/4/4 1/1/1 5/5/5
f 6/6/6 4/4/4 5/5/5
f 6/6/6 5/5/5 7/7/7
f 8/8/8 6/6/6 7/7/7
f 8/8/8 7/7/7 9/9/9
f 7/7/7 10/10/10 9/9/9
f 10/10/10 11/11/11 9/9/9
f 11/11/11 12/12/12 9/9/9
f 11/11/11 13/13/13 12/12/12
f 13/13/13 14/14/14 12/12/12
f 14/14/14 13/13/13 15/15/15
f 13/13/13 16/16/16 15/15/15
f 16/16/16 17/17/17 15/15/15
f 17/17/17 18/18/18 15/15/15
f 17/17/17 19/19/19 18/18/18
f 19/19/19 20/20/20 18/18/18
f 19/19/19 21/21/21 20/20/20
f 21/21/21 22/22/22 20/20/20
f 21/21/21 23/23/23 22/22/22
f 23/23/23 24/24/24 22/22/22
f 23/23/23 25/25/25 24/24/24
f 25/25/25 26/26/26 24/24/24
f 25/25/25 27/27/27 26/26/26
f 27/27/27 28/28/28 26/26/26
f 27/27/27 29/29/29 28/28/28
f 29/29/29 30/30/30 28/28/28
f 29/29/29 31/31/31 30/30/30
f 31/31/31 32/32/32 30/30/30
f 31/31/31 33/33/33 32/32/32
f 33/33/33 34/34/34 32/32/32
f 33/33/33 35/35/35 34/34/34
f 35/35/35 36/36/36 34/34/34
f 36/36/36 35/35/35 37/37/37
f 35/35/35 38/38/38 37/37/37
f 37/37/37 38/38/38 39/39/39
f 38/38/38 40/40/40 39/39/39
f 39/39/39 40/40/40 41/41/41
f 40/40/40 42/42/42 41/41/41
f 41/41/41 42/42/42 43/43/43
f 42/42/42 44/44/44 43/43/43
f 43/43/43 44/44/44 45/45/45
f 44/44/44 46/46/46 45/45/45
f 45/45/45 46/46/46 47/47/47
f 46/46/46 48/48/48 47/47/47
f 47/47/47 48/48/48 49/49/49
f 48/48/48 50/50/50 49/49/49
f 49/49/49 50/50/50 51/51/51
f 50/50/50 52/52/52 51/51/51
f 51/51/51 52/52/52 53/53/53
f 52/52/52 54/54/54 53/53/53
f 53/53/53 54/54/54 55/55/55
f 54/54/54 56/56/56 55/55/55
f 56/56/56 57/57/57 55/55/55
f 57/57/57 58/58/58 55/55/55
f 58/58/58 57/57/57 59/59/59
f 57/57/57 60/60/60 59/59/59
f 59/59/59 60/60/60 61/61/61
f 60/60/60 62/62/62 61/61/61
f 62/62/62 63/63/63 61/61/61
f 63/63/63 64/64/64 61/61/61
f 65/65/65 64/64/64 63/63/63
f 66/66/66 65/65/65 63/63/63
f 67/67/67 65/65/65 66/66/66
f 68/68/68 67/67/67 66/66/66
f 69/69/69 67/67/67 68/68/68
f 70/70/70 69/69/69 68/68/68
f 69/69/69 70/70/70 71/71/71
f 72/72/72 69/69/69 71/71/71
f 72/72/72 71/71/71 73/73/73
f 74/74/74 72/72/72 73/73/73
f 74/74/74 73/73/73 75/75/75
f 76/76/76 74/74/74 75/75/75
f 76/76/76 75/75/75 77/77/77
f 75/75/75 78/78/78 77/77/77
f 78/78/78 79/79/79 77/77/77
f 79/79/79 80/80/80 77/77/77
f 79/79/79 81/81/81 80/80/80
f 81/81/81 82/82/82 80/80/80
f 82/82/82 81/81/81 83/83/83
f 81/81/81 84/84/84 83/83/83
f 84/84/84 85/85/85 83/83/83
f 85/85/85 86/86/86 83/83/83
f 85/85/85 87/87/87 86/86/86
f 87/87/87 88/88/88 86/86/86
f 87/87/87 89/89/89 88/88/88
f 89/89/89 90/90/90 88/88/88
f 89/89/89 91/91/91 90/90/90
f 91/91/91 92/92/92 90/90/90
f 91/91/91 93/93/93 92/92/92
f 93/93/93 94/94/94 92/92/92
f 93/93/93 95/95/95 94/94/94
f 95/95/95 96/96/96 94/94/94
f 95/95/95 97/97/97 96/96/96
f 97/97/97 98/98/98 96/96/96
f 97/97/97 99/99/99 98/98/98
f 99/99/99 100/100/100 98/98/98
f 99/99/99 101/101/101 100/100/100
f 101/101/101 102/102/102 100/100/100
f 101/101/101 103/103/103 102/102/102
f 103/103/103 104/104/104 102/102/102
f 104/104/104 103/103/103 105/105/105
f 103/103/103 106/106/106 105/105/105
f 105/105/105 106/106/106 107/107/107
f 106/106/106 108/108/108 107/107/107
f 107/107/107 108/108/108 109/109/109
f 108/108/108 110/110/110 109/109/109
f 109/109/109 110/110/110 111/111/111
f 110/110/110 112/112/112 111/111/111
f 111/111/111 112/112/112 113/113/113
f 112/112/112 114/114/114 113/113/113
f 113/113/113 114/114/114 115/115/115
f 114/114/114 116/116/116 115/115/115
f 115/115/115 116/116/116 117/117/117
f 116/116/116 118/118/118 117/117/117
f 117/117/117 118/118/118 119/119/119
f 118/118/118 120/120/120 119/119/119
f 119/119/119 120/120/120 121/121/121
f 120/120/120 122/122/122 121/121/121
f 121/121/121 122/122/122 123/123/123
f 122/122/122 124/124/124 123/123/123
f 124/124/124 125/125/125 123/123/123
f 125/125/125 126/126/126 123/123/123
f 126/126/126 125/125/125 127/127/127
f 125/125/125 128/128/128 127/127/127
f 127/127/127 128/128/128 129/129/129
f 128/128/128 130/130/130 129/129/129
f 130/130/130 131/131/131 129/129/129
f 131/131/131 132/132/132 129/129/129
f 133/133/133 132/132/132 131/131/131
f 134/134/134 133/133/133 131/131/131
f 135/135/135 133/133/133 134/134/134
f 136/136/136 135/135/135 134/134/134
f 137/137/137 135/135/135 136/136/136
f 138/138/138 137/137/137 136/136/136
