g SM_VFX_Lightbeam_4
v -0.5756477 -2.140361 0.08255279
v -1.295233 -6.051316 0.7720172
v -0.874283 -2.140361 0.08255279
v -0.7766311 -6.293933 0.814797
v -0.3027856 -2.140361 0.08255279
v -1.716183 -9.962272 1.461481
v -0.3027859 -6.515611 0.8538847
v -0.03201663 -2.140361 0.08255279
v -0.9776149 -10.44751 1.547041
v -2.137132 -13.87323 2.150945
v 0.1674237 -6.73559 0.8926727
v 0.2687116 -2.140361 0.08255279
v 0.6896603 -6.979906 0.9357524
v -1.178598 -14.60108 2.279285
v -2.558083 -17.78418 2.840409
v -0.3027878 -10.89086 1.625217
v 0.3668633 -11.33082 1.702793
v 1.110609 -11.81945 1.788952
v -1.379582 -18.75464 3.011528
v -2.979033 -21.69514 3.529874
v -1.580566 -22.90822 3.743773
v -0.3027887 -15.26611 2.396548
v 0.5663033 -15.92604 2.512912
v 1.531556 -16.65899 2.642151
v -0.3027887 -19.64136 3.16788
v -0.3027906 -24.01661 3.939212
v 0.7657423 -20.52127 3.323032
v 1.952503 -21.49854 3.495351
v 0.9651814 -25.1165 4.133152
v 2.373451 -26.33808 4.34855
v 0.4110594 1.965036 0.1808248
v 1.486584 6.071768 1.35534
v 0.8503236 1.965036 0.1808248
v 0.7148423 6.071771 1.35534
v 0.009703636 1.965036 0.1808248
v 2.122842 10.1785 2.529855
v 0.00970459 6.071769 1.35534
v -0.3885715 1.965036 0.1808248
v 1.018625 10.1785 2.529855
v 2.759103 14.28523 3.70437
v -0.6900229 6.071769 1.35534
v -0.830916 1.965038 0.180824
v -1.467174 6.071772 1.35534
v 1.32241 14.28524 3.70437
v 3.39536 18.39197 4.878884
v 0.009705544 10.1785 2.529855
v -0.9914758 10.1785 2.529855
v -2.103434 10.1785 2.529855
v 1.626193 18.39197 4.878884
v 4.031622 22.49871 6.053399
v 1.929977 22.49871 6.053399
v 0.009707451 14.28524 3.70437
v -1.292924 14.28524 3.70437
v -2.739688 14.28524 3.70437
v 0.009706497 18.39197 4.878884
v 0.009708405 22.49871 6.053399
v -1.59438 18.39198 4.878884
v -3.375951 18.39197 4.878884
v -1.895832 22.49871 6.053399
v -4.01221 22.49871 6.053399
vt 0.7387257 0
vt 1 0.2
vt 1 0
vt 0.7387257 0.2
vt 0.5 0
vt 1 0.4
vt 0.5 0.2
vt 0.2631058 -2.653983E-09
vt 0.7387257 0.4
vt 1 0.6
vt 0.2631058 0.2
vt 0 0
vt 0 0.2
vt 0.7387257 0.6
vt 1 0.8
vt 0.5 0.4
vt 0.2631058 0.4
vt 0 0.4
vt 0.7387257 0.8
vt 1 1
vt 0.7387257 1
vt 0.5 0.6
vt 0.2631058 0.6
vt 0 0.6
vt 0.5 0.8
vt 0.5 1
vt 0.2631058 0.8
vt 0 0.8
vt 0.2631058 1
vt 0 1
vt 0.7387257 0
vt 1 0.2
vt 1 0
vt 0.7387257 0.2
vt 0.5 0
vt 1 0.4
vt 0.5 0.2
vt 0.2631058 -2.653983E-09
vt 0.7387257 0.4
vt 1 0.6
vt 0.2631058 0.2
vt 0 0
vt 0 0.2
vt 0.7387257 0.6
vt 1 0.8
vt 0.5 0.4
vt 0.2631058 0.4
vt 0 0.4
vt 0.7387257 0.8
vt 1 1
vt 0.7387257 1
vt 0.5 0.6
vt 0.2631058 0.6
vt 0 0.6
vt 0.5 0.8
vt 0.5 1
vt 0.2631058 0.8
vt 0 0.8
vt 0.2631058 1
vt 0 1
vn 0 0.1736158 0.9848134
vn -1.356945E-05 0.1736154 0.9848135
vn 0 0.1736151 0.9848135
vn -1.439505E-05 0.173616 0.9848134
vn 0 0.173617 0.9848133
vn -2.069941E-05 0.1736159 0.9848134
vn -1.388338E-05 0.173617 0.9848133
vn 0 0.1736181 0.984813
vn -2.112418E-05 0.1736163 0.9848134
vn -2.434229E-05 0.1736162 0.9848134
vn -1.363925E-05 0.173618 0.984813
vn 0 0.1736187 0.9848129
vn -1.513412E-05 0.1736183 0.984813
vn -2.459458E-05 0.1736165 0.9848133
vn -2.661666E-05 0.1736164 0.9848134
vn -2.062263E-05 0.173617 0.9848133
vn -2.025343E-05 0.1736177 0.984813
vn -2.09605E-05 0.1736179 0.984813
vn -2.670714E-05 0.1736166 0.9848133
vn -2.781722E-05 0.1736165 0.9848133
vn -2.740636E-05 0.1736167 0.9848133
vn -2.412704E-05 0.173617 0.9848133
vn -2.367495E-05 0.1736175 0.9848132
vn -2.411742E-05 0.1736177 0.984813
vn -2.621134E-05 0.173617 0.9848133
vn -2.687141E-05 0.1736171 0.9848132
vn -2.581599E-05 0.1736174 0.9848132
vn -2.616962E-05 0.1736176 0.9848132
vn -2.664821E-05 0.1736175 0.9848132
vn -2.661857E-05 0.1736175 0.9848132
vn 0 -0.2749727 0.961452
vn 0 -0.2749726 0.961452
vn 0 -0.2749726 0.9614521
vn 0 -0.2749727 0.961452
vn 0 -0.2749728 0.961452
vn 0 -0.2749727 0.961452
vn 0 -0.2749728 0.961452
vn 0 -0.2749729 0.961452
vn 0 -0.2749727 0.961452
vn 0 -0.2749726 0.9614521
vn 0 -0.2749729 0.961452
vn 0 -0.274973 0.961452
vn 0 -0.2749729 0.961452
vn 0 -0.2749726 0.9614521
vn 0 -0.2749725 0.9614521
vn 0 -0.2749727 0.961452
vn 0 -0.2749728 0.961452
vn 0 -0.2749729 0.961452
vn 0 -0.2749726 0.9614521
vn 0 -0.2749726 0.9614521
vn 0 -0.2749726 0.9614521
vn 0 -0.2749726 0.961452
vn 0 -0.2749726 0.9614521
vn 0 -0.2749725 0.9614521
vn 0 -0.2749726 0.9614521
vn 0 -0.2749726 0.9614521
vn 0 -0.2749725 0.9614521
vn 0 -0.2749724 0.9614521
vn 0 -0.2749726 0.9614521
vn 0 -0.2749726 0.9614521
g SM_VFX_Lightbeam_4_0
f 3/3/3 2/2/2 1/1/1
f 2/2/2 4/4/4 1/1/1
f 1/1/1 4/4/4 5/5/5
f 2/2/2 6/6/6 4/4/4
f 4/4/4 7/7/7 5/5/5
f 5/5/5 7/7/7 8/8/8
f 6/6/6 9/9/9 4/4/4
f 4/4/4 9/9/9 7/7/7
f 6/6/6 10/10/10 9/9/9
f 7/7/7 11/11/11 8/8/8
f 8/8/8 11/11/11 12/12/12
f 11/11/11 13/13/13 12/12/12
f 10/10/10 14/14/14 9/9/9
f 14/14/14 10/10/10 15/15/15
f 9/9/9 16/16/16 7/7/7
f 7/7/7 16/16/16 11/11/11
f 9/9/9 14/14/14 16/16/16
f 11/11/11 17/17/17 13/13/13
f 16/16/16 17/17/17 11/11/11
f 17/17/17 18/18/18 13/13/13
f 19/19/19 14/14/14 15/15/15
f 19/19/19 15/15/15 20/20/20
f 21/21/21 19/19/19 20/20/20
f 14/14/14 22/22/22 16/16/16
f 16/16/16 22/22/22 17/17/17
f 22/22/22 14/14/14 19/19/19
f 18/18/18 17/17/17 23/23/23
f 22/22/22 23/23/23 17/17/17
f 24/24/24 18/18/18 23/23/23
f 25/25/25 19/19/19 21/21/21
f 25/25/25 22/22/22 19/19/19
f 23/23/23 22/22/22 25/25/25
f 26/26/26 25/25/25 21/21/21
f 24/24/24 23/23/23 27/27/27
f 27/27/27 23/23/23 25/25/25
f 27/27/27 25/25/25 26/26/26
f 28/28/28 24/24/24 27/27/27
f 29/29/29 27/27/27 26/26/26
f 28/28/28 27/27/27 29/29/29
f 30/30/30 28/28/28 29/29/29
f 33/33/33 32/32/32 31/31/31
f 32/32/32 34/34/34 31/31/31
f 31/31/31 34/34/34 35/35/35
f 32/32/32 36/36/36 34/34/34
f 34/34/34 37/37/37 35/35/35
f 35/35/35 37/37/37 38/38/38
f 36/36/36 39/39/39 34/34/34
f 34/34/34 39/39/39 37/37/37
f 36/36/36 40/40/40 39/39/39
f 37/37/37 41/41/41 38/38/38
f 38/38/38 41/41/41 42/42/42
f 41/41/41 43/43/43 42/42/42
f 40/40/40 44/44/44 39/39/39
f 44/44/44 40/40/40 45/45/45
f 39/39/39 46/46/46 37/37/37
f 37/37/37 46/46/46 41/41/41
f 39/39/39 44/44/44 46/46/46
f 41/41/41 47/47/47 43/43/43
f 46/46/46 47/47/47 41/41/41
f 47/47/47 48/48/48 43/43/43
f 49/49/49 44/44/44 45/45/45
f 49/49/49 45/45/45 50/50/50
f 51/51/51 49/49/49 50/50/50
f 44/44/44 52/52/52 46/46/46
f 46/46/46 52/52/52 47/47/47
f 52/52/52 44/44/44 49/49/49
f 48/48/48 47/47/47 53/53/53
f 52/52/52 53/53/53 47/47/47
f 54/54/54 48/48/48 53/53/53
f 55/55/55 49/49/49 51/51/51
f 55/55/55 52/52/52 49/49/49
f 53/53/53 52/52/52 55/55/55
f 56/56/56 55/55/55 51/51/51
f 54/54/54 53/53/53 57/57/57
f 57/57/57 53/53/53 55/55/55
f 57/57/57 55/55/55 56/56/56
f 58/58/58 54/54/54 57/57/57
f 59/59/59 57/57/57 56/56/56
f 58/58/58 57/57/57 59/59/59
f 60/60/60 58/58/58 59/59/59
