g SM_VFX_Swipe_Mesh
v 264.2487 -263.1393 -2.090661E-05
v 279.2878 -218.2735 -2.524137E-05
v 300.4315 -278.6847 -2.008731E-05
v 317.5299 -227.6755 -2.478062E-05
v 286.7666 -171.5489 -2.93269E-05
v 336.6143 -294.2301 -1.926801E-05
v 326.0328 -174.553 -2.919056E-05
v 286.4827 -124.2303 -3.309907E-05
v 355.772 -237.0775 -2.431986E-05
v 372.7971 -309.7755 -1.844871E-05
v 325.71 -120.7553 -3.324425E-05
v 278.4438 -77.59872 -3.650224E-05
v 365.299 -177.5572 -2.905424E-05
v 394.0141 -246.4795 -2.385911E-05
v 408.98 -325.3208 -1.762941E-05
v 432.2562 -255.8815 -2.339835E-05
v 404.5651 -180.5613 -2.89179E-05
v 443.8313 -183.5655 -2.878157E-05
v 316.5703 -67.73853 -3.687841E-05
v 262.8674 -32.91653 -3.949071E-05
v 364.9373 -117.2802 -3.338944E-05
v 404.1646 -113.8052 -3.353462E-05
v 443.3919 -110.3301 -3.367981E-05
v 298.8611 -16.93814 -4.004109E-05
v 240.1752 8.606812 -4.203008E-05
v 354.6969 -57.87836 -3.725458E-05
v 392.8234 -48.01816 -3.763075E-05
v 430.95 -38.15796 -3.800693E-05
v 273.0618 30.27089 -4.269317E-05
v 210.9815 45.84735 -4.409804E-05
v 334.8548 -0.9597473 -4.059148E-05
v 370.8485 15.01865 -4.114185E-05
v 406.8423 30.99706 -4.169223E-05
v 239.8706 72.61066 -4.480929E-05
v 176.0766 77.7968 -4.568508E-05
v 305.9483 51.93497 -4.335625E-05
v 338.8348 73.59906 -4.401935E-05
v 371.7214 95.26313 -4.468243E-05
v 200.1863 108.9349 -4.637864E-05
v 136.4053 103.5904 -4.679469E-05
v 268.7597 99.37399 -4.552054E-05
v 297.6489 126.1373 -4.623179E-05
v 326.538 152.9006 -4.694305E-05
v 155.0829 138.2604 -4.740519E-05
v 93.04146 122.53 -4.74433E-05
v 224.296 140.073 -4.70722E-05
v 248.4056 171.211 -4.776576E-05
v 272.5153 202.3491 -4.845933E-05
v 105.7814 159.7933 -4.790761E-05
v 47.15902 134.1028 -4.76598E-05
v 173.7605 172.9303 -4.801569E-05
v 192.438 207.6003 -4.862619E-05
v 211.1157 242.2701 -4.923669E-05
v 53.61637 172.9507 -4.791876E-05
v -1.841072E-05 137.9955 -4.748479E-05
v 118.5213 197.0565 -4.837193E-05
v 131.2612 234.3198 -4.883624E-05
v 144.0011 271.5831 -4.930055E-05
v -3.139747E-05 177.3764 -4.748479E-05
v -47.159 134.1028 -4.696948E-05
v 60.07372 211.7986 -4.817772E-05
v 66.53107 250.6465 -4.843668E-05
v 72.98843 289.4944 -4.869564E-05
v -53.61635 172.9507 -4.666392E-05
v -93.04144 122.53 -4.617426E-05
v -2.345258E-05 216.7573 -4.748479E-05
v -3.896026E-05 256.1382 -4.748479E-05
v -2.849444E-05 295.5192 -4.748479E-05
v -105.7813 159.7933 -4.552481E-05
v -136.4053 103.5905 -4.516711E-05
v -60.07371 211.7986 -4.635836E-05
v -66.53105 250.6465 -4.60528E-05
v -72.98841 289.4944 -4.574724E-05
v -155.0828 138.2604 -4.414477E-05
v -176.0766 77.79681 -4.402178E-05
v -118.5212 197.0565 -4.487537E-05
v -131.2612 234.3198 -4.422592E-05
v -144.0011 271.5831 -4.357648E-05
v -200.1863 108.9349 -4.26076E-05
v -210.9816 45.84729 -4.28157E-05
v -173.7605 172.9303 -4.312242E-05
v -192.438 207.6003 -4.210007E-05
v -211.1156 242.2701 -4.107772E-05
v -239.8707 72.6106 -4.100138E-05
v -240.1752 8.606873 -4.162799E-05
v -224.2959 140.073 -4.119343E-05
v -248.4056 171.211 -3.977925E-05
v -272.5153 202.3491 -3.836508E-05
v -273.0617 30.27092 -3.941605E-05
v -262.8674 -32.91653 -4.053727E-05
v -268.7598 99.37393 -3.918707E-05
v -297.6489 126.1372 -3.737275E-05
v -326.5381 152.9005 -3.555843E-05
v -298.8611 -16.93811 -3.794098E-05
v -278.4438 -77.59875 -3.96195E-05
v -305.9483 51.93503 -3.720411E-05
v -338.8348 73.59914 -3.499217E-05
v -371.7213 95.26319 -3.278023E-05
v -316.5703 -67.73859 -3.666255E-05
v -286.4827 -124.2303 -3.894601E-05
v -334.8548 -0.9597473 -3.534468E-05
v -370.8485 15.01869 -3.274839E-05
v -406.8423 30.99706 -3.01521E-05
v -325.71 -120.7552 -3.566183E-05
v -286.7666 -171.5489 -3.858146E-05
v -354.6969 -57.87839 -3.370559E-05
v -392.8234 -48.01819 -3.074863E-05
v -430.95 -38.15802 -2.779168E-05
v -326.0328 -174.5529 -3.501238E-05
v -279.2878 -218.2735 -3.85822E-05
v -364.9373 -117.2802 -3.237766E-05
v -404.1646 -113.8051 -2.909349E-05
v -443.3919 -110.33 -2.580931E-05
v -317.5299 -227.6755 -3.477821E-05
v -264.2486 -263.1394 -3.899465E-05
v -300.4315 -278.6848 -3.501215E-05
v -365.299 -177.5571 -3.144329E-05
v -404.5651 -180.5612 -2.78742E-05
v -443.8313 -183.5654 -2.430511E-05
v -355.772 -237.0775 -3.097423E-05
v -336.6143 -294.2301 -3.102964E-05
v -394.0141 -246.4796 -2.717024E-05
v -432.2562 -255.8816 -2.336626E-05
v -372.7971 -309.7755 -2.704714E-05
v -408.9799 -325.3209 -2.306463E-05
vt 1 0
vt 0.9583335 0
vt 1 0.25
vt 0.9583335 0.25
vt 0.9166668 0
vt 1 0.5
vt 0.9166668 0.25
vt 0.8750001 0
vt 0.9583335 0.5
vt 1 0.75
vt 0.8750001 0.25
vt 0.8333334 0
vt 0.9166668 0.5
vt 0.9583335 0.75
vt 1 1
vt 0.9583335 1
vt 0.9166668 0.75
vt 0.9166668 1
vt 0.8333334 0.25
vt 0.7916667 0
vt 0.8750001 0.5
vt 0.8750001 0.75
vt 0.8750001 1
vt 0.7916667 0.25
vt 0.7500001 0
vt 0.8333334 0.5
vt 0.8333334 0.75
vt 0.8333334 1
vt 0.7500001 0.25
vt 0.7083334 0
vt 0.7916667 0.5
vt 0.7916667 0.75
vt 0.7916667 1
vt 0.7083334 0.25
vt 0.6666667 0
vt 0.7500001 0.5
vt 0.7500001 0.75
vt 0.7500001 1
vt 0.6666667 0.25
vt 0.625 0
vt 0.7083334 0.5
vt 0.7083334 0.75
vt 0.7083334 1
vt 0.625 0.25
vt 0.5833333 0
vt 0.6666667 0.5
vt 0.6666667 0.75
vt 0.6666667 1
vt 0.5833333 0.25
vt 0.5416666 0
vt 0.625 0.5
vt 0.625 0.75
vt 0.625 1
vt 0.5416666 0.25
vt 0.4999999 0
vt 0.5833333 0.5
vt 0.5833333 0.75
vt 0.5833333 1
vt 0.4999999 0.25
vt 0.4583333 0
vt 0.5416666 0.5
vt 0.5416666 0.75
vt 0.5416666 1
vt 0.4583333 0.25
vt 0.4166666 0
vt 0.4999999 0.5
vt 0.4999999 0.75
vt 0.4999999 1
vt 0.4166666 0.25
vt 0.375 0
vt 0.4583333 0.5
vt 0.4583333 0.75
vt 0.4583333 1
vt 0.375 0.25
vt 0.3333333 0
vt 0.4166666 0.5
vt 0.4166666 0.75
vt 0.4166666 1
vt 0.3333333 0.25
vt 0.2916667 0
vt 0.375 0.5
vt 0.375 0.75
vt 0.375 1
vt 0.2916667 0.25
vt 0.25 0
vt 0.3333333 0.5
vt 0.3333333 0.75
vt 0.3333333 1
vt 0.25 0.25
vt 0.2083333 0
vt 0.2916667 0.5
vt 0.2916667 0.75
vt 0.2916667 1
vt 0.2083333 0.25
vt 0.1666667 0
vt 0.25 0.5
vt 0.25 0.75
vt 0.25 1
vt 0.1666667 0.25
vt 0.125 0
vt 0.2083333 0.5
vt 0.2083333 0.75
vt 0.2083333 1
vt 0.125 0.25
vt 0.08333334 0
vt 0.1666667 0.5
vt 0.1666667 0.75
vt 0.1666667 1
vt 0.08333334 0.25
vt 0.04166667 0
vt 0.125 0.5
vt 0.125 0.75
vt 0.125 1
vt 0.04166667 0.25
vt 0 0
vt 0 0.25
vt 0.08333334 0.5
vt 0.08333334 0.75
vt 0.08333334 1
vt 0.04166667 0.5
vt 0 0.5
vt 0.04166667 0.75
vt 0.04166667 1
vt 0 0.75
vt 0 1
vn 0 0 1
vn 0 0 1
vn 0 0 1
vn 0 0 1
vn 0 0 1
vn 0 0 1
vn 0 0 1
vn 0 0 1
vn 0 0 1
vn 0 0 1
vn 0 0 1
vn 0 0 1
vn 0 0 1
vn 0 0 1
vn 0 0 1
vn 0 0 1
vn 0 0 1
vn 0 0 1
vn 0 0 1
vn 0 0 1
vn 0 0 1
vn 0 0 1
vn 0 0 1
vn 0 0 1
vn 0 0 1
vn 0 0 1
vn 0 0 1
vn 0 0 1
vn 0 0 1
vn 0 0 1
vn 0 0 1
vn 0 0 1
vn 0 0 1
vn 0 0 1
vn 0 0 1
vn 0 0 1
vn 0 0 1
vn 0 0 1
vn 0 0 1
vn 0 0 1
vn 0 0 1
vn 0 0 1
vn 0 0 1
vn 0 0 1
vn 0 0 1
vn 0 0 1
vn 0 0 1
vn 0 0 1
vn 0 0 1
vn 0 0 1
vn 0 0 1
vn 0 0 1
vn 0 0 1
vn 0 0 1
vn 0 0 1
vn 0 0 1
vn 0 0 1
vn 0 0 1
vn 0 0 1
vn 0 0 1
vn 0 0 1
vn 0 0 1
vn 0 0 1
vn 0 0 1
vn 0 0 1
vn 0 0 1
vn 0 0 1
vn 0 0 1
vn 0 0 1
vn 0 0 1
vn 0 0 1
vn 0 0 1
vn 0 0 1
vn 0 0 1
vn 0 0 1
vn 0 0 1
vn 0 0 1
vn 0 0 1
vn 0 0 1
vn 0 0 1
vn 0 0 1
vn 0 0 1
vn 0 0 1
vn 0 0 1
vn 0 0 1
vn 0 0 1
vn 0 0 1
vn 0 0 1
vn 0 0 1
vn 0 0 1
vn 0 0 1
vn 0 0 1
vn 0 0 1
vn 0 0 1
vn 0 0 1
vn 0 0 1
vn 0 0 1
vn 0 0 1
vn 0 0 1
vn 0 0 1
vn 0 0 1
vn 0 0 1
vn 0 0 1
vn 0 0 1
vn 0 0 1
vn 0 0 1
vn 0 0 1
vn 0 0 1
vn 0 0 1
vn 0 0 1
vn 0 0 1
vn 0 0 1
vn 0 0 1
vn 0 0 1
vn 0 0 1
vn 0 0 1
vn 0 0 1
vn 0 0 1
vn 0 0 1
vn 0 0 1
vn 0 0 1
vn 0 0 1
vn 0 0 1
vn 0 0 1
vn 0 0 1
g SM_VFX_Swipe_Mesh_0
f 3/3/3 2/2/2 1/1/1
f 2/2/2 3/3/3 4/4/4
f 4/4/4 5/5/5 2/2/2
f 6/6/6 4/4/4 3/3/3
f 5/5/5 4/4/4 7/7/7
f 7/7/7 8/8/8 5/5/5
f 4/4/4 6/6/6 9/9/9
f 9/9/9 7/7/7 4/4/4
f 10/10/10 9/9/9 6/6/6
f 8/8/8 7/7/7 11/11/11
f 11/11/11 12/12/12 8/8/8
f 7/7/7 9/9/9 13/13/13
f 13/13/13 11/11/11 7/7/7
f 9/9/9 10/10/10 14/14/14
f 14/14/14 13/13/13 9/9/9
f 15/15/15 14/14/14 10/10/10
f 14/14/14 15/15/15 16/16/16
f 16/16/16 17/17/17 14/14/14
f 13/13/13 14/14/14 17/17/17
f 17/17/17 16/16/16 18/18/18
f 12/12/12 11/11/11 19/19/19
f 19/19/19 20/20/20 12/12/12
f 11/11/11 13/13/13 21/21/21
f 17/17/17 21/21/21 13/13/13
f 21/21/21 19/19/19 11/11/11
f 18/18/18 22/22/22 17/17/17
f 21/21/21 17/17/17 22/22/22
f 22/22/22 18/18/18 23/23/23
f 20/20/20 19/19/19 24/24/24
f 24/24/24 25/25/25 20/20/20
f 19/19/19 21/21/21 26/26/26
f 22/22/22 26/26/26 21/21/21
f 26/26/26 24/24/24 19/19/19
f 23/23/23 27/27/27 22/22/22
f 26/26/26 22/22/22 27/27/27
f 27/27/27 23/23/23 28/28/28
f 25/25/25 24/24/24 29/29/29
f 29/29/29 30/30/30 25/25/25
f 24/24/24 26/26/26 31/31/31
f 27/27/27 31/31/31 26/26/26
f 31/31/31 29/29/29 24/24/24
f 28/28/28 32/32/32 27/27/27
f 31/31/31 27/27/27 32/32/32
f 32/32/32 28/28/28 33/33/33
f 30/30/30 29/29/29 34/34/34
f 34/34/34 35/35/35 30/30/30
f 29/29/29 31/31/31 36/36/36
f 32/32/32 36/36/36 31/31/31
f 36/36/36 34/34/34 29/29/29
f 33/33/33 37/37/37 32/32/32
f 36/36/36 32/32/32 37/37/37
f 37/37/37 33/33/33 38/38/38
f 35/35/35 34/34/34 39/39/39
f 39/39/39 40/40/40 35/35/35
f 34/34/34 36/36/36 41/41/41
f 37/37/37 41/41/41 36/36/36
f 41/41/41 39/39/39 34/34/34
f 38/38/38 42/42/42 37/37/37
f 41/41/41 37/37/37 42/42/42
f 42/42/42 38/38/38 43/43/43
f 40/40/40 39/39/39 44/44/44
f 44/44/44 45/45/45 40/40/40
f 39/39/39 41/41/41 46/46/46
f 42/42/42 46/46/46 41/41/41
f 46/46/46 44/44/44 39/39/39
f 43/43/43 47/47/47 42/42/42
f 46/46/46 42/42/42 47/47/47
f 47/47/47 43/43/43 48/48/48
f 45/45/45 44/44/44 49/49/49
f 49/49/49 50/50/50 45/45/45
f 44/44/44 46/46/46 51/51/51
f 47/47/47 51/51/51 46/46/46
f 51/51/51 49/49/49 44/44/44
f 48/48/48 52/52/52 47/47/47
f 51/51/51 47/47/47 52/52/52
f 52/52/52 48/48/48 53/53/53
f 50/50/50 49/49/49 54/54/54
f 54/54/54 55/55/55 50/50/50
f 49/49/49 51/51/51 56/56/56
f 52/52/52 56/56/56 51/51/51
f 56/56/56 54/54/54 49/49/49
f 53/53/53 57/57/57 52/52/52
f 56/56/56 52/52/52 57/57/57
f 57/57/57 53/53/53 58/58/58
f 55/55/55 54/54/54 59/59/59
f 59/59/59 60/60/60 55/55/55
f 54/54/54 56/56/56 61/61/61
f 57/57/57 61/61/61 56/56/56
f 61/61/61 59/59/59 54/54/54
f 58/58/58 62/62/62 57/57/57
f 61/61/61 57/57/57 62/62/62
f 62/62/62 58/58/58 63/63/63
f 60/60/60 59/59/59 64/64/64
f 64/64/64 65/65/65 60/60/60
f 59/59/59 61/61/61 66/66/66
f 62/62/62 66/66/66 61/61/61
f 66/66/66 64/64/64 59/59/59
f 63/63/63 67/67/67 62/62/62
f 66/66/66 62/62/62 67/67/67
f 67/67/67 63/63/63 68/68/68
f 65/65/65 64/64/64 69/69/69
f 69/69/69 70/70/70 65/65/65
f 64/64/64 66/66/66 71/71/71
f 67/67/67 71/71/71 66/66/66
f 71/71/71 69/69/69 64/64/64
f 68/68/68 72/72/72 67/67/67
f 71/71/71 67/67/67 72/72/72
f 72/72/72 68/68/68 73/73/73
f 70/70/70 69/69/69 74/74/74
f 74/74/74 75/75/75 70/70/70
f 69/69/69 71/71/71 76/76/76
f 72/72/72 76/76/76 71/71/71
f 76/76/76 74/74/74 69/69/69
f 73/73/73 77/77/77 72/72/72
f 76/76/76 72/72/72 77/77/77
f 77/77/77 73/73/73 78/78/78
f 75/75/75 74/74/74 79/79/79
f 79/79/79 80/80/80 75/75/75
f 74/74/74 76/76/76 81/81/81
f 77/77/77 81/81/81 76/76/76
f 81/81/81 79/79/79 74/74/74
f 78/78/78 82/82/82 77/77/77
f 81/81/81 77/77/77 82/82/82
f 82/82/82 78/78/78 83/83/83
f 80/80/80 79/79/79 84/84/84
f 84/84/84 85/85/85 80/80/80
f 79/79/79 81/81/81 86/86/86
f 82/82/82 86/86/86 81/81/81
f 86/86/86 84/84/84 79/79/79
f 83/83/83 87/87/87 82/82/82
f 86/86/86 82/82/82 87/87/87
f 87/87/87 83/83/83 88/88/88
f 85/85/85 84/84/84 89/89/89
f 89/89/89 90/90/90 85/85/85
f 84/84/84 86/86/86 91/91/91
f 87/87/87 91/91/91 86/86/86
f 91/91/91 89/89/89 84/84/84
f 88/88/88 92/92/92 87/87/87
f 91/91/91 87/87/87 92/92/92
f 92/92/92 88/88/88 93/93/93
f 90/90/90 89/89/89 94/94/94
f 94/94/94 95/95/95 90/90/90
f 89/89/89 91/91/91 96/96/96
f 92/92/92 96/96/96 91/91/91
f 96/96/96 94/94/94 89/89/89
f 93/93/93 97/97/97 92/92/92
f 96/96/96 92/92/92 97/97/97
f 97/97/97 93/93/93 98/98/98
f 95/95/95 94/94/94 99/99/99
f 99/99/99 100/100/100 95/95/95
f 94/94/94 96/96/96 101/101/101
f 97/97/97 101/101/101 96/96/96
f 101/101/101 99/99/99 94/94/94
f 98/98/98 102/102/102 97/97/97
f 101/101/101 97/97/97 102/102/102
f 102/102/102 98/98/98 103/103/103
f 100/100/100 99/99/99 104/104/104
f 104/104/104 105/105/105 100/100/100
f 99/99/99 101/101/101 106/106/106
f 102/102/102 106/106/106 101/101/101
f 106/106/106 104/104/104 99/99/99
f 103/103/103 107/107/107 102/102/102
f 106/106/106 102/102/102 107/107/107
f 107/107/107 103/103/103 108/108/108
f 105/105/105 104/104/104 109/109/109
f 109/109/109 110/110/110 105/105/105
f 104/104/104 106/106/106 111/111/111
f 107/107/107 111/111/111 106/106/106
f 111/111/111 109/109/109 104/104/104
f 108/108/108 112/112/112 107/107/107
f 111/111/111 107/107/107 112/112/112
f 112/112/112 108/108/108 113/113/113
f 110/110/110 109/109/109 114/114/114
f 114/114/114 115/115/115 110/110/110
f 115/115/115 114/114/114 116/116/116
f 109/109/109 111/111/111 117/117/117
f 112/112/112 117/117/117 111/111/111
f 117/117/117 114/114/114 109/109/109
f 113/113/113 118/118/118 112/112/112
f 117/117/117 112/112/112 118/118/118
f 118/118/118 113/113/113 119/119/119
f 120/120/120 116/116/116 114/114/114
f 114/114/114 117/117/117 120/120/120
f 118/118/118 120/120/120 117/117/117
f 116/116/116 120/120/120 121/121/121
f 119/119/119 122/122/122 118/118/118
f 120/120/120 118/118/118 122/122/122
f 122/122/122 121/121/121 120/120/120
f 122/122/122 119/119/119 123/123/123
f 121/121/121 122/122/122 124/124/124
f 123/123/123 124/124/124 122/122/122
f 124/124/124 123/123/123 125/125/125
