g SM_VFX_Trainer_Placed_Condensed
v 23.6863 -47.37265 11.37716
v 26.10197 -26.10197 4.577637E-05
v 47.37265 -47.37265 11.37716
v 13.05101 -26.10197 4.577637E-05
v -4.577637E-05 -47.37265 11.37716
v -4.577637E-05 -26.10197 4.577637E-05
v -13.05101 -26.10197 4.577637E-05
v -23.6863 -47.37265 11.37716
v -26.10197 -26.10197 4.577637E-05
v -47.37265 -47.37265 11.37716
v -23.6863 47.37265 11.37716
v -26.10197 26.10197 4.577637E-05
v -47.37265 47.37265 11.37716
v -13.05101 26.10197 4.577637E-05
v -4.577637E-05 47.37265 11.37716
v -4.577637E-05 26.10197 4.577637E-05
v 13.05101 26.10197 4.577637E-05
v 23.6863 47.37265 11.37716
v 26.10197 26.10197 4.577637E-05
v 47.37265 47.37265 11.37716
v 47.37265 23.6863 11.37716
v 26.10197 26.10197 4.577637E-05
v 47.37265 47.37265 11.37716
v 26.10197 13.05101 4.577637E-05
v 47.37265 4.577637E-05 11.37716
v 26.10197 4.577637E-05 4.577637E-05
v 26.10197 -13.05101 4.577637E-05
v 47.37265 -23.6863 11.37716
v 26.10197 -26.10197 4.577637E-05
v 47.37265 -47.37265 11.37716
v -47.37265 -23.6863 11.37716
v -26.10197 -26.10197 4.577637E-05
v -47.37265 -47.37265 11.37716
v -26.10197 -13.05101 4.577637E-05
v -47.37265 4.577637E-05 11.37716
v -26.10197 4.577637E-05 4.577637E-05
v -26.10197 13.05101 4.577637E-05
v -47.37265 23.6863 11.37716
v -26.10197 26.10197 4.577637E-05
v -47.37265 47.37265 11.37716
v 26.10197 13.05101 4.577637E-05
v 13.05101 26.10197 4.577637E-05
v 26.10197 26.10197 4.577637E-05
v -4.577637E-05 4.577637E-05 4.577637E-05
v 26.10197 4.577637E-05 4.577637E-05
v -4.577637E-05 26.10197 4.577637E-05
v 26.10197 -13.05101 4.577637E-05
v -13.05101 26.10197 4.577637E-05
v 26.10197 -26.10197 4.577637E-05
v -26.10197 26.10197 4.577637E-05
v 13.05101 -26.10197 4.577637E-05
v -26.10197 13.05101 4.577637E-05
v -4.577637E-05 -26.10197 4.577637E-05
v -26.10197 4.577637E-05 4.577637E-05
v -13.05101 -26.10197 4.577637E-05
v -26.10197 -13.05101 4.577637E-05
v -26.10197 -26.10197 4.577637E-05
vt 0.4375108 1
vt 0.5000113 -3.456208E-07
vt 0.5000113 1
vt 0.4375108 -3.456208E-07
vt 0.3750103 1
vt 0.3750103 -3.456208E-07
vt 0.3125174 -3.456208E-07
vt 0.3125174 1
vt 0.2500169 -3.456208E-07
vt 0.2500169 1
vt 0.9374995 1
vt 1 -3.456208E-07
vt 1 1
vt 0.9374995 -3.456208E-07
vt 0.874999 1
vt 0.874999 -3.456208E-07
vt 0.8125061 -3.456208E-07
vt 0.8125061 1
vt 0.7500057 -3.456208E-07
vt 0.7500057 1
vt 0.6875051 1
vt 0.7500057 -3.456208E-07
vt 0.7500057 1
vt 0.6875051 -3.456208E-07
vt 0.6250046 1
vt 0.6250046 -3.456208E-07
vt 0.5625117 -3.456208E-07
vt 0.5625117 1
vt 0.5000113 -3.456208E-07
vt 0.5000113 1
vt 0.1875164 1
vt 0.2500169 -3.456208E-07
vt 0.2500169 1
vt 0.1875164 -3.456208E-07
vt 0.1250159 1
vt 0.1250159 -3.456208E-07
vt 0.06252304 -3.456208E-07
vt 0.06252304 1
vt 2.254275E-05 -3.456208E-07
vt 2.254275E-05 1
vt 0.393855 0.0008770417
vt 0.3940839 0.001105925
vt 0.393855 0.001105925
vt 0.3943052 0.0006557875
vt 0.393855 0.0006557875
vt 0.3943052 0.001105925
vt 0.393855 0.0004269039
vt 0.3945341 0.001105925
vt 0.393855 0.0002056497
vt 0.3947553 0.001105925
vt 0.3940839 0.0002056497
vt 0.3947553 0.0008770417
vt 0.3943052 0.0002056497
vt 0.3947553 0.0006557875
vt 0.3945341 0.0002056497
vt 0.3947553 0.0004269039
vt 0.3947553 0.0002056497
vn 0.0004610419 0.4716472 0.8817872
vn 0.0004610419 0.4716472 0.8817872
vn 0.0004610419 0.4716472 0.8817872
vn 0.0004610419 0.4716472 0.8817872
vn 0.0004610419 0.4716472 0.8817872
vn 0.0004610419 0.4716472 0.8817872
vn 0.0004610419 0.4716472 0.8817872
vn 0.0004610419 0.4716472 0.8817872
vn 0.0004610419 0.4716472 0.8817872
vn 0.0004610419 0.4716472 0.8817872
vn 0.0004610419 -0.4716472 0.8817872
vn 0.0004610419 -0.4716472 0.8817872
vn 0.0004610419 -0.4716472 0.8817872
vn 0.0004610419 -0.4716472 0.8817872
vn 0.0004610419 -0.4716472 0.8817872
vn 0.0004610419 -0.4716472 0.8817872
vn 0.0004610419 -0.4716472 0.8817872
vn 0.0004610419 -0.4716472 0.8817872
vn 0.0004610419 -0.4716472 0.8817872
vn 0.0004610419 -0.4716472 0.8817872
vn -0.4716472 -0.0004610419 0.8817872
vn -0.4716472 -0.0004610419 0.8817872
vn -0.4716472 -0.0004610419 0.8817872
vn -0.4716472 -0.0004610419 0.8817872
vn -0.4716472 -0.0004610419 0.8817872
vn -0.4716472 -0.0004610419 0.8817872
vn -0.4716472 -0.0004610419 0.8817872
vn -0.4716472 -0.0004610419 0.8817872
vn -0.4716472 -0.0004610419 0.8817872
vn -0.4716472 -0.0004610419 0.8817872
vn 0.4716472 -0.0004610419 0.8817872
vn 0.4716472 -0.0004610419 0.8817872
vn 0.4716472 -0.0004610419 0.8817872
vn 0.4716472 -0.0004610419 0.8817872
vn 0.4716472 -0.0004610419 0.8817872
vn 0.4716472 -0.0004610419 0.8817872
vn 0.4716472 -0.0004610419 0.8817872
vn 0.4716472 -0.0004610419 0.8817872
vn 0.4716472 -0.0004610419 0.8817872
vn 0.4716472 -0.0004610419 0.8817872
vn 0.0004610419 -0.0004610419 0.9999998
vn 0.0004610419 -0.0004610419 0.9999998
vn 0.0004610419 -0.0004610419 0.9999998
vn 0.0004610419 -0.0004610419 0.9999998
vn 0.0004610419 -0.0004610419 0.9999998
vn 0.0004610419 -0.0004610419 0.9999998
vn 0.0004610419 -0.0004610419 0.9999998
vn 0.0004610419 -0.0004610419 0.9999998
vn 0.0004610419 -0.0004610419 0.9999998
vn 0.0004610419 -0.0004610419 0.9999998
vn 0.0004610419 -0.0004610419 0.9999998
vn 0.0004610419 -0.0004610419 0.9999998
vn 0.0004610419 -0.0004610419 0.9999998
vn 0.0004610419 -0.0004610419 0.9999998
vn 0.0004610419 -0.0004610419 0.9999998
vn 0.0004610419 -0.0004610419 0.9999998
vn 0.0004610419 -0.0004610419 0.9999998
g SM_VFX_Trainer_Placed_Condensed_0
f 3/3/3 2/2/2 1/1/1
f 2/2/2 4/4/4 1/1/1
f 1/1/1 4/4/4 5/5/5
f 4/4/4 6/6/6 5/5/5
f 5/5/5 6/6/6 7/7/7
f 8/8/8 5/5/5 7/7/7
f 7/7/7 9/9/9 8/8/8
f 9/9/9 10/10/10 8/8/8
f 13/13/13 12/12/12 11/11/11
f 12/12/12 14/14/14 11/11/11
f 11/11/11 14/14/14 15/15/15
f 14/14/14 16/16/16 15/15/15
f 15/15/15 16/16/16 17/17/17
f 18/18/18 15/15/15 17/17/17
f 17/17/17 19/19/19 18/18/18
f 19/19/19 20/20/20 18/18/18
f 23/23/23 22/22/22 21/21/21
f 22/22/22 24/24/24 21/21/21
f 21/21/21 24/24/24 25/25/25
f 24/24/24 26/26/26 25/25/25
f 25/25/25 26/26/26 27/27/27
f 28/28/28 25/25/25 27/27/27
f 27/27/27 29/29/29 28/28/28
f 29/29/29 30/30/30 28/28/28
f 33/33/33 32/32/32 31/31/31
f 32/32/32 34/34/34 31/31/31
f 31/31/31 34/34/34 35/35/35
f 34/34/34 36/36/36 35/35/35
f 35/35/35 36/36/36 37/37/37
f 38/38/38 35/35/35 37/37/37
f 37/37/37 39/39/39 38/38/38
f 39/39/39 40/40/40 38/38/38
f 43/43/43 42/42/42 41/41/41
f 42/42/42 44/44/44 41/41/41
f 44/44/44 45/45/45 41/41/41
f 44/44/44 42/42/42 46/46/46
f 44/44/44 47/47/47 45/45/45
f 46/46/46 48/48/48 44/44/44
f 49/49/49 47/47/47 44/44/44
f 48/48/48 50/50/50 44/44/44
f 51/51/51 49/49/49 44/44/44
f 50/50/50 52/52/52 44/44/44
f 53/53/53 51/51/51 44/44/44
f 44/44/44 52/52/52 54/54/54
f 44/44/44 55/55/55 53/53/53
f 44/44/44 54/54/54 56/56/56
f 55/55/55 44/44/44 56/56/56
f 57/57/57 55/55/55 56/56/56
