g SM_VFX_Colorless_Bend
v 2.674924 1.003096 0
v 2.340558 1.337462 0
v 2.674924 1.337462 0
v 2.340558 1.003096 0
v 2.674924 0.6687309 0
v 2.006193 1.337462 0
v 2.340558 0.6687309 0
v 2.674924 0.3343655 0
v 2.006193 1.003096 0
v 1.671827 1.337462 0
v 2.340558 0.3343655 0
v 2.674924 0 0
v 1.671827 1.003096 0
v 1.337462 1.337462 0
v 2.006193 0.6687309 0
v 2.340558 0 0
v 2.674924 -0.3343655 0
v 1.337462 1.003096 0
v 1.003096 1.337462 0
v 2.006193 0.3343655 0
v 1.671827 0.6687309 0
v 2.340558 -0.3343655 0
v 2.674924 -0.6687309 0
v 1.003096 1.003096 0
v 0.6687309 1.337462 0
v 2.006193 0 0
v 1.671827 0.3343655 0
v 1.337462 0.6687309 0
v 2.340558 -0.6687309 0
v 2.674924 -1.003096 0
v 0.6687309 1.003096 0
v 0.3343655 1.337462 0
v 2.006193 -0.3343655 0
v 1.671827 0 0
v 1.337462 0.3343655 0
v 1.003096 0.6687309 0
v 2.340558 -1.003096 0
v 2.674924 -1.337462 0
v 2.340558 -1.337462 0
v 2.006193 -0.6687309 0
v 2.006193 -1.003096 0
v 2.006193 -1.337462 0
v 1.671827 -0.3343655 0
v 1.337462 0 0
v 1.003096 0.3343655 0
v 1.671827 -1.003096 0
v 1.671827 -1.337462 0
v 1.671827 -0.6687309 0
v 1.337462 -0.3343655 0
v 1.337462 -1.003096 0
v 1.337462 -1.337462 0
v 1.337462 -0.6687309 0
v 1.003096 0 0
v 0.6687309 0.6687309 0
v 1.003096 -1.003096 0
v 1.003096 -1.337462 0
v 1.003096 -0.6687309 0
v 1.003096 -0.3343655 0
v 0.6687309 0.3343655 0
v 0.3343655 1.003096 0
v 0 1.337462 0
v 0.6687309 -1.003096 0
v 0.6687309 -1.337462 0
v 0.6687309 -0.6687309 0
v 0.6687309 0 0
v 0.6687309 -0.3343655 0
v 0.3343655 0.6687309 0
v 0 1.003096 0
v -0.3343655 1.337462 0
v 0.3343655 -1.003096 0
v 0.3343655 -1.337462 0
v 0.3343655 -0.6687309 0
v 0.3343655 -0.3343655 0
v 0.3343655 0 0
v -0.3343655 1.003096 0
v -0.6687309 1.337462 0
v 0 -1.003096 0
v 0 -1.337462 0
v 0 -0.6687309 0
v 0 -0.3343655 0
v -0.3343655 -1.003096 0
v -0.3343655 -1.337462 0
v -0.3343655 -0.6687309 0
v -0.6687309 -1.003096 0
v -0.6687309 -1.337462 0
v -0.6687309 1.003096 0
v -1.003096 1.337462 0
v 0 0 0
v -0.3343655 -0.3343655 0
v -0.6687309 -0.6687309 0
v -1.003096 -1.003096 0
v -1.003096 -1.337462 0
v -1.003096 1.003096 0
v -1.337462 1.337462 0
v -0.3343655 0 0
v -0.6687309 -0.3343655 0
v -1.003096 -0.6687309 0
v -1.337462 -1.003096 0
v -1.337462 -1.337462 0
v -1.337462 1.003096 0
v -1.671827 1.337462 0
v -0.6687309 0 0
v -1.003096 -0.3343655 0
v -1.337462 -0.6687309 0
v -1.671827 -1.003096 0
v -1.671827 -1.337462 0
v -1.671827 1.003096 0
v -2.006193 1.337462 0
v -1.003096 0 0
v -1.337462 -0.3343655 0
v -1.671827 -0.6687309 0
v -2.006193 -1.003096 0
v -2.006193 -1.337462 0
v -2.006193 1.003096 0
v -2.340558 1.337462 0
v -1.337462 0 0
v -1.671827 -0.3343655 0
v -2.006193 -0.6687309 0
v -2.340558 -1.003096 0
v -2.340558 -1.337462 0
v -2.674924 -1.003096 0
v -2.674924 -1.337462 0
v -2.674924 -0.6687309 0
v -2.340558 -0.6687309 0
v -2.674924 -0.3343655 0
v -2.340558 -0.3343655 0
v -2.674924 0 0
v -2.006193 -0.3343655 0
v -2.340558 0 0
v -2.674924 0.3343655 0
v -2.006193 0 0
v -2.340558 0.3343655 0
v -2.674924 0.6687309 0
v -1.671827 0 0
v -2.340558 0.6687309 0
v -2.674924 1.003096 0
v -2.006193 0.3343655 0
v -1.671827 0.3343655 0
v -2.340558 1.003096 0
v -2.674924 1.337462 0
v -2.006193 0.6687309 0
v -1.671827 0.6687309 0
v -1.337462 0.3343655 0
v -1.337462 0.6687309 0
v -1.003096 0.3343655 0
v -1.003096 0.6687309 0
v -0.6687309 0.3343655 0
v -0.6687309 0.6687309 0
v -0.3343655 0.3343655 0
v -0.3343655 0.6687309 0
v 0 0.3343655 0
v 0 0.6687309 0
v 0.3343655 0.3343655 0
vt 1 0.875
vt 0.9375 1
vt 1 1
vt 0.9375 0.875
vt 1 0.75
vt 0.875 1
vt 0.9375 0.75
vt 1 0.625
vt 0.875 0.875
vt 0.8125 1
vt 0.9375 0.625
vt 1 0.5
vt 0.8125 0.875
vt 0.75 1
vt 0.875 0.75
vt 0.9375 0.5
vt 1 0.375
vt 0.75 0.875
vt 0.6875 1
vt 0.875 0.625
vt 0.8125 0.75
vt 0.9375 0.375
vt 1 0.25
vt 0.6875 0.875
vt 0.625 1
vt 0.875 0.5
vt 0.8125 0.625
vt 0.75 0.75
vt 0.9375 0.25
vt 1 0.125
vt 0.625 0.875
vt 0.5625 1
vt 0.875 0.375
vt 0.8125 0.5
vt 0.75 0.625
vt 0.6875 0.75
vt 0.9375 0.125
vt 1 0
vt 0.9375 0
vt 0.875 0.25
vt 0.875 0.125
vt 0.875 0
vt 0.8125 0.375
vt 0.75 0.5
vt 0.6875 0.625
vt 0.8125 0.125
vt 0.8125 0
vt 0.8125 0.25
vt 0.75 0.375
vt 0.75 0.125
vt 0.75 0
vt 0.75 0.25
vt 0.6875 0.5
vt 0.625 0.75
vt 0.6875 0.125
vt 0.6875 0
vt 0.6875 0.25
vt 0.6875 0.375
vt 0.625 0.625
vt 0.5625 0.875
vt 0.5 1
vt 0.625 0.125
vt 0.625 0
vt 0.625 0.25
vt 0.625 0.5
vt 0.625 0.375
vt 0.5625 0.75
vt 0.5 0.875
vt 0.4375 1
vt 0.5625 0.125
vt 0.5625 0
vt 0.5625 0.25
vt 0.5625 0.375
vt 0.5625 0.5
vt 0.4375 0.875
vt 0.375 1
vt 0.5 0.125
vt 0.5 0
vt 0.5 0.25
vt 0.5 0.375
vt 0.4375 0.125
vt 0.4375 0
vt 0.4375 0.25
vt 0.375 0.125
vt 0.375 0
vt 0.375 0.875
vt 0.3125 1
vt 0.5 0.5
vt 0.4375 0.375
vt 0.375 0.25
vt 0.3125 0.125
vt 0.3125 0
vt 0.3125 0.875
vt 0.25 1
vt 0.4375 0.5
vt 0.375 0.375
vt 0.3125 0.25
vt 0.25 0.125
vt 0.25 0
vt 0.25 0.875
vt 0.1875 1
vt 0.375 0.5
vt 0.3125 0.375
vt 0.25 0.25
vt 0.1875 0.125
vt 0.1875 0
vt 0.1875 0.875
vt 0.125 1
vt 0.3125 0.5
vt 0.25 0.375
vt 0.1875 0.25
vt 0.125 0.125
vt 0.125 0
vt 0.125 0.875
vt 0.0625 1
vt 0.25 0.5
vt 0.1875 0.375
vt 0.125 0.25
vt 0.0625 0.125
vt 0.0625 0
vt 0 0.125
vt 0 0
vt 0 0.25
vt 0.0625 0.25
vt 0 0.375
vt 0.0625 0.375
vt 0 0.5
vt 0.125 0.375
vt 0.0625 0.5
vt 0 0.625
vt 0.125 0.5
vt 0.0625 0.625
vt 0 0.75
vt 0.1875 0.5
vt 0.0625 0.75
vt 0 0.875
vt 0.125 0.625
vt 0.1875 0.625
vt 0.0625 0.875
vt 0 1
vt 0.125 0.75
vt 0.1875 0.75
vt 0.25 0.625
vt 0.25 0.75
vt 0.3125 0.625
vt 0.3125 0.75
vt 0.375 0.625
vt 0.375 0.75
vt 0.4375 0.625
vt 0.4375 0.75
vt 0.5 0.625
vt 0.5 0.75
vt 0.5625 0.625
vn 0 0 1
vn 0 0 1
vn 0 0 1
vn 0 0 1
vn 0 0 1
vn 0 0 1
vn 0 0 1
vn 0 0 1
vn 0 0 1
vn 0 0 1
vn 0 0 1
vn 0 0 1
vn 0 0 1
vn 0 0 1
vn 0 0 1
vn 0 0 1
vn 0 0 1
vn 0 0 1
vn 0 0 1
vn 0 0 1
vn 0 0 1
vn 0 0 1
vn 0 0 1
vn 0 0 1
vn 0 0 1
vn 0 0 1
vn 0 0 1
vn 0 0 1
vn 0 0 1
vn 0 0 1
vn 0 0 1
vn 0 0 1
vn 0 0 1
vn 0 0 1
vn 0 0 1
vn 0 0 1
vn 0 0 1
vn 0 0 1
vn 0 0 1
vn 0 0 1
vn 0 0 1
vn 0 0 1
vn 0 0 1
vn 0 0 1
vn 0 0 1
vn 0 0 1
vn 0 0 1
vn 0 0 1
vn 0 0 1
vn 0 0 1
vn 0 0 1
vn 0 0 1
vn 0 0 1
vn 0 0 1
vn 0 0 1
vn 0 0 1
vn 0 0 1
vn 0 0 1
vn 0 0 1
vn 0 0 1
vn 0 0 1
vn 0 0 1
vn 0 0 1
vn 0 0 1
vn 0 0 1
vn 0 0 1
vn 0 0 1
vn 0 0 1
vn 0 0 1
vn 0 0 1
vn 0 0 1
vn 0 0 1
vn 0 0 1
vn 0 0 1
vn 0 0 1
vn 0 0 1
vn 0 0 1
vn 0 0 1
vn 0 0 1
vn 0 0 1
vn 0 0 1
vn 0 0 1
vn 0 0 1
vn 0 0 1
vn 0 0 1
vn 0 0 1
vn 0 0 1
vn 0 0 1
vn 0 0 1
vn 0 0 1
vn 0 0 1
vn 0 0 1
vn 0 0 1
vn 0 0 1
vn 0 0 1
vn 0 0 1
vn 0 0 1
vn 0 0 1
vn 0 0 1
vn 0 0 1
vn 0 0 1
vn 0 0 1
vn 0 0 1
vn 0 0 1
vn 0 0 1
vn 0 0 1
vn 0 0 1
vn 0 0 1
vn 0 0 1
vn 0 0 1
vn 0 0 1
vn 0 0 1
vn 0 0 1
vn 0 0 1
vn 0 0 1
vn 0 0 1
vn 0 0 1
vn 0 0 1
vn 0 0 1
vn 0 0 1
vn 0 0 1
vn 0 0 1
vn 0 0 1
vn 0 0 1
vn 0 0 1
vn 0 0 1
vn 0 0 1
vn 0 0 1
vn 0 0 1
vn 0 0 1
vn 0 0 1
vn 0 0 1
vn 0 0 1
vn 0 0 1
vn 0 0 1
vn 0 0 1
vn 0 0 1
vn 0 0 1
vn 0 0 1
vn 0 0 1
vn 0 0 1
vn 0 0 1
vn 0 0 1
vn 0 0 1
vn 0 0 1
vn 0 0 1
vn 0 0 1
vn 0 0 1
vn 0 0 1
vn 0 0 1
vn 0 0 1
vn 0 0 1
vn 0 0 1
g SM_VFX_Colorless_Bend_0
f 3/3/3 2/2/2 1/1/1
f 2/2/2 4/4/4 1/1/1
f 1/1/1 4/4/4 5/5/5
f 2/2/2 6/6/6 4/4/4
f 4/4/4 7/7/7 5/5/5
f 5/5/5 7/7/7 8/8/8
f 6/6/6 9/9/9 4/4/4
f 4/4/4 9/9/9 7/7/7
f 6/6/6 10/10/10 9/9/9
f 7/7/7 11/11/11 8/8/8
f 8/8/8 11/11/11 12/12/12
f 10/10/10 13/13/13 9/9/9
f 10/10/10 14/14/14 13/13/13
f 9/9/9 15/15/15 7/7/7
f 7/7/7 15/15/15 11/11/11
f 9/9/9 13/13/13 15/15/15
f 11/11/11 16/16/16 12/12/12
f 12/12/12 16/16/16 17/17/17
f 14/14/14 18/18/18 13/13/13
f 14/14/14 19/19/19 18/18/18
f 15/15/15 20/20/20 11/11/11
f 11/11/11 20/20/20 16/16/16
f 13/13/13 21/21/21 15/15/15
f 13/13/13 18/18/18 21/21/21
f 15/15/15 21/21/21 20/20/20
f 16/16/16 22/22/22 17/17/17
f 17/17/17 22/22/22 23/23/23
f 19/19/19 24/24/24 18/18/18
f 19/19/19 25/25/25 24/24/24
f 20/20/20 26/26/26 16/16/16
f 16/16/16 26/26/26 22/22/22
f 21/21/21 27/27/27 20/20/20
f 20/20/20 27/27/27 26/26/26
f 18/18/18 28/28/28 21/21/21
f 18/18/18 24/24/24 28/28/28
f 21/21/21 28/28/28 27/27/27
f 22/22/22 29/29/29 23/23/23
f 23/23/23 29/29/29 30/30/30
f 25/25/25 31/31/31 24/24/24
f 25/25/25 32/32/32 31/31/31
f 26/26/26 33/33/33 22/22/22
f 22/22/22 33/33/33 29/29/29
f 27/27/27 34/34/34 26/26/26
f 26/26/26 34/34/34 33/33/33
f 28/28/28 35/35/35 27/27/27
f 27/27/27 35/35/35 34/34/34
f 24/24/24 36/36/36 28/28/28
f 24/24/24 31/31/31 36/36/36
f 28/28/28 36/36/36 35/35/35
f 29/29/29 37/37/37 30/30/30
f 30/30/30 37/37/37 38/38/38
f 37/37/37 39/39/39 38/38/38
f 33/33/33 40/40/40 29/29/29
f 29/29/29 40/40/40 37/37/37
f 37/37/37 41/41/41 39/39/39
f 40/40/40 41/41/41 37/37/37
f 41/41/41 42/42/42 39/39/39
f 34/34/34 43/43/43 33/33/33
f 33/33/33 43/43/43 40/40/40
f 35/35/35 44/44/44 34/34/34
f 34/34/34 44/44/44 43/43/43
f 36/36/36 45/45/45 35/35/35
f 35/35/35 45/45/45 44/44/44
f 41/41/41 46/46/46 42/42/42
f 46/46/46 47/47/47 42/42/42
f 40/40/40 48/48/48 41/41/41
f 43/43/43 48/48/48 40/40/40
f 48/48/48 46/46/46 41/41/41
f 44/44/44 49/49/49 43/43/43
f 43/43/43 49/49/49 48/48/48
f 46/46/46 50/50/50 47/47/47
f 50/50/50 51/51/51 47/47/47
f 48/48/48 52/52/52 46/46/46
f 49/49/49 52/52/52 48/48/48
f 52/52/52 50/50/50 46/46/46
f 44/44/44 53/53/53 49/49/49
f 45/45/45 53/53/53 44/44/44
f 36/36/36 54/54/54 45/45/45
f 31/31/31 54/54/54 36/36/36
f 50/50/50 55/55/55 51/51/51
f 55/55/55 56/56/56 51/51/51
f 52/52/52 57/57/57 50/50/50
f 57/57/57 55/55/55 50/50/50
f 49/49/49 58/58/58 52/52/52
f 53/53/53 58/58/58 49/49/49
f 58/58/58 57/57/57 52/52/52
f 45/45/45 59/59/59 53/53/53
f 54/54/54 59/59/59 45/45/45
f 31/31/31 60/60/60 54/54/54
f 32/32/32 60/60/60 31/31/31
f 32/32/32 61/61/61 60/60/60
f 55/55/55 62/62/62 56/56/56
f 62/62/62 63/63/63 56/56/56
f 57/57/57 64/64/64 55/55/55
f 64/64/64 62/62/62 55/55/55
f 53/53/53 65/65/65 58/58/58
f 59/59/59 65/65/65 53/53/53
f 58/58/58 66/66/66 57/57/57
f 66/66/66 64/64/64 57/57/57
f 65/65/65 66/66/66 58/58/58
f 54/54/54 67/67/67 59/59/59
f 60/60/60 67/67/67 54/54/54
f 61/61/61 68/68/68 60/60/60
f 60/60/60 68/68/68 67/67/67
f 61/61/61 69/69/69 68/68/68
f 62/62/62 70/70/70 63/63/63
f 70/70/70 71/71/71 63/63/63
f 64/64/64 72/72/72 62/62/62
f 72/72/72 70/70/70 62/62/62
f 66/66/66 73/73/73 64/64/64
f 73/73/73 72/72/72 64/64/64
f 65/65/65 74/74/74 66/66/66
f 74/74/74 73/73/73 66/66/66
f 69/69/69 75/75/75 68/68/68
f 69/69/69 76/76/76 75/75/75
f 70/70/70 77/77/77 71/71/71
f 77/77/77 78/78/78 71/71/71
f 72/72/72 79/79/79 70/70/70
f 79/79/79 77/77/77 70/70/70
f 73/73/73 80/80/80 72/72/72
f 80/80/80 79/79/79 72/72/72
f 77/77/77 81/81/81 78/78/78
f 81/81/81 82/82/82 78/78/78
f 79/79/79 83/83/83 77/77/77
f 83/83/83 81/81/81 77/77/77
f 81/81/81 84/84/84 82/82/82
f 84/84/84 85/85/85 82/82/82
f 76/76/76 86/86/86 75/75/75
f 76/76/76 87/87/87 86/86/86
f 88/88/88 80/80/80 73/73/73
f 74/74/74 88/88/88 73/73/73
f 80/80/80 89/89/89 79/79/79
f 89/89/89 83/83/83 79/79/79
f 83/83/83 90/90/90 81/81/81
f 90/90/90 84/84/84 81/81/81
f 84/84/84 91/91/91 85/85/85
f 91/91/91 92/92/92 85/85/85
f 87/87/87 93/93/93 86/86/86
f 87/87/87 94/94/94 93/93/93
f 88/88/88 95/95/95 80/80/80
f 95/95/95 89/89/89 80/80/80
f 89/89/89 96/96/96 83/83/83
f 96/96/96 90/90/90 83/83/83
f 90/90/90 97/97/97 84/84/84
f 97/97/97 91/91/91 84/84/84
f 91/91/91 98/98/98 92/92/92
f 98/98/98 99/99/99 92/92/92
f 94/94/94 100/100/100 93/93/93
f 94/94/94 101/101/101 100/100/100
f 95/95/95 102/102/102 89/89/89
f 102/102/102 96/96/96 89/89/89
f 96/96/96 103/103/103 90/90/90
f 103/103/103 97/97/97 90/90/90
f 97/97/97 104/104/104 91/91/91
f 104/104/104 98/98/98 91/91/91
f 98/98/98 105/105/105 99/99/99
f 105/105/105 106/106/106 99/99/99
f 101/101/101 107/107/107 100/100/100
f 101/101/101 108/108/108 107/107/107
f 102/102/102 109/109/109 96/96/96
f 109/109/109 103/103/103 96/96/96
f 103/103/103 110/110/110 97/97/97
f 110/110/110 104/104/104 97/97/97
f 104/104/104 111/111/111 98/98/98
f 111/111/111 105/105/105 98/98/98
f 105/105/105 112/112/112 106/106/106
f 112/112/112 113/113/113 106/106/106
f 108/108/108 114/114/114 107/107/107
f 108/108/108 115/115/115 114/114/114
f 109/109/109 116/116/116 103/103/103
f 116/116/116 110/110/110 103/103/103
f 110/110/110 117/117/117 104/104/104
f 117/117/117 111/111/111 104/104/104
f 111/111/111 118/118/118 105/105/105
f 118/118/118 112/112/112 105/105/105
f 112/112/112 119/119/119 113/113/113
f 119/119/119 120/120/120 113/113/113
f 119/119/119 121/121/121 120/120/120
f 121/121/121 122/122/122 120/120/120
f 123/123/123 121/121/121 119/119/119
f 124/124/124 119/119/119 112/112/112
f 124/124/124 123/123/123 119/119/119
f 118/118/118 124/124/124 112/112/112
f 125/125/125 123/123/123 124/124/124
f 126/126/126 125/125/125 124/124/124
f 126/126/126 124/124/124 118/118/118
f 127/127/127 125/125/125 126/126/126
f 128/128/128 118/118/118 111/111/111
f 128/128/128 126/126/126 118/118/118
f 117/117/117 128/128/128 111/111/111
f 129/129/129 127/127/127 126/126/126
f 129/129/129 126/126/126 128/128/128
f 130/130/130 127/127/127 129/129/129
f 131/131/131 128/128/128 117/117/117
f 131/131/131 129/129/129 128/128/128
f 132/132/132 130/130/130 129/129/129
f 132/132/132 129/129/129 131/131/131
f 133/133/133 130/130/130 132/132/132
f 134/134/134 131/131/131 117/117/117
f 134/134/134 117/117/117 110/110/110
f 116/116/116 134/134/134 110/110/110
f 135/135/135 133/133/133 132/132/132
f 136/136/136 133/133/133 135/135/135
f 137/137/137 132/132/132 131/131/131
f 137/137/137 131/131/131 134/134/134
f 135/135/135 132/132/132 137/137/137
f 138/138/138 134/134/134 116/116/116
f 138/138/138 137/137/137 134/134/134
f 139/139/139 136/136/136 135/135/135
f 140/140/140 136/136/136 139/139/139
f 115/115/115 140/140/140 139/139/139
f 115/115/115 139/139/139 114/114/114
f 141/141/141 135/135/135 137/137/137
f 139/139/139 135/135/135 141/141/141
f 114/114/114 139/139/139 141/141/141
f 141/141/141 137/137/137 138/138/138
f 114/114/114 141/141/141 142/142/142
f 142/142/142 141/141/141 138/138/138
f 107/107/107 114/114/114 142/142/142
f 143/143/143 138/138/138 116/116/116
f 142/142/142 138/138/138 143/143/143
f 143/143/143 116/116/116 109/109/109
f 107/107/107 142/142/142 144/144/144
f 144/144/144 142/142/142 143/143/143
f 100/100/100 107/107/107 144/144/144
f 145/145/145 143/143/143 109/109/109
f 144/144/144 143/143/143 145/145/145
f 145/145/145 109/109/109 102/102/102
f 100/100/100 144/144/144 146/146/146
f 146/146/146 144/144/144 145/145/145
f 93/93/93 100/100/100 146/146/146
f 147/147/147 145/145/145 102/102/102
f 146/146/146 145/145/145 147/147/147
f 147/147/147 102/102/102 95/95/95
f 93/93/93 146/146/146 148/148/148
f 148/148/148 146/146/146 147/147/147
f 86/86/86 93/93/93 148/148/148
f 149/149/149 147/147/147 95/95/95
f 148/148/148 147/147/147 149/149/149
f 149/149/149 95/95/95 88/88/88
f 86/86/86 148/148/148 150/150/150
f 150/150/150 148/148/148 149/149/149
f 75/75/75 86/86/86 150/150/150
f 151/151/151 149/149/149 88/88/88
f 150/150/150 149/149/149 151/151/151
f 151/151/151 88/88/88 74/74/74
f 75/75/75 150/150/150 152/152/152
f 152/152/152 150/150/150 151/151/151
f 68/68/68 75/75/75 152/152/152
f 68/68/68 152/152/152 67/67/67
f 153/153/153 151/151/151 74/74/74
f 152/152/152 151/151/151 153/153/153
f 67/67/67 152/152/152 153/153/153
f 153/153/153 74/74/74 65/65/65
f 67/67/67 153/153/153 59/59/59
f 59/59/59 153/153/153 65/65/65
