g SM_VFX_Water_Board_border_Outline
v -42.71248 19.12603 2.407251
v -35.61145 3.748487 2.407251
v -43.03324 19.21189 2.407251
v -35.2811 3.682138 2.407251
v -42.25575 19.00784 2.407251
v -34.85245 3.598518 2.407251
v -41.5271 18.82499 2.407251
v -34.22718 3.48035 2.407252
v -40.65739 18.61283 2.407251
v -33.50317 3.347468 2.407253
v -39.77753 18.4067 2.407251
v -32.7783 3.219701 2.407254
v -38.89122 18.20508 2.407251
v -32.05167 3.095381 2.407255
v -38.00218 18.00644 2.407251
v -31.32242 2.97284 2.407256
v -37.10711 17.81244 2.407251
v -30.58798 2.853107 2.407256
v -36.20271 17.62467 2.407251
v -29.84577 2.737216 2.407255
v -35.29242 17.44155 2.407251
v -29.09851 2.624152 2.407254
v -34.37971 17.26146 2.407251
v -28.34888 2.512905 2.407254
v -33.46156 17.0861 2.407251
v -27.59456 2.404552 2.407254
v -32.53493 16.9172 2.407251
v -26.83319 2.300169 2.407253
v -31.60301 16.75304 2.407251
v -26.06724 2.198695 2.407253
v -30.66897 16.59195 2.407251
v -25.29919 2.099066 2.407252
v -29.73008 16.4357 2.407251
v -24.52695 2.002406 2.407252
v -28.78363 16.28608 2.407251
v -23.74839 1.909837 2.407252
v -27.83248 16.14132 2.407251
v -22.96577 1.820251 2.407253
v -26.8795 15.99963 2.407251
v -22.1813 1.732534 2.407253
v -25.92228 15.86289 2.407251
v -21.39315 1.647851 2.407253
v -24.95843 15.73294 2.407251
v -20.59946 1.567369 2.407253
v -23.99049 15.60794 2.407251
v -19.80222 1.489932 2.407253
v -23.02099 15.48603 2.407251
v -19.0034 1.414387 2.407252
v -22.0479 15.36915 2.407251
v -18.20142 1.341935 2.407252
v -21.06914 15.2592 2.407251
v -17.39471 1.273777 2.407251
v -20.08691 15.15427 2.407251
v -16.58497 1.208722 2.407251
v -19.1034 15.05247 2.407251
v -15.77391 1.145576 2.407251
v -18.11691 14.95574 2.407251
v -14.96024 1.085572 2.407251
v -17.12576 14.86607 2.407251
v -14.14268 1.029943 2.40725
v -16.13176 14.7815 2.407251
v -13.32262 0.9774627 2.40725
v -15.13675 14.70004 2.407251
v -12.5015 0.9269084 2.407251
v -14.1394 14.62373 2.407251
v -11.67833 0.8795368 2.407251
v -13.1384 14.55458 2.407251
v -10.85209 0.8366038 2.407251
v -12.13519 14.49056 2.407251
v -10.02393 0.7968591 2.407252
v -11.13123 14.42968 2.407251
v -9.19499 0.759052 2.407252
v -10.12558 14.37398 2.407251
v -8.357954 0.7242365 2.407253
v -9.117313 14.32551 2.407251
v -7.505501 0.6934668 2.407253
v -7.970833 14.27896 2.407251
v -6.553285 0.6642548 2.407253
v -6.550556 14.22906 2.407251
v -5.416938 0.6341122 2.407253
v -5.094909 14.18359 2.407251
v -4.26068 0.6069924 2.407254
v -3.842319 14.15035 2.407251
v -3.248699 0.5868493 2.407254
v -2.642616 14.12605 2.407251
v -2.255208 0.5718009 2.407254
v -1.345629 14.10738 2.407251
v -1.15443 0.5599653 2.407254
v 2.863616E-07 14.09945 2.407251
v 7.016962E-08 0.554851 2.407254
v 1.34563 14.10738 2.407251
v 1.154424 0.5599653 2.407254
v 2.642617 14.12605 2.407251
v 2.255212 0.5718004 2.407254
v 3.84232 14.15035 2.407251
v 3.248699 0.5868486 2.407254
v 5.094909 14.18359 2.407251
v 4.260674 0.6069917 2.407254
v 6.550556 14.22906 2.407251
v 5.416938 0.6341115 2.407253
v 7.970833 14.27896 2.407251
v 6.55328 0.6642541 2.407253
v 9.117313 14.32551 2.407251
v 7.505504 0.6934661 2.407253
v 10.12558 14.37398 2.407251
v 8.357959 0.7242357 2.407253
v 11.13123 14.42968 2.407251
v 9.194988 0.759051 2.407252
v 12.13519 14.49056 2.407251
v 10.02393 0.796858 2.407252
v 13.1384 14.55457 2.407251
v 10.85209 0.8366024 2.407251
v 14.1394 14.62373 2.407251
v 11.67832 0.8795351 2.407251
v 15.13675 14.70004 2.407251
v 12.5015 0.926907 2.407251
v 16.13176 14.7815 2.407251
v 13.32262 0.9774613 2.40725
v 17.12576 14.86607 2.407251
v 14.14267 1.029941 2.40725
v 18.11691 14.95574 2.407251
v 14.96024 1.085571 2.407251
v 19.1034 15.05246 2.407251
v 15.77391 1.145574 2.407251
v 20.08691 15.15427 2.407251
v 16.58497 1.208719 2.407251
v 21.06914 15.2592 2.407251
v 17.39471 1.273775 2.407251
v 22.0479 15.36915 2.407251
v 18.20142 1.341933 2.407252
v 23.02099 15.48603 2.407251
v 19.0034 1.414385 2.407252
v 23.99049 15.60793 2.407251
v 19.80222 1.48993 2.407253
v 24.95843 15.73294 2.407251
v 20.59946 1.567366 2.407253
v 25.92228 15.86289 2.407251
v 21.39315 1.647849 2.407253
v 26.8795 15.99963 2.407251
v 22.1813 1.732531 2.407253
v 27.83248 16.14131 2.407251
v 22.96577 1.820248 2.407253
v 28.78363 16.28607 2.407251
v 23.74839 1.909835 2.407252
v 29.73008 16.43569 2.407251
v 24.52694 2.002403 2.407252
v 30.66897 16.59194 2.407251
v 25.29919 2.099063 2.407252
v 31.60301 16.75304 2.407251
v 26.06724 2.198692 2.407253
v 32.53493 16.91719 2.407251
v 26.83319 2.300166 2.407253
v 33.46156 17.0861 2.407251
v 27.59456 2.404548 2.407254
v 34.37971 17.26146 2.407251
v 28.34888 2.512902 2.407254
v 35.29242 17.44155 2.407251
v 29.09851 2.624149 2.407254
v 36.20271 17.62467 2.407251
v 29.84577 2.737212 2.407255
v 37.10711 17.81243 2.407251
v 30.58798 2.853104 2.407255
v 38.00218 18.00644 2.407251
v 31.32241 2.972836 2.407256
v 38.89122 18.20507 2.407251
v 32.05167 3.095377 2.407255
v 39.77753 18.40669 2.407251
v 32.7783 3.219697 2.407254
v 40.65739 18.61282 2.407251
v 33.50317 3.347463 2.407253
v 41.5271 18.82499 2.407251
v 34.22717 3.480346 2.407252
v 42.25575 19.00784 2.407251
v 34.85244 3.598513 2.407251
v 42.71248 19.12603 2.407251
v 35.2811 3.682134 2.407251
v 43.03324 19.21189 2.407251
v 35.61145 3.748482 2.407251
vt 0.9864338 1
vt 1 0.8166698
vt 1 1
vt 0.9864338 0.8166698
vt 0.9721424 1
vt 0.9721424 0.8166698
vt 0.956402 1
vt 0.956402 0.8166698
vt 0.9401299 1
vt 0.9401299 0.8166698
vt 0.9242444 1
vt 0.9242444 0.8166698
vt 0.9086916 1
vt 0.9086916 0.8166698
vt 0.8934181 1
vt 0.8934181 0.8166698
vt 0.8784322 1
vt 0.8784322 0.8166698
vt 0.8637413 1
vt 0.8637413 0.8166698
vt 0.8493384 1
vt 0.8493385 0.8166698
vt 0.8352164 1
vt 0.8352164 0.8166698
vt 0.8213829 1
vt 0.8213829 0.8166698
vt 0.8078451 1
vt 0.8078451 0.8166698
vt 0.7945949 1
vt 0.7945948 0.8166698
vt 0.7816238 1
vt 0.7816238 0.8166698
vt 0.7689387 1
vt 0.7689387 0.8166698
vt 0.7565466 1
vt 0.7565466 0.8166698
vt 0.7444377 1
vt 0.7444377 0.8166698
vt 0.7326021 1
vt 0.7326021 0.8166698
vt 0.7210459 1
vt 0.7210459 0.8166698
vt 0.709775 1
vt 0.709775 0.8166698
vt 0.6987779 1
vt 0.698778 0.8166698
vt 0.6880431 1
vt 0.6880431 0.8166698
vt 0.6775754 1
vt 0.6775754 0.8166698
vt 0.6673791 1
vt 0.6673791 0.8166698
vt 0.6574405 1
vt 0.6574405 0.8166698
vt 0.6477458 1
vt 0.6477458 0.8166698
vt 0.6382978 1
vt 0.6382978 0.8166698
vt 0.6290991 1
vt 0.6290991 0.8166698
vt 0.6201329 1
vt 0.6201329 0.8166698
vt 0.6113822 1
vt 0.6113822 0.8166698
vt 0.6028473 1
vt 0.6028473 0.8166698
vt 0.5945282 1
vt 0.5945282 0.8166698
vt 0.5864044 1
vt 0.5864044 0.8166698
vt 0.5784553 1
vt 0.5784553 0.8166698
vt 0.5702016 1
vt 0.5702016 0.8166698
vt 0.5611636 1
vt 0.5611636 0.8166698
vt 0.5517148 1
vt 0.5517148 0.8166698
vt 0.5422284 1
vt 0.5422284 0.8166698
vt 0.532957 1
vt 0.532957 0.8166698
vt 0.5241531 1
vt 0.5241531 0.8166698
vt 0.5153687 1
vt 0.5153687 0.8166698
vt 0.5061557 1
vt 0.5061557 0.8166698
vt 0.4968622 1
vt 0.4968622 0.8166698
vt 0.4878372 1
vt 0.4878372 0.8166698
vt 0.4787926 1
vt 0.4787926 0.8166698
vt 0.4694406 1
vt 0.4694406 0.8166698
vt 0.4595669 1
vt 0.4595669 0.8166698
vt 0.4489574 1
vt 0.4489574 0.8166698
vt 0.4387346 1
vt 0.4387346 0.8166698
vt 0.4300217 1
vt 0.4300217 0.8166698
vt 0.4220041 1
vt 0.4220041 0.8166698
vt 0.4138676 1
vt 0.4138676 0.8166698
vt 0.4055702 1
vt 0.4055702 0.8166698
vt 0.3970698 1
vt 0.3970698 0.8166698
vt 0.3883541 1
vt 0.3883541 0.8166698
vt 0.3794113 1
vt 0.3794113 0.8166698
vt 0.3702373 1
vt 0.3702373 0.8166698
vt 0.3608282 1
vt 0.3608282 0.8166698
vt 0.3511729 1
vt 0.3511729 0.8166698
vt 0.3412601 1
vt 0.3412601 0.8166698
vt 0.3310904 1
vt 0.3310904 0.8166698
vt 0.3206643 1
vt 0.3206643 0.8166698
vt 0.3099714 1
vt 0.3099714 0.8166698
vt 0.2990012 1
vt 0.2990012 0.8166698
vt 0.2877577 1
vt 0.2877577 0.8166698
vt 0.2762446 1
vt 0.2762446 0.8166698
vt 0.264452 1
vt 0.264452 0.8166698
vt 0.2523702 1
vt 0.2523702 0.8166698
vt 0.2400054 1
vt 0.2400054 0.8166698
vt 0.2273637 1
vt 0.2273637 0.8166698
vt 0.2144357 1
vt 0.2144357 0.8166698
vt 0.2012122 1
vt 0.2012122 0.8166698
vt 0.1877012 1
vt 0.1877012 0.8166698
vt 0.1739103 1
vt 0.1739103 0.8166698
vt 0.1598309 1
vt 0.1598309 0.8166698
vt 0.1454541 1
vt 0.1454541 0.8166698
vt 0.1307891 1
vt 0.1307891 0.8166698
vt 0.1158445 1
vt 0.1158445 0.8166698
vt 0.1006122 1
vt 0.1006122 0.8166698
vt 0.0850842 1
vt 0.0850842 0.8166698
vt 0.06927016 1
vt 0.06927016 0.8166698
vt 0.05317983 1
vt 0.05317983 0.8166698
vt 0.03836569 1
vt 0.03836569 0.8166698
vt 0.02638021 1
vt 0.02638021 0.8166698
vt 0.01647574 1
vt 0.01647574 0.8166698
vt 0.00790447 1
vt 0.00790447 0.8166698
vt -1.490116E-07 1
vt -1.490116E-07 0.8166698
vn 0 0 1
vn 0 0 1
vn 0 0 1
vn 0 0 1
vn 0 0 1
vn 0 0 1
vn 0 0 1
vn 0 0 1
vn 0 0 1
vn 0 0 1
vn 0 0 1
vn 0 0 1
vn 0 0 1
vn 0 0 1
vn 0 0 1
vn 0 0 1
vn 0 0 1
vn 0 0 1
vn 0 0 1
vn 0 0 1
vn 0 0 1
vn 0 0 1
vn 0 0 1
vn 0 0 1
vn 0 0 1
vn 0 0 1
vn 0 0 1
vn 0 0 1
vn 0 0 1
vn 0 0 1
vn 0 0 1
vn 0 0 1
vn 0 0 1
vn 0 0 1
vn 0 0 1
vn 0 0 1
vn 0 0 1
vn 0 0 1
vn 0 0 1
vn 0 0 1
vn 0 0 1
vn 0 0 1
vn 0 0 1
vn 0 0 1
vn 0 0 1
vn 0 0 1
vn 0 0 1
vn 0 0 1
vn 0 0 1
vn 0 0 1
vn 0 0 1
vn 0 0 1
vn 0 0 1
vn 0 0 1
vn 0 0 1
vn 0 0 1
vn 0 0 1
vn 0 0 1
vn 0 0 1
vn 0 0 1
vn 0 0 1
vn 0 0 1
vn 0 0 1
vn 0 0 1
vn 0 0 1
vn 0 0 1
vn 0 0 1
vn 0 0 1
vn 0 0 1
vn 0 0 1
vn 0 0 1
vn 0 0 1
vn 0 0 1
vn 0 0 1
vn 0 0 1
vn 0 0 1
vn 0 0 1
vn 0 0 1
vn 0 0 1
vn 0 0 1
vn 0 0 1
vn 0 0 1
vn 0 0 1
vn 0 0 1
vn 0 0 1
vn 0 0 1
vn 0 0 1
vn 0 0 1
vn 0 0 1
vn 0 0 1
vn 0 0 1
vn 0 0 1
vn 0 0 1
vn 0 0 1
vn 0 0 1
vn 0 0 1
vn 0 0 1
vn 0 0 1
vn 0 0 1
vn 0 0 1
vn 0 0 1
vn 0 0 1
vn 0 0 1
vn 0 0 1
vn 0 0 1
vn 0 0 1
vn 0 0 1
vn 0 0 1
vn 0 0 1
vn 0 0 1
vn 0 0 1
vn 0 0 1
vn 0 0 1
vn 0 0 1
vn 0 0 1
vn 0 0 1
vn 0 0 1
vn 0 0 1
vn 0 0 1
vn 0 0 1
vn 0 0 1
vn 0 0 1
vn 0 0 1
vn 0 0 1
vn 0 0 1
vn 0 0 1
vn 0 0 1
vn 0 0 1
vn 0 0 1
vn 0 0 1
vn 0 0 1
vn 0 0 1
vn 0 0 1
vn 0 0 1
vn 0 0 1
vn 0 0 1
vn 0 0 1
vn 0 0 1
vn 0 0 1
vn 0 0 1
vn 0 0 1
vn 0 0 1
vn 0 0 1
vn 0 0 1
vn 0 0 1
vn 0 0 1
vn 0 0 1
vn 0 0 1
vn 0 0 1
vn 0 0 1
vn 0 0 1
vn 0 0 1
vn 0 0 1
vn 0 0 1
vn 0 0 1
vn 0 0 1
vn 0 0 1
vn 0 0 1
vn 0 0 1
vn 0 0 1
vn 0 0 1
vn 0 0 1
vn 0 0 1
vn 0 0 1
vn 0 0 1
vn 0 0 1
vn 0 0 1
vn 0 0 1
vn 0 0 1
vn 0 0 1
vn 0 0 1
vn 0 0 1
vn 0 0 1
vn 0 0 1
vn 0 0 1
vn 0 0 1
vn 0 0 1
vn 0 0 1
g SM_VFX_Water_Board_border_Outline_0
f 3/3/3 2/2/2 1/1/1
f 2/2/2 4/4/4 1/1/1
f 1/1/1 4/4/4 5/5/5
f 4/4/4 6/6/6 5/5/5
f 5/5/5 6/6/6 7/7/7
f 6/6/6 8/8/8 7/7/7
f 7/7/7 8/8/8 9/9/9
f 8/8/8 10/10/10 9/9/9
f 9/9/9 10/10/10 11/11/11
f 10/10/10 12/12/12 11/11/11
f 11/11/11 12/12/12 13/13/13
f 12/12/12 14/14/14 13/13/13
f 13/13/13 14/14/14 15/15/15
f 14/14/14 16/16/16 15/15/15
f 15/15/15 16/16/16 17/17/17
f 16/16/16 18/18/18 17/17/17
f 17/17/17 18/18/18 19/19/19
f 18/18/18 20/20/20 19/19/19
f 19/19/19 20/20/20 21/21/21
f 20/20/20 22/22/22 21/21/21
f 21/21/21 22/22/22 23/23/23
f 22/22/22 24/24/24 23/23/23
f 23/23/23 24/24/24 25/25/25
f 24/24/24 26/26/26 25/25/25
f 25/25/25 26/26/26 27/27/27
f 26/26/26 28/28/28 27/27/27
f 27/27/27 28/28/28 29/29/29
f 28/28/28 30/30/30 29/29/29
f 29/29/29 30/30/30 31/31/31
f 30/30/30 32/32/32 31/31/31
f 31/31/31 32/32/32 33/33/33
f 32/32/32 34/34/34 33/33/33
f 33/33/33 34/34/34 35/35/35
f 34/34/34 36/36/36 35/35/35
f 35/35/35 36/36/36 37/37/37
f 36/36/36 38/38/38 37/37/37
f 37/37/37 38/38/38 39/39/39
f 38/38/38 40/40/40 39/39/39
f 39/39/39 40/40/40 41/41/41
f 40/40/40 42/42/42 41/41/41
f 41/41/41 42/42/42 43/43/43
f 42/42/42 44/44/44 43/43/43
f 43/43/43 44/44/44 45/45/45
f 44/44/44 46/46/46 45/45/45
f 45/45/45 46/46/46 47/47/47
f 46/46/46 48/48/48 47/47/47
f 47/47/47 48/48/48 49/49/49
f 48/48/48 50/50/50 49/49/49
f 49/49/49 50/50/50 51/51/51
f 50/50/50 52/52/52 51/51/51
f 51/51/51 52/52/52 53/53/53
f 52/52/52 54/54/54 53/53/53
f 53/53/53 54/54/54 55/55/55
f 54/54/54 56/56/56 55/55/55
f 55/55/55 56/56/56 57/57/57
f 56/56/56 58/58/58 57/57/57
f 57/57/57 58/58/58 59/59/59
f 58/58/58 60/60/60 59/59/59
f 59/59/59 60/60/60 61/61/61
f 60/60/60 62/62/62 61/61/61
f 61/61/61 62/62/62 63/63/63
f 62/62/62 64/64/64 63/63/63
f 63/63/63 64/64/64 65/65/65
f 64/64/64 66/66/66 65/65/65
f 65/65/65 66/66/66 67/67/67
f 66/66/66 68/68/68 67/67/67
f 67/67/67 68/68/68 69/69/69
f 68/68/68 70/70/70 69/69/69
f 69/69/69 70/70/70 71/71/71
f 70/70/70 72/72/72 71/71/71
f 71/71/71 72/72/72 73/73/73
f 72/72/72 74/74/74 73/73/73
f 73/73/73 74/74/74 75/75/75
f 74/74/74 76/76/76 75/75/75
f 75/75/75 76/76/76 77/77/77
f 76/76/76 78/78/78 77/77/77
f 77/77/77 78/78/78 79/79/79
f 78/78/78 80/80/80 79/79/79
f 79/79/79 80/80/80 81/81/81
f 80/80/80 82/82/82 81/81/81
f 81/81/81 82/82/82 83/83/83
f 82/82/82 84/84/84 83/83/83
f 83/83/83 84/84/84 85/85/85
f 84/84/84 86/86/86 85/85/85
f 85/85/85 86/86/86 87/87/87
f 86/86/86 88/88/88 87/87/87
f 87/87/87 88/88/88 89/89/89
f 88/88/88 90/90/90 89/89/89
f 89/89/89 90/90/90 91/91/91
f 90/90/90 92/92/92 91/91/91
f 91/91/91 92/92/92 93/93/93
f 92/92/92 94/94/94 93/93/93
f 93/93/93 94/94/94 95/95/95
f 94/94/94 96/96/96 95/95/95
f 95/95/95 96/96/96 97/97/97
f 96/96/96 98/98/98 97/97/97
f 97/97/97 98/98/98 99/99/99
f 98/98/98 100/100/100 99/99/99
f 99/99/99 100/100/100 101/101/101
f 100/100/100 102/102/102 101/101/101
f 101/101/101 102/102/102 103/103/103
f 102/102/102 104/104/104 103/103/103
f 103/103/103 104/104/104 105/105/105
f 104/104/104 106/106/106 105/105/105
f 105/105/105 106/106/106 107/107/107
f 106/106/106 108/108/108 107/107/107
f 107/107/107 108/108/108 109/109/109
f 108/108/108 110/110/110 109/109/109
f 109/109/109 110/110/110 111/111/111
f 110/110/110 112/112/112 111/111/111
f 111/111/111 112/112/112 113/113/113
f 112/112/112 114/114/114 113/113/113
f 113/113/113 114/114/114 115/115/115
f 114/114/114 116/116/116 115/115/115
f 115/115/115 116/116/116 117/117/117
f 116/116/116 118/118/118 117/117/117
f 117/117/117 118/118/118 119/119/119
f 118/118/118 120/120/120 119/119/119
f 119/119/119 120/120/120 121/121/121
f 120/120/120 122/122/122 121/121/121
f 121/121/121 122/122/122 123/123/123
f 122/122/122 124/124/124 123/123/123
f 123/123/123 124/124/124 125/125/125
f 124/124/124 126/126/126 125/125/125
f 125/125/125 126/126/126 127/127/127
f 126/126/126 128/128/128 127/127/127
f 127/127/127 128/128/128 129/129/129
f 128/128/128 130/130/130 129/129/129
f 129/129/129 130/130/130 131/131/131
f 130/130/130 132/132/132 131/131/131
f 131/131/131 132/132/132 133/133/133
f 132/132/132 134/134/134 133/133/133
f 133/133/133 134/134/134 135/135/135
f 134/134/134 136/136/136 135/135/135
f 135/135/135 136/136/136 137/137/137
f 136/136/136 138/138/138 137/137/137
f 137/137/137 138/138/138 139/139/139
f 138/138/138 140/140/140 139/139/139
f 139/139/139 140/140/140 141/141/141
f 140/140/140 142/142/142 141/141/141
f 141/141/141 142/142/142 143/143/143
f 142/142/142 144/144/144 143/143/143
f 143/143/143 144/144/144 145/145/145
f 144/144/144 146/146/146 145/145/145
f 145/145/145 146/146/146 147/147/147
f 146/146/146 148/148/148 147/147/147
f 147/147/147 148/148/148 149/149/149
f 148/148/148 150/150/150 149/149/149
f 149/149/149 150/150/150 151/151/151
f 150/150/150 152/152/152 151/151/151
f 151/151/151 152/152/152 153/153/153
f 152/152/152 154/154/154 153/153/153
f 153/153/153 154/154/154 155/155/155
f 154/154/154 156/156/156 155/155/155
f 155/155/155 156/156/156 157/157/157
f 156/156/156 158/158/158 157/157/157
f 157/157/157 158/158/158 159/159/159
f 158/158/158 160/160/160 159/159/159
f 159/159/159 160/160/160 161/161/161
f 160/160/160 162/162/162 161/161/161
f 161/161/161 162/162/162 163/163/163
f 162/162/162 164/164/164 163/163/163
f 163/163/163 164/164/164 165/165/165
f 164/164/164 166/166/166 165/165/165
f 165/165/165 166/166/166 167/167/167
f 166/166/166 168/168/168 167/167/167
f 167/167/167 168/168/168 169/169/169
f 168/168/168 170/170/170 169/169/169
f 169/169/169 170/170/170 171/171/171
f 170/170/170 172/172/172 171/171/171
f 171/171/171 172/172/172 173/173/173
f 172/172/172 174/174/174 173/173/173
f 173/173/173 174/174/174 175/175/175
f 174/174/174 176/176/176 175/175/175
f 175/175/175 176/176/176 177/177/177
f 176/176/176 178/178/178 177/177/177
