g SM_VFX_Swipe_Mesh02
v 398.1623 -270.5346 0.8338576
v 377.0813 -227.6783 0.8016822
v 435.4401 -257.0336 0.8971282
v 411.2338 -208.9154 0.8170439
v 350.2462 -189.2099 0.8016822
v 473.6259 -243.8541 1.136673
v 379.8371 -165.9716 0.8016822
v 319.0353 -150.3376 0.8016822
v 445.9999 -190.3076 0.9252093
v 511.8522 -230.5403 1.480961
v 346.8349 -121.1658 0.8016822
v 288.204 -106.5825 0.8016822
v 412.1194 -140.637 0.8204218
v 481.9361 -169.9268 1.178527
v 549.1184 -216.7636 1.603421
v 517.293 -150.5514 1.508163
v 448.7011 -114.8532 0.9588162
v 483.3833 -92.70732 1.231825
v 314.2414 -74.43111 0.8016822
v 255.5291 -63.10513 0.8016822
v 375.8026 -94.00314 0.8016822
v 413.1702 -61.66965 0.8387988
v 451.6282 -35.8463 1.015647
v 277.4034 -30.0833 0.8016822
v 218.2776 -22.26497 0.8016822
v 341.5374 -44.74823 0.8016822
v 371.4343 -12.31531 0.8016822
v 411.0498 21.40328 0.8460503
v 240.369 13.17156 0.8016822
v 178.1377 10.53876 0.8016822
v 301.4048 3.767542 0.8016822
v 326.816 37.07278 0.8016822
v 362.5506 77.08455 0.8016822
v 200.7744 47.63805 0.8016822
v 137.2372 36.06562 0.8016822
v 264.5358 50.08773 0.8016822
v 290.2903 88.65961 0.8016822
v 316.4839 120.7173 0.8016822
v 160.104 73.18736 0.8016822
v 94.72969 56.57705 0.8016822
v 223.9318 83.96567 0.8016822
v 246.4453 117.9374 0.8016822
v 270.4203 152.293 0.8016822
v 116.9307 94.27448 0.8016822
v 49.42694 72.5728 0.8016822
v 183.581 112.3622 0.8016822
v 208.3688 147.868 0.8016822
v 231.6418 182.9052 0.8016822
v 67.86745 103.5116 0.8016822
v 5.930393 83.40047 0.8016822
v 136.9841 134.377 0.8016822
v 157.6394 177.7083 0.8016822
v 179.8065 213.7469 0.8016822
v 18.47338 110.6074 0.8016822
v -38.50869 95.31577 0.8016822
v 86.0086 145.6664 0.8016822
v 103.0639 189.8794 0.8016822
v 120.9627 230.842 0.8016822
v -30.6259 124.026 0.8016822
v -82.76375 95.36104 0.8016822
v 32.26072 149.3589 0.8016822
v 47.30943 194.2747 0.8016822
v 62.71049 246.2455 0.8016822
v -78.3409 133.9519 0.8016822
v -120.6074 91.04081 0.8016822
v -20.92026 160.5975 0.8016822
v -10.08028 203.2106 0.8016822
v 1.405712 255.9684 0.8016822
v -120.5293 127.3162 0.8016822
v -155.4946 83.33093 0.8016822
v -73.22295 173.048 0.8016822
v -67.42838 214.3834 0.8016822
v -61.31963 258.0482 0.8016822
v -157.4677 122.7989 0.8016822
v -192.5744 77.63589 0.8016822
v -119.9404 168.9501 0.8016822
v -120.6183 210.7212 0.8016822
v -122.4444 252.8989 0.8016822
v -197.1729 120.9481 0.8016822
v -233.8772 69.55463 0.8016822
v -160.1651 161.1762 0.8016822
v -166.9633 197.3299 0.8016822
v -173.7593 249.5202 0.8016822
v -243.3454 113.5858 0.8016822
v -274.05 42.20573 0.8016822
v -202.3581 160.0493 0.8016822
v -214.2393 193.2646 0.8016822
v -227.8465 237.7025 0.8016822
v -289.1224 84.8709 0.8016822
v -312.8332 8.729958 0.8016822
v -254.435 150.7826 0.8016822
v -269.4164 183.2477 0.8016822
v -283.833 216.3194 0.8016822
v -331.0032 47.34439 0.8016822
v -350.8322 -23.54527 0.8016822
v -305.9082 126.5154 0.8016822
v -323.2276 165.2423 0.8016822
v -343.0687 193.2728 0.8016822
v -373.8778 13.00646 0.8016822
v -385.3716 -60.65621 0.8016822
v -348.6925 83.42435 0.8016822
v -367.2032 118.8988 0.8016822
v -390.2106 155.5704 0.8016822
v -409.9106 -26.94533 0.8016822
v -418.9088 -98.41874 0.8016822
v -393.5351 45.68816 0.8016822
v -417.4293 79.6068 0.8016822
v -442.4123 113.1779 0.8016822
v -444.5219 -68.21921 0.8016822
v -450.6764 -133.6151 0.8016822
v -438.1298 5.925247 0.8016822
v -464.0861 36.64778 0.8016822
v -489.9568 66.77722 0.8016822
v -479.5599 -108.2144 0.8016822
v -478.4143 -166.0782 0.8016822
v -511.6494 -153.8197 0.8016822
v -476.1725 -38.21461 0.8016822
v -506.9897 -10.26378 0.8016822
v -537.839 16.55647 0.8016822
v -512.1425 -84.72017 0.8016822
v -545.8008 -134.9145 0.8016822
v -543.9839 -61.52165 0.8016822
v -577.6978 -38.39278 0.8016822
v -579.952 -116.0094 0.8016822
v -614.1034 -97.10431 0.8016822
vt 1 0
vt 0.9584961 0
vt 1 0.25
vt 0.9584961 0.25
vt 0.9165039 0
vt 1 0.5
vt 0.9165039 0.25
vt 0.875 0
vt 0.9584961 0.5
vt 1 0.75
vt 0.875 0.25
vt 0.8334961 0
vt 0.9165039 0.5
vt 0.9584961 0.75
vt 1 1
vt 0.9584961 1
vt 0.9165039 0.75
vt 0.9165039 1
vt 0.8334961 0.25
vt 0.7915039 0
vt 0.875 0.5
vt 0.875 0.75
vt 0.875 1
vt 0.7915039 0.25
vt 0.75 0
vt 0.8334961 0.5
vt 0.8334961 0.75
vt 0.8334961 1
vt 0.75 0.25
vt 0.7084961 0
vt 0.7915039 0.5
vt 0.7915039 0.75
vt 0.7915039 1
vt 0.7084961 0.25
vt 0.6665039 0
vt 0.75 0.5
vt 0.75 0.75
vt 0.75 1
vt 0.6665039 0.25
vt 0.625 0
vt 0.7084961 0.5
vt 0.7084961 0.75
vt 0.7084961 1
vt 0.625 0.25
vt 0.5834961 0
vt 0.6665039 0.5
vt 0.6665039 0.75
vt 0.6665039 1
vt 0.5834961 0.25
vt 0.5415039 0
vt 0.625 0.5
vt 0.625 0.75
vt 0.625 1
vt 0.5415039 0.25
vt 0.5 0
vt 0.5834961 0.5
vt 0.5834961 0.75
vt 0.5834961 1
vt 0.5 0.25
vt 0.458252 0
vt 0.5415039 0.5
vt 0.5415039 0.75
vt 0.5415039 1
vt 0.458252 0.25
vt 0.416748 0
vt 0.5 0.5
vt 0.5 0.75
vt 0.5 1
vt 0.416748 0.25
vt 0.375 0
vt 0.458252 0.5
vt 0.458252 0.75
vt 0.458252 1
vt 0.375 0.25
vt 0.333252 0
vt 0.416748 0.5
vt 0.416748 0.75
vt 0.416748 1
vt 0.333252 0.25
vt 0.291748 0
vt 0.375 0.5
vt 0.375 0.75
vt 0.375 1
vt 0.291748 0.25
vt 0.25 0
vt 0.333252 0.5
vt 0.333252 0.75
vt 0.333252 1
vt 0.25 0.25
vt 0.208374 0
vt 0.291748 0.5
vt 0.291748 0.75
vt 0.291748 1
vt 0.208374 0.25
vt 0.166626 0
vt 0.25 0.5
vt 0.25 0.75
vt 0.25 1
vt 0.166626 0.25
vt 0.125 0
vt 0.208374 0.5
vt 0.208374 0.75
vt 0.208374 1
vt 0.125 0.25
vt 0.08331299 0
vt 0.166626 0.5
vt 0.166626 0.75
vt 0.166626 1
vt 0.08331299 0.25
vt 0.04165649 0
vt 0.125 0.5
vt 0.125 0.75
vt 0.125 1
vt 0.04165649 0.25
vt 0 0
vt 0 0.25
vt 0.08331299 0.5
vt 0.08331299 0.75
vt 0.08331299 1
vt 0.04165649 0.5
vt 0 0.5
vt 0.04165649 0.75
vt 0.04165649 1
vt 0 0.75
vt 0 1
vn 0 0 1
vn 0 0 1
vn 0 0 1
vn 0 0 1
vn 0 0 1
vn 0 0 1
vn 0 0 1
vn 0 0 1
vn 0 0 1
vn 0 0 1
vn 0 0 1
vn 0 0 1
vn 0 0 1
vn 0 0 1
vn 0 0 1
vn 0 0 1
vn 0 0 1
vn 0 0 1
vn 0 0 1
vn 0 0 1
vn 0 0 1
vn 0 0 1
vn 0 0 1
vn 0 0 1
vn 0 0 1
vn 0 0 1
vn 0 0 1
vn 0 0 1
vn 0 0 1
vn 0 0 1
vn 0 0 1
vn 0 0 1
vn 0 0 1
vn 0 0 1
vn 0 0 1
vn 0 0 1
vn 0 0 1
vn 0 0 1
vn 0 0 1
vn 0 0 1
vn 0 0 1
vn 0 0 1
vn 0 0 1
vn 0 0 1
vn 0 0 1
vn 0 0 1
vn 0 0 1
vn 0 0 1
vn 0 0 1
vn 0 0 1
vn 0 0 1
vn 0 0 1
vn 0 0 1
vn 0 0 1
vn 0 0 1
vn 0 0 1
vn 0 0 1
vn 0 0 1
vn 0 0 1
vn 0 0 1
vn 0 0 1
vn 0 0 1
vn 0 0 1
vn 0 0 1
vn 0 0 1
vn 0 0 1
vn 0 0 1
vn 0 0 1
vn 0 0 1
vn 0 0 1
vn 0 0 1
vn 0 0 1
vn 0 0 1
vn 0 0 1
vn 0 0 1
vn 0 0 1
vn 0 0 1
vn 0 0 1
vn 0 0 1
vn 0 0 1
vn 0 0 1
vn 0 0 1
vn 0 0 1
vn 0 0 1
vn 0 0 1
vn 0 0 1
vn 0 0 1
vn 0 0 1
vn 0 0 1
vn 0 0 1
vn 0 0 1
vn 0 0 1
vn 0 0 1
vn 0 0 1
vn 0 0 1
vn 0 0 1
vn 0 0 1
vn 0 0 1
vn 0 0 1
vn 0 0 1
vn 0 0 1
vn 0 0 1
vn 0 0 1
vn 0 0 1
vn 0 0 1
vn 0 0 1
vn 0 0 1
vn 0 0 1
vn 0 0 1
vn 0 0 1
vn 0 0 1
vn 0 0 1
vn 0 0 1
vn 0 0 1
vn 0 0 1
vn 0 0 1
vn 0 0 1
vn 0 0 1
vn 0 0 1
vn 0 0 1
vn 0 0 1
vn 0 0 1
vn 0 0 1
vn 0 0 1
vn 0 0 1
g SM_VFX_Swipe_Mesh02_0
f 3/3/3 2/2/2 1/1/1
f 2/2/2 3/3/3 4/4/4
f 4/4/4 5/5/5 2/2/2
f 6/6/6 4/4/4 3/3/3
f 5/5/5 4/4/4 7/7/7
f 7/7/7 8/8/8 5/5/5
f 4/4/4 6/6/6 9/9/9
f 9/9/9 7/7/7 4/4/4
f 10/10/10 9/9/9 6/6/6
f 8/8/8 7/7/7 11/11/11
f 11/11/11 12/12/12 8/8/8
f 7/7/7 9/9/9 13/13/13
f 13/13/13 11/11/11 7/7/7
f 9/9/9 10/10/10 14/14/14
f 14/14/14 13/13/13 9/9/9
f 15/15/15 14/14/14 10/10/10
f 14/14/14 15/15/15 16/16/16
f 16/16/16 17/17/17 14/14/14
f 13/13/13 14/14/14 17/17/17
f 17/17/17 16/16/16 18/18/18
f 12/12/12 11/11/11 19/19/19
f 19/19/19 20/20/20 12/12/12
f 11/11/11 13/13/13 21/21/21
f 17/17/17 21/21/21 13/13/13
f 21/21/21 19/19/19 11/11/11
f 18/18/18 22/22/22 17/17/17
f 21/21/21 17/17/17 22/22/22
f 22/22/22 18/18/18 23/23/23
f 20/20/20 19/19/19 24/24/24
f 24/24/24 25/25/25 20/20/20
f 19/19/19 21/21/21 26/26/26
f 22/22/22 26/26/26 21/21/21
f 26/26/26 24/24/24 19/19/19
f 23/23/23 27/27/27 22/22/22
f 26/26/26 22/22/22 27/27/27
f 27/27/27 23/23/23 28/28/28
f 25/25/25 24/24/24 29/29/29
f 29/29/29 30/30/30 25/25/25
f 24/24/24 26/26/26 31/31/31
f 27/27/27 31/31/31 26/26/26
f 31/31/31 29/29/29 24/24/24
f 28/28/28 32/32/32 27/27/27
f 31/31/31 27/27/27 32/32/32
f 32/32/32 28/28/28 33/33/33
f 30/30/30 29/29/29 34/34/34
f 34/34/34 35/35/35 30/30/30
f 29/29/29 31/31/31 36/36/36
f 32/32/32 36/36/36 31/31/31
f 36/36/36 34/34/34 29/29/29
f 33/33/33 37/37/37 32/32/32
f 36/36/36 32/32/32 37/37/37
f 37/37/37 33/33/33 38/38/38
f 35/35/35 34/34/34 39/39/39
f 39/39/39 40/40/40 35/35/35
f 34/34/34 36/36/36 41/41/41
f 37/37/37 41/41/41 36/36/36
f 41/41/41 39/39/39 34/34/34
f 38/38/38 42/42/42 37/37/37
f 41/41/41 37/37/37 42/42/42
f 42/42/42 38/38/38 43/43/43
f 40/40/40 39/39/39 44/44/44
f 44/44/44 45/45/45 40/40/40
f 39/39/39 41/41/41 46/46/46
f 42/42/42 46/46/46 41/41/41
f 46/46/46 44/44/44 39/39/39
f 43/43/43 47/47/47 42/42/42
f 46/46/46 42/42/42 47/47/47
f 47/47/47 43/43/43 48/48/48
f 45/45/45 44/44/44 49/49/49
f 49/49/49 50/50/50 45/45/45
f 44/44/44 46/46/46 51/51/51
f 47/47/47 51/51/51 46/46/46
f 51/51/51 49/49/49 44/44/44
f 48/48/48 52/52/52 47/47/47
f 51/51/51 47/47/47 52/52/52
f 52/52/52 48/48/48 53/53/53
f 50/50/50 49/49/49 54/54/54
f 54/54/54 55/55/55 50/50/50
f 49/49/49 51/51/51 56/56/56
f 52/52/52 56/56/56 51/51/51
f 56/56/56 54/54/54 49/49/49
f 53/53/53 57/57/57 52/52/52
f 56/56/56 52/52/52 57/57/57
f 57/57/57 53/53/53 58/58/58
f 55/55/55 54/54/54 59/59/59
f 59/59/59 60/60/60 55/55/55
f 54/54/54 56/56/56 61/61/61
f 57/57/57 61/61/61 56/56/56
f 61/61/61 59/59/59 54/54/54
f 58/58/58 62/62/62 57/57/57
f 61/61/61 57/57/57 62/62/62
f 62/62/62 58/58/58 63/63/63
f 60/60/60 59/59/59 64/64/64
f 64/64/64 65/65/65 60/60/60
f 59/59/59 61/61/61 66/66/66
f 62/62/62 66/66/66 61/61/61
f 66/66/66 64/64/64 59/59/59
f 63/63/63 67/67/67 62/62/62
f 66/66/66 62/62/62 67/67/67
f 67/67/67 63/63/63 68/68/68
f 65/65/65 64/64/64 69/69/69
f 69/69/69 70/70/70 65/65/65
f 64/64/64 66/66/66 71/71/71
f 67/67/67 71/71/71 66/66/66
f 71/71/71 69/69/69 64/64/64
f 68/68/68 72/72/72 67/67/67
f 71/71/71 67/67/67 72/72/72
f 72/72/72 68/68/68 73/73/73
f 70/70/70 69/69/69 74/74/74
f 74/74/74 75/75/75 70/70/70
f 69/69/69 71/71/71 76/76/76
f 72/72/72 76/76/76 71/71/71
f 76/76/76 74/74/74 69/69/69
f 73/73/73 77/77/77 72/72/72
f 76/76/76 72/72/72 77/77/77
f 77/77/77 73/73/73 78/78/78
f 75/75/75 74/74/74 79/79/79
f 79/79/79 80/80/80 75/75/75
f 74/74/74 76/76/76 81/81/81
f 77/77/77 81/81/81 76/76/76
f 81/81/81 79/79/79 74/74/74
f 78/78/78 82/82/82 77/77/77
f 81/81/81 77/77/77 82/82/82
f 82/82/82 78/78/78 83/83/83
f 80/80/80 79/79/79 84/84/84
f 84/84/84 85/85/85 80/80/80
f 79/79/79 81/81/81 86/86/86
f 82/82/82 86/86/86 81/81/81
f 86/86/86 84/84/84 79/79/79
f 83/83/83 87/87/87 82/82/82
f 86/86/86 82/82/82 87/87/87
f 87/87/87 83/83/83 88/88/88
f 85/85/85 84/84/84 89/89/89
f 89/89/89 90/90/90 85/85/85
f 84/84/84 86/86/86 91/91/91
f 87/87/87 91/91/91 86/86/86
f 91/91/91 89/89/89 84/84/84
f 88/88/88 92/92/92 87/87/87
f 91/91/91 87/87/87 92/92/92
f 92/92/92 88/88/88 93/93/93
f 90/90/90 89/89/89 94/94/94
f 94/94/94 95/95/95 90/90/90
f 89/89/89 91/91/91 96/96/96
f 92/92/92 96/96/96 91/91/91
f 96/96/96 94/94/94 89/89/89
f 93/93/93 97/97/97 92/92/92
f 96/96/96 92/92/92 97/97/97
f 97/97/97 93/93/93 98/98/98
f 95/95/95 94/94/94 99/99/99
f 99/99/99 100/100/100 95/95/95
f 94/94/94 96/96/96 101/101/101
f 97/97/97 101/101/101 96/96/96
f 101/101/101 99/99/99 94/94/94
f 98/98/98 102/102/102 97/97/97
f 101/101/101 97/97/97 102/102/102
f 102/102/102 98/98/98 103/103/103
f 100/100/100 99/99/99 104/104/104
f 104/104/104 105/105/105 100/100/100
f 99/99/99 101/101/101 106/106/106
f 102/102/102 106/106/106 101/101/101
f 106/106/106 104/104/104 99/99/99
f 103/103/103 107/107/107 102/102/102
f 106/106/106 102/102/102 107/107/107
f 107/107/107 103/103/103 108/108/108
f 105/105/105 104/104/104 109/109/109
f 109/109/109 110/110/110 105/105/105
f 104/104/104 106/106/106 111/111/111
f 107/107/107 111/111/111 106/106/106
f 111/111/111 109/109/109 104/104/104
f 108/108/108 112/112/112 107/107/107
f 111/111/111 107/107/107 112/112/112
f 112/112/112 108/108/108 113/113/113
f 110/110/110 109/109/109 114/114/114
f 114/114/114 115/115/115 110/110/110
f 115/115/115 114/114/114 116/116/116
f 109/109/109 111/111/111 117/117/117
f 112/112/112 117/117/117 111/111/111
f 117/117/117 114/114/114 109/109/109
f 113/113/113 118/118/118 112/112/112
f 117/117/117 112/112/112 118/118/118
f 118/118/118 113/113/113 119/119/119
f 120/120/120 116/116/116 114/114/114
f 114/114/114 117/117/117 120/120/120
f 118/118/118 120/120/120 117/117/117
f 116/116/116 120/120/120 121/121/121
f 119/119/119 122/122/122 118/118/118
f 120/120/120 118/118/118 122/122/122
f 122/122/122 121/121/121 120/120/120
f 122/122/122 119/119/119 123/123/123
f 121/121/121 122/122/122 124/124/124
f 123/123/123 124/124/124 122/122/122
f 124/124/124 123/123/123 125/125/125
