g SM_VFX_Lightbeam_3
v -0.1619748 -1.368073 0.2414626
v -1.453326 -7.200652 0.7515678
v -0.5607601 -1.368072 0.2414626
v -0.5881325 -7.200652 0.7515678
v 0.2023941 -1.368073 0.2414626
v -2.345891 -13.03323 1.261673
v 0.202392 -7.200652 0.7515678
v 0.5639679 -1.368073 0.2414626
v -1.01429 -13.03323 1.261673
v -3.238456 -18.86581 1.771778
v 0.9868522 -7.200652 0.7515679
v 0.9655486 -1.368073 0.2414626
v 1.85811 -7.200653 0.751568
v -1.440448 -18.86581 1.771778
v -4.131021 -24.69839 2.281883
v 0.2023901 -13.03323 1.261673
v 1.409736 -13.03323 1.261673
v 2.750671 -13.03323 1.261673
v -1.866606 -24.69839 2.281883
v -5.023587 -30.53097 2.791988
v -2.292763 -30.53097 2.791988
v 0.2023882 -18.86581 1.771778
v 1.83262 -18.86581 1.771778
v 3.643232 -18.86581 1.771778
v 0.2023861 -24.69839 2.281883
v 0.2023839 -30.53097 2.791988
v 2.255504 -24.69839 2.281883
v 4.535793 -24.69839 2.281883
v 2.678389 -30.53097 2.791988
v 5.428354 -30.53097 2.791989
v 0.7288277 1.629995 0.4202388
v 2.190721 6.176015 1.992
v 1.210019 1.595583 0.4957591
v 1.24894 5.973288 1.791519
v 0.2891636 1.661437 0.3512366
v 3.171422 10.75644 3.488242
v 0.3884372 5.788055 1.60834
v -0.1471273 1.692636 0.2827636
v 1.769053 10.31658 3.162799
v 4.152123 15.33687 4.984481
v -0.465464 5.604246 1.426567
v -0.6316922 1.727289 0.2067142
v -1.413847 5.400097 1.22468
v 2.289165 14.65987 4.534079
v 5.132823 19.9173 6.480721
v 0.487711 9.914675 2.865444
v -0.7838008 9.515856 2.570369
v -2.196001 9.072905 2.242646
v 2.809277 19.00316 5.905358
v 6.113525 24.49773 7.976963
v 3.32939 23.34646 7.276639
v 0.5869844 14.04129 4.122547
v -1.102137 13.42746 3.714172
v -2.978154 12.74571 3.260612
v 0.686258 18.16791 5.379649
v 0.7855316 22.29453 6.636753
v -1.420474 17.33907 4.857975
v -3.760309 16.41852 4.278577
v -1.738811 21.25068 6.001778
v -4.542463 20.09133 5.296544
vt 0.7387257 0
vt 1 0.2
vt 1 0
vt 0.7387257 0.2
vt 0.5 0
vt 1 0.4
vt 0.5 0.2
vt 0.2631058 -2.653983E-09
vt 0.7387257 0.4
vt 1 0.6
vt 0.2631058 0.2
vt 0 0
vt 0 0.2
vt 0.7387257 0.6
vt 1 0.8
vt 0.5 0.4
vt 0.2631058 0.4
vt 0 0.4
vt 0.7387257 0.8
vt 1 1
vt 0.7387257 1
vt 0.5 0.6
vt 0.2631058 0.6
vt 0 0.6
vt 0.5 0.8
vt 0.5 1
vt 0.2631058 0.8
vt 0 0.8
vt 0.2631058 1
vt 0 1
vt 0.7387257 0
vt 1 0.2
vt 1 0
vt 0.7387257 0.2
vt 0.5 0
vt 1 0.4
vt 0.5 0.2
vt 0.2631058 -2.653983E-09
vt 0.7387257 0.4
vt 1 0.6
vt 0.2631058 0.2
vt 0 0
vt 0 0.2
vt 0.7387257 0.6
vt 1 0.8
vt 0.5 0.4
vt 0.2631058 0.4
vt 0 0.4
vt 0.7387257 0.8
vt 1 1
vt 0.7387257 1
vt 0.5 0.6
vt 0.2631058 0.6
vt 0 0.6
vt 0.5 0.8
vt 0.5 1
vt 0.2631058 0.8
vt 0 0.8
vt 0.2631058 1
vt 0 1
vn 0 0.08712533 0.9961975
vn 0 0.08712534 0.9961975
vn 0 0.08712534 0.9961975
vn 0 0.08712534 0.9961975
vn 0 0.08712534 0.9961975
vn 0 0.08712534 0.9961975
vn 0 0.08712534 0.9961975
vn 0 0.08712533 0.9961975
vn 0 0.08712534 0.9961975
vn 0 0.08712535 0.9961973
vn 0 0.08712534 0.9961975
vn 0 0.08712535 0.9961973
vn 0 0.08712534 0.9961975
vn 0 0.08712534 0.9961973
vn 0 0.08712534 0.9961975
vn 0 0.08712534 0.9961973
vn 0 0.08712534 0.9961975
vn 0 0.08712534 0.9961973
vn 0 0.08712534 0.9961973
vn 0 0.0871253 0.9961975
vn 0 0.08712532 0.9961975
vn 0 0.08712534 0.9961973
vn 0 0.08712532 0.9961975
vn 0 0.08712532 0.9961975
vn 0 0.08712533 0.9961975
vn 0 0.08712533 0.9961975
vn 0 0.08712533 0.9961975
vn 0 0.08712534 0.9961975
vn 0 0.08712535 0.9961973
vn 0 0.08712536 0.9961973
vn -0.150557 -0.2812607 0.9477473
vn -0.1410458 -0.2812917 0.9492002
vn -0.1508852 -0.279336 0.9482642
vn -0.1429252 -0.2822586 0.9486318
vn -0.1499442 -0.2848436 0.946774
vn -0.1309896 -0.2832579 0.9500561
vn -0.1422314 -0.2852704 0.9478349
vn -0.1492805 -0.2887078 0.9457078
vn -0.131851 -0.2839764 0.9497225
vn -0.126015 -0.2842183 0.950442
vn -0.1414881 -0.2884984 0.9469687
vn -0.1488895 -0.290976 0.945074
vn -0.1413714 -0.2902753 0.946443
vn -0.1264563 -0.284801 0.9502091
vn -0.1230001 -0.2847968 0.9506638
vn -0.1311331 -0.2859757 0.9492218
vn -0.1303819 -0.2880628 0.9486941
vn -0.1302905 -0.289213 0.9483565
vn -0.1232382 -0.2852882 0.9504856
vn -0.1222256 -0.284945 0.9507194
vn -0.1220597 -0.2853023 0.9506334
vn -0.1258298 -0.286303 0.9498408
vn -0.1251823 -0.2878527 0.9494578
vn -0.1250607 -0.2886993 0.9492168
vn -0.1226956 -0.2864923 0.9501936
vn -0.121539 -0.286423 0.9503632
vn -0.1221388 -0.2877267 0.9498923
vn -0.1220047 -0.2883955 0.9497068
vn -0.121011 -0.287558 0.9500878
vn -0.1206829 -0.2882634 0.9499157
g SM_VFX_Lightbeam_3_0
f 3/3/3 2/2/2 1/1/1
f 2/2/2 4/4/4 1/1/1
f 1/1/1 4/4/4 5/5/5
f 2/2/2 6/6/6 4/4/4
f 4/4/4 7/7/7 5/5/5
f 5/5/5 7/7/7 8/8/8
f 6/6/6 9/9/9 4/4/4
f 4/4/4 9/9/9 7/7/7
f 6/6/6 10/10/10 9/9/9
f 7/7/7 11/11/11 8/8/8
f 8/8/8 11/11/11 12/12/12
f 11/11/11 13/13/13 12/12/12
f 10/10/10 14/14/14 9/9/9
f 14/14/14 10/10/10 15/15/15
f 9/9/9 16/16/16 7/7/7
f 7/7/7 16/16/16 11/11/11
f 9/9/9 14/14/14 16/16/16
f 11/11/11 17/17/17 13/13/13
f 16/16/16 17/17/17 11/11/11
f 17/17/17 18/18/18 13/13/13
f 19/19/19 14/14/14 15/15/15
f 19/19/19 15/15/15 20/20/20
f 21/21/21 19/19/19 20/20/20
f 14/14/14 22/22/22 16/16/16
f 16/16/16 22/22/22 17/17/17
f 22/22/22 14/14/14 19/19/19
f 18/18/18 17/17/17 23/23/23
f 22/22/22 23/23/23 17/17/17
f 24/24/24 18/18/18 23/23/23
f 25/25/25 19/19/19 21/21/21
f 25/25/25 22/22/22 19/19/19
f 23/23/23 22/22/22 25/25/25
f 26/26/26 25/25/25 21/21/21
f 24/24/24 23/23/23 27/27/27
f 27/27/27 23/23/23 25/25/25
f 27/27/27 25/25/25 26/26/26
f 28/28/28 24/24/24 27/27/27
f 29/29/29 27/27/27 26/26/26
f 28/28/28 27/27/27 29/29/29
f 30/30/30 28/28/28 29/29/29
f 33/33/33 32/32/32 31/31/31
f 32/32/32 34/34/34 31/31/31
f 31/31/31 34/34/34 35/35/35
f 32/32/32 36/36/36 34/34/34
f 34/34/34 37/37/37 35/35/35
f 35/35/35 37/37/37 38/38/38
f 36/36/36 39/39/39 34/34/34
f 34/34/34 39/39/39 37/37/37
f 36/36/36 40/40/40 39/39/39
f 37/37/37 41/41/41 38/38/38
f 38/38/38 41/41/41 42/42/42
f 41/41/41 43/43/43 42/42/42
f 40/40/40 44/44/44 39/39/39
f 44/44/44 40/40/40 45/45/45
f 39/39/39 46/46/46 37/37/37
f 37/37/37 46/46/46 41/41/41
f 39/39/39 44/44/44 46/46/46
f 41/41/41 47/47/47 43/43/43
f 46/46/46 47/47/47 41/41/41
f 47/47/47 48/48/48 43/43/43
f 49/49/49 44/44/44 45/45/45
f 49/49/49 45/45/45 50/50/50
f 51/51/51 49/49/49 50/50/50
f 44/44/44 52/52/52 46/46/46
f 46/46/46 52/52/52 47/47/47
f 52/52/52 44/44/44 49/49/49
f 48/48/48 47/47/47 53/53/53
f 52/52/52 53/53/53 47/47/47
f 54/54/54 48/48/48 53/53/53
f 55/55/55 49/49/49 51/51/51
f 55/55/55 52/52/52 49/49/49
f 53/53/53 52/52/52 55/55/55
f 56/56/56 55/55/55 51/51/51
f 54/54/54 53/53/53 57/57/57
f 57/57/57 53/53/53 55/55/55
f 57/57/57 55/55/55 56/56/56
f 58/58/58 54/54/54 57/57/57
f 59/59/59 57/57/57 56/56/56
f 58/58/58 57/57/57 59/59/59
f 60/60/60 58/58/58 59/59/59
