g Star
v 0.53 0 0.235
v 0.7362052 -0.5348849 0.1907842
v 0.0003719926 -0.004120283 0.4571522
v 0.0003719926 -0.004120283 0.4571522
v 0.7362055 0.5348846 0.1907842
v 0.53 0 0.235
v 0.0003719926 -0.004120283 0.4571522
v 0.1637791 0.5040599 0.235
v 0.7362055 0.5348846 0.1907842
v 0.0003719926 -0.004120283 0.4571522
v -0.2812056 0.8654615 0.1907842
v 0.1637791 0.5040599 0.235
v 0.0003719926 -0.004120283 0.4571522
v -0.428779 0.311526 0.235
v -0.2812056 0.8654615 0.1907842
v 0.0003719926 -0.004120283 0.4571522
v -0.91 7.955473E-08 0.1907842
v -0.428779 0.311526 0.235
v 0.0003719926 -0.004120283 0.4571522
v -0.428779 -0.311526 0.235
v -0.91 7.955473E-08 0.1907842
v 0.0003719926 -0.004120283 0.4571522
v -0.2812056 -0.8654615 0.1907842
v -0.428779 -0.311526 0.235
v 0.0003719926 -0.004120283 0.4571522
v 0.1637791 -0.5040599 0.235
v -0.2812056 -0.8654615 0.1907842
v 0.0003719926 -0.004120283 0.4571522
v 0.7362052 -0.5348849 0.1907842
v 0.1637791 -0.5040599 0.235
v 0.53 0 0.1465683
v 0.7362052 -0.5348849 0.1907842
v 0.53 0 0.235
v 0.53 0 0.235
v 0.7362055 0.5348846 0.1907842
v 0.53 0 0.1465683
v 0.7362055 0.5348846 0.1907842
v 0.1637791 0.5040599 0.235
v 0.1637791 0.5040599 0.1465683
v 0.1637791 0.5040599 0.235
v -0.2812056 0.8654615 0.1907842
v 0.1637791 0.5040599 0.1465683
v -0.2812056 0.8654615 0.1907842
v -0.428779 0.311526 0.235
v -0.428779 0.311526 0.1465683
v -0.428779 0.311526 0.235
v -0.91 7.955473E-08 0.1907842
v -0.428779 0.311526 0.1465683
v -0.91 7.955473E-08 0.1907842
v -0.428779 -0.311526 0.235
v -0.428779 -0.311526 0.1465683
v -0.428779 -0.311526 0.235
v -0.2812056 -0.8654615 0.1907842
v -0.428779 -0.311526 0.1465683
v -0.2812056 -0.8654615 0.1907842
v 0.1637791 -0.5040599 0.235
v 0.1637791 -0.5040599 0.1465683
v 0.1637791 -0.5040599 0.235
v 0.7362052 -0.5348849 0.1907842
v 0.1637791 -0.5040599 0.1465683
v 0 0 -0.08148031
v 0.7362052 -0.5348849 0.1907842
v 0.53 0 0.1465683
v 0.53 0 0.1465683
v 0.7362055 0.5348846 0.1907842
v 0 0 -0.08148031
v 0.7362055 0.5348846 0.1907842
v 0.1637791 0.5040599 0.1465683
v 0 0 -0.08148031
v 0.1637791 0.5040599 0.1465683
v -0.2812056 0.8654615 0.1907842
v 0 0 -0.08148031
v -0.2812056 0.8654615 0.1907842
v -0.428779 0.311526 0.1465683
v 0 0 -0.08148031
v -0.428779 0.311526 0.1465683
v -0.91 7.955473E-08 0.1907842
v 0 0 -0.08148031
v -0.91 7.955473E-08 0.1907842
v -0.428779 -0.311526 0.1465683
v 0 0 -0.08148031
v -0.428779 -0.311526 0.1465683
v -0.2812056 -0.8654615 0.1907842
v 0 0 -0.08148031
v -0.2812056 -0.8654615 0.1907842
v 0.1637791 -0.5040599 0.1465683
v 0 0 -0.08148031
v 0.1637791 -0.5040599 0.1465683
v 0.7362052 -0.5348849 0.1907842
v 0 0 -0.08148031
vt 0.6769676 0.06806831
vt 0.4846898 0.02281144
vt 0.6867406 0.272655
vt 0.6867406 0.272655
vt 0.8630871 0.001748651
vt 0.6769676 0.06806831
vt 0.6867406 0.272655
vt 0.8794048 0.198752
vt 0.8630871 0.001748651
vt 0.6867406 0.272655
vt 1 0.3554082
vt 0.8794048 0.198752
vt 0.6867406 0.272655
vt 0.8176304 0.4316703
vt 1 0.3554082
vt 0.6867406 0.272655
vt 0.7058264 0.5946413
vt 0.8176304 0.4316703
vt 0.6867406 0.272655
vt 0.5770528 0.4448649
vt 0.7058264 0.5946413
vt 0.6867406 0.272655
vt 0.3876595 0.3889306
vt 0.5770528 0.4448649
vt 0.6867406 0.272655
vt 0.4901537 0.2201828
vt 0.3876595 0.3889306
vt 0.6867406 0.272655
vt 0.4846898 0.02281144
vt 0.4901537 0.2201828
vt 0.6752464 0.03712669
vt 0.4846898 0.02281144
vt 0.6769676 0.06806831
vt 0.6769676 0.06806831
vt 0.8630871 0.001748651
vt 0.6752464 0.03712669
vt 0.8630871 0.001748651
vt 0.8794048 0.198752
vt 0.9083234 0.1875572
vt 0.8794048 0.198752
vt 1 0.3554082
vt 0.9083234 0.1875572
vt 1 0.3554082
vt 0.8176304 0.4316703
vt 0.837193 0.4557241
vt 0.8176304 0.4316703
vt 0.7058264 0.5946413
vt 0.837193 0.4557241
vt 0.7058264 0.5946413
vt 0.5770528 0.4448649
vt 0.5602326 0.4708821
vt 0.5770528 0.4448649
vt 0.3876595 0.3889306
vt 0.5602326 0.4708821
vt 0.3876595 0.3889306
vt 0.4901537 0.2201828
vt 0.460216 0.2122483
vt 0.4901537 0.2201828
vt 0.4846898 0.02281144
vt 0.460216 0.2122483
vt 0.3209943 0.6947162
vt 0.5806843 0.883392
vt 0.513432 0.6947162
vt 0.513432 0.6947162
vt 0.5806843 0.5060403
vt 0.3209943 0.6947162
vt 0.5806843 0.5060403
vt 0.3804609 0.5116971
vt 0.3209943 0.6947162
vt 0.3804609 0.5116971
vt 0.2218016 0.3894325
vt 0.3209943 0.6947162
vt 0.2218016 0.3894325
vt 0.165309 0.5816042
vt 0.3209943 0.6947162
vt 0.165309 0.5816042
vt 0 0.6947162
vt 0.3209943 0.6947162
vt 0 0.6947162
vt 0.165309 0.8078282
vt 0.3209943 0.6947162
vt 0.165309 0.8078282
vt 0.2218016 1
vt 0.3209943 0.6947162
vt 0.2218016 1
vt 0.3804609 0.8777353
vt 0.3209943 0.6947162
vt 0.3804609 0.8777353
vt 0.5806843 0.883392
vt 0.3209943 0.6947162
vn 0.3853036 0.07249366 0.919938
vn 0.3853036 0.07249366 0.919938
vn 0.3853036 0.07249366 0.919938
vn 0.3862541 -0.07289591 0.9195075
vn 0.3862541 -0.07289591 0.9195075
vn 0.3862541 -0.07289591 0.9195075
vn 0.05032893 0.3864128 0.9209518
vn 0.05032893 0.3864128 0.9209518
vn 0.05032893 0.3864128 0.9209518
vn 0.1866724 0.3424989 0.9207866
vn 0.1866724 0.3424989 0.9207866
vn 0.1866724 0.3424989 0.9207866
vn -0.35321 0.167567 0.9204151
vn -0.35321 0.167567 0.9204151
vn -0.35321 0.167567 0.9204151
vn -0.2681167 0.2834833 0.9207337
vn -0.2681167 0.2834833 0.9207337
vn -0.2681167 0.2834833 0.9207337
vn -0.2702053 -0.2869487 0.9190481
vn -0.2702053 -0.2869487 0.9190481
vn -0.2702053 -0.2869487 0.9190481
vn -0.3555286 -0.1681056 0.9194238
vn -0.3555286 -0.1681056 0.9194238
vn -0.3555286 -0.1681056 0.9194238
vn 0.1898743 -0.3461922 0.9187484
vn 0.1898743 -0.3461922 0.9187484
vn 0.1898743 -0.3461922 0.9187484
vn 0.04985474 -0.3919143 0.9186499
vn 0.04985474 -0.3919143 0.9186499
vn 0.04985474 -0.3919143 0.9186499
vn 0.9330646 0.359709 0
vn 0.9330646 0.359709 0
vn 0.9330646 0.359709 0
vn 0.9330643 -0.3597096 0
vn 0.9330643 -0.3597096 0
vn 0.9330643 -0.3597096 0
vn -0.05377131 0.9985532 0
vn -0.05377131 0.9985532 0
vn -0.05377131 0.9985532 0
vn 0.6304365 0.7762408 0
vn 0.6304365 0.7762408 0
vn 0.6304365 0.7762408 0
vn -0.9662968 0.2574303 0
vn -0.9662968 0.2574303 0
vn -0.9662968 0.2574303 0
vn -0.5434328 0.8394526 0
vn -0.5434328 0.8394526 0
vn -0.5434328 0.8394526 0
vn -0.5434331 -0.8394525 0
vn -0.5434331 -0.8394525 0
vn -0.5434331 -0.8394525 0
vn -0.9662968 -0.2574303 0
vn -0.9662968 -0.2574303 0
vn -0.9662968 -0.2574303 0
vn 0.6304365 -0.7762408 0
vn 0.6304365 -0.7762408 0
vn 0.6304365 -0.7762408 0
vn -0.05377185 -0.9985532 0
vn -0.05377185 -0.9985532 0
vn -0.05377185 -0.9985532 0
vn 0.3940955 0.07621661 -0.9159038
vn 0.3940955 0.07621661 -0.9159038
vn 0.3940955 0.07621661 -0.9159038
vn 0.3940955 -0.07621687 -0.9159038
vn 0.3940955 -0.07621687 -0.9159038
vn 0.3940955 -0.07621687 -0.9159038
vn 0.04929567 0.3983594 -0.9159038
vn 0.04929567 0.3983594 -0.9159038
vn 0.04929567 0.3983594 -0.9159038
vn 0.1942687 0.3512547 -0.9159038
vn 0.1942687 0.3512547 -0.9159038
vn 0.1942687 0.3512547 -0.9159038
vn -0.3636292 0.1699827 -0.9159038
vn -0.3636292 0.1699827 -0.9159038
vn -0.3636292 0.1699827 -0.9159038
vn -0.2740308 0.2933044 -0.9159038
vn -0.2740308 0.2933044 -0.9159038
vn -0.2740308 0.2933044 -0.9159038
vn -0.2740309 -0.2933044 -0.9159037
vn -0.2740309 -0.2933044 -0.9159037
vn -0.2740309 -0.2933044 -0.9159037
vn -0.3636292 -0.1699828 -0.9159038
vn -0.3636292 -0.1699828 -0.9159038
vn -0.3636292 -0.1699828 -0.9159038
vn 0.1942687 -0.3512548 -0.9159038
vn 0.1942687 -0.3512548 -0.9159038
vn 0.1942687 -0.3512548 -0.9159038
vn 0.04929549 -0.3983595 -0.9159038
vn 0.04929549 -0.3983595 -0.9159038
vn 0.04929549 -0.3983595 -0.9159038
g Star_0
f 3/3/3 2/2/2 1/1/1
f 6/6/6 5/5/5 4/4/4
f 9/9/9 8/8/8 7/7/7
f 12/12/12 11/11/11 10/10/10
f 15/15/15 14/14/14 13/13/13
f 18/18/18 17/17/17 16/16/16
f 21/21/21 20/20/20 19/19/19
f 24/24/24 23/23/23 22/22/22
f 27/27/27 26/26/26 25/25/25
f 30/30/30 29/29/29 28/28/28
f 33/33/33 32/32/32 31/31/31
f 36/36/36 35/35/35 34/34/34
f 39/39/39 38/38/38 37/37/37
f 42/42/42 41/41/41 40/40/40
f 45/45/45 44/44/44 43/43/43
f 48/48/48 47/47/47 46/46/46
f 51/51/51 50/50/50 49/49/49
f 54/54/54 53/53/53 52/52/52
f 57/57/57 56/56/56 55/55/55
f 60/60/60 59/59/59 58/58/58
f 63/63/63 62/62/62 61/61/61
f 66/66/66 65/65/65 64/64/64
f 69/69/69 68/68/68 67/67/67
f 72/72/72 71/71/71 70/70/70
f 75/75/75 74/74/74 73/73/73
f 78/78/78 77/77/77 76/76/76
f 81/81/81 80/80/80 79/79/79
f 84/84/84 83/83/83 82/82/82
f 87/87/87 86/86/86 85/85/85
f 90/90/90 89/89/89 88/88/88
